font.ufo
<glyph name="quotedbl" format="1">
  <advance width="402"/>
  <unicode hex="0022"/>
  <outline>
    <contour>
      <point x="122" y="600" type="line"/>
      <point x="125" y="788" type="line"/>
      <point x="95" y="788" type="line"/>
      <point x="98" y="600" type="line"/>
    </contour>
    <contour>
      <point x="305" y="600" type="line"/>
      <point x="308" y="788" type="line"/>
      <point x="278" y="788" type="line"/>
      <point x="281" y="600" type="line"/>
    </contour>
  </outline>
</glyph>
<glyph name="asterisk" format="1">
  <advance width="668"/>
  <unicode hex="002A"/>
  <outline>
    <contour>
      <point x="343" y="594" type="line"/>
      <point x="346" y="782" type="line"/>
      <point x="316" y="782" type="line"/>
      <point x="319" y="594" type="line"/>
    </contour>
    <contour>
      <point x="401" y="541" type="line"/>
      <point x="581" y="597" type="line"/>
      <point x="571" y="625" type="line"/>
      <point x="394" y="564" type="line"/>
    </contour>
    <contour>
      <point x="369" y="471" type="line"/>
      <point x="478" y="317" type="line"/>
      <point x="502" y="335" type="line"/>
      <point x="389" y="485" type="line"/>
    </contour>
    <contour>
      <point x="291" y="479" type="line"/>
      <point x="178" y="329" type="line"/>
      <point x="202" y="311" type="line"/>
      <point x="310" y="465" type="line"/>
    </contour>
    <contour>
      <point x="275" y="555" type="line"/>
      <point x="98" y="616" type="line"/>
      <point x="88" y="588" type="line"/>
      <point x="268" y="532" type="line"/>
    </contour>
  </outline>
</glyph>
<glyph name="plus" format="1">
  <advance width="673"/>
  <unicode hex="002B"/>
  <outline>
    <contour>
      <point x="58" y="297" type="curve"/>
      <point x="615" y="297" type="line"/>
      <point x="615" y="321"/>
      <point x="615" y="297"/>
      <point x="615" y="321" type="curve"/>
      <point x="58" y="321" type="line"/>
      <point x="58" y="297"/>
      <point x="58" y="321"/>
    </contour>
    <contour>
      <point x="346" y="18" type="curve"/>
      <point x="346" y="588" type="line"/>
      <point x="322" y="588"/>
      <point x="346" y="588"/>
      <point x="322" y="588" type="curve"/>
      <point x="322" y="18" type="line"/>
      <point x="346" y="18"/>
      <point x="322" y="18"/>
    </contour>
  </outline>
</glyph>
<glyph name="hyphen" format="1">
  <advance width="482"/>
  <unicode hex="002D"/>
  <outline>
    <contour>
      <point x="89" y="260" type="curve"/>
      <point x="191" y="260"/>
      <point x="292" y="260"/>
      <point x="393" y="260" type="curve"/>
      <point x="393" y="284"/>
      <point x="393" y="260"/>
      <point x="393" y="284" type="curve"/>
      <point x="292" y="284"/>
      <point x="191" y="284"/>
      <point x="89" y="284" type="curve"/>
      <point x="89" y="260"/>
      <point x="89" y="284"/>
    </contour>
  </outline>
</glyph>
<glyph name="slash" format="1">
  <advance width="548"/>
  <unicode hex="002F"/>
  <outline>
    <contour>
      <point x="64" y="-67" type="curve"/>
      <point x="212" y="236"/>
      <point x="360" y="540"/>
      <point x="508" y="843" type="curve"/>
      <point x="484" y="843"/>
      <point x="508" y="843"/>
      <point x="484" y="843" type="curve"/>
      <point x="336" y="540"/>
      <point x="188" y="236"/>
      <point x="39" y="-67" type="curve"/>
      <point x="64" y="-67"/>
      <point x="39" y="-67"/>
    </contour>
  </outline>
</glyph>
<glyph name="three" format="1">
  <advance width="552"/>
  <unicode hex="0033"/>
  <outline>
    <contour>
      <point x="62" y="56" type="curve"/>
      <point x="125" y="17"/>
      <point x="177" y="-5"/>
      <point x="253" y="-5" type="curve"/>
      <point x="395" y="-5"/>
      <point x="487" y="55"/>
      <point x="487" y="195" type="curve"/>
      <point x="487" y="330"/>
      <point x="348" y="390"/>
      <point x="159" y="390" type="curve"/>
      <point x="159" y="377"/>
      <point x="159" y="384"/>
      <point x="159" y="371" type="curve"/>
      <point x="318" y="371"/>
      <point x="463" y="318"/>
      <point x="463" y="194" type="curve"/>
      <point x="463" y="69"/>
      <point x="366" y="20"/>
      <point x="254" y="20" type="curve"/>
      <point x="184" y="20"/>
      <point x="139" y="39"/>
      <point x="74" y="75" type="curve"/>
      <point x="62" y="56"/>
      <point x="74" y="75"/>
    </contour>
    <contour>
      <point x="85" y="626" type="curve"/>
      <point x="122" y="666"/>
      <point x="180" y="702"/>
      <point x="250" y="702" type="curve"/>
      <point x="358" y="702"/>
      <point x="428" y="656"/>
      <point x="428" y="554" type="curve"/>
      <point x="428" y="446"/>
      <point x="302" y="394"/>
      <point x="159" y="394" type="curve"/>
      <point x="159" y="381"/>
      <point x="159" y="388"/>
      <point x="159" y="375" type="curve"/>
      <point x="322" y="375"/>
      <point x="452" y="429"/>
      <point x="452" y="555" type="curve"/>
      <point x="452" y="670"/>
      <point x="373" y="727"/>
      <point x="252" y="727" type="curve"/>
      <point x="173" y="727"/>
      <point x="108" y="685"/>
      <point x="69" y="641" type="curve"/>
      <point x="85" y="626"/>
      <point x="69" y="641"/>
    </contour>
  </outline>
</glyph>
<glyph name="semicolon" format="1">
  <advance width="258"/>
  <unicode hex="003B"/>
  <outline>
    <contour>
      <point x="96" y="-86" type="line"/>
      <point x="124" y="-61"/>
      <point x="148" y="-29"/>
      <point x="148" y="22" type="curve"/>
      <point x="148" y="43"/>
      <point x="145" y="60"/>
      <point x="126" y="60" type="curve"/>
      <point x="113" y="60"/>
      <point x="106" y="54"/>
      <point x="106" y="42" type="curve"/>
      <point x="106" y="32"/>
      <point x="110" y="26"/>
      <point x="121" y="21" type="curve"/>
      <point x="121" y="-3"/>
      <point x="109" y="-42"/>
      <point x="80" y="-68" type="curve"/>
    </contour>
    <contour>
      <point x="146" y="428" type="curve"/>
      <point x="146" y="439"/>
      <point x="139" y="446"/>
      <point x="127" y="446" type="curve"/>
      <point x="116" y="446"/>
      <point x="110" y="439"/>
      <point x="110" y="428" type="curve"/>
      <point x="134" y="428"/>
      <point x="122" y="428"/>
      <point x="146" y="428" type="curve"/>
      <point x="146" y="417"/>
      <point x="139" y="410"/>
      <point x="127" y="410" type="curve"/>
      <point x="116" y="410"/>
      <point x="110" y="417"/>
      <point x="110" y="428" type="curve"/>
      <point x="134" y="428"/>
      <point x="122" y="428"/>
    </contour>
  </outline>
</glyph>
<glyph name="equal" format="1">
  <advance width="838"/>
  <unicode hex="003D"/>
  <outline>
    <contour>
      <point x="90" y="206" type="curve"/>
      <point x="309" y="206"/>
      <point x="528" y="206"/>
      <point x="747" y="206" type="curve"/>
      <point x="747" y="229"/>
      <point x="747" y="206"/>
      <point x="747" y="229" type="curve"/>
      <point x="528" y="229"/>
      <point x="309" y="229"/>
      <point x="90" y="229" type="curve"/>
      <point x="90" y="206"/>
      <point x="90" y="229"/>
    </contour>
    <contour>
      <point x="90" y="428" type="curve"/>
      <point x="309" y="428"/>
      <point x="528" y="428"/>
      <point x="747" y="428" type="curve"/>
      <point x="747" y="451"/>
      <point x="747" y="428"/>
      <point x="747" y="451" type="curve"/>
      <point x="528" y="451"/>
      <point x="309" y="451"/>
      <point x="90" y="451" type="curve"/>
      <point x="90" y="428"/>
      <point x="90" y="451"/>
    </contour>
  </outline>
</glyph>
<glyph name="greater" format="1">
  <advance width="747"/>
  <unicode hex="003E"/>
  <outline>
    <contour>
      <point x="69" y="24" type="curve"/>
      <point x="281" y="114"/>
      <point x="493" y="204"/>
      <point x="705" y="294" type="curve"/>
      <point x="705" y="318"/>
      <point x="705" y="294"/>
      <point x="705" y="318" type="curve"/>
      <point x="493" y="228"/>
      <point x="281" y="138"/>
      <point x="69" y="48" type="curve"/>
      <point x="69" y="24"/>
      <point x="69" y="48"/>
    </contour>
    <contour>
      <point x="59" y="558" type="curve"/>
      <point x="274" y="470"/>
      <point x="490" y="382"/>
      <point x="705" y="294" type="curve"/>
      <point x="705" y="318"/>
      <point x="705" y="294"/>
      <point x="705" y="318" type="curve"/>
      <point x="490" y="406"/>
      <point x="274" y="494"/>
      <point x="59" y="582" type="curve"/>
      <point x="59" y="558"/>
      <point x="59" y="582"/>
    </contour>
  </outline>
</glyph>
<glyph name="question" format="1">
  <advance width="496"/>
  <unicode hex="003F"/>
  <outline>
    <contour>
      <point x="202" y="334" type="curve"/>
      <point x="202" y="297"/>
      <point x="202" y="259"/>
      <point x="202" y="222" type="curve"/>
      <point x="226" y="222"/>
      <point x="202" y="222"/>
      <point x="226" y="222" type="curve"/>
      <point x="226" y="259"/>
      <point x="226" y="297"/>
      <point x="226" y="334" type="curve"/>
      <point x="202" y="334"/>
      <point x="226" y="334"/>
    </contour>
    <contour>
      <point x="81" y="626" type="line"/>
      <point x="114" y="660"/>
      <point x="163" y="688"/>
      <point x="224" y="688" type="curve"/>
      <point x="333" y="688"/>
      <point x="405" y="626"/>
      <point x="405" y="519" type="curve"/>
      <point x="405" y="402"/>
      <point x="325" y="334"/>
      <point x="204" y="334" type="curve"/>
      <point x="204" y="319"/>
      <point x="204" y="326"/>
      <point x="204" y="311" type="curve"/>
      <point x="338" y="311"/>
      <point x="429" y="389"/>
      <point x="429" y="519" type="curve"/>
      <point x="429" y="638"/>
      <point x="347" y="710"/>
      <point x="226" y="710" type="curve"/>
      <point x="155" y="710"/>
      <point x="103" y="680"/>
      <point x="66" y="641" type="curve"/>
    </contour>
    <contour>
      <point x="230" y="11" type="curve"/>
      <point x="230" y="21"/>
      <point x="224" y="27"/>
      <point x="214" y="27" type="curve"/>
      <point x="204" y="27"/>
      <point x="198" y="20"/>
      <point x="198" y="11" type="curve"/>
      <point x="230" y="11"/>
      <point x="198" y="11"/>
      <point x="230" y="11" type="curve"/>
      <point x="230" y="2"/>
      <point x="224" y="-3"/>
      <point x="214" y="-3" type="curve"/>
      <point x="204" y="-3"/>
      <point x="198" y="2"/>
      <point x="198" y="11" type="curve"/>
      <point x="230" y="11"/>
      <point x="198" y="11"/>
    </contour>
  </outline>
</glyph>
<glyph name="at" format="1">
  <advance width="833"/>
  <unicode hex="0040"/>
  <outline>
    <contour>
      <point x="595" y="-88" type="curve"/>
      <point x="538" y="-119"/>
      <point x="495" y="-125"/>
      <point x="429" y="-125" type="curve"/>
      <point x="212" y="-125"/>
      <point x="86" y="-8"/>
      <point x="86" y="205" type="curve"/>
      <point x="86" y="414"/>
      <point x="214" y="531"/>
      <point x="427" y="531" type="curve"/>
      <point x="628" y="531"/>
      <point x="744" y="414"/>
      <point x="744" y="216" type="curve"/>
      <point x="744" y="129"/>
      <point x="725" y="59"/>
      <point x="658" y="59" type="curve"/>
      <point x="587" y="59"/>
      <point x="566" y="126"/>
      <point x="566" y="210" type="curve"/>
      <point x="566" y="315"/>
      <point x="514" y="383"/>
      <point x="412" y="383" type="curve"/>
      <point x="305" y="383"/>
      <point x="247" y="318"/>
      <point x="247" y="211" type="curve"/>
      <point x="247" y="99"/>
      <point x="301" y="27"/>
      <point x="409" y="27" type="curve"/>
      <point x="506" y="27"/>
      <point x="546" y="98"/>
      <point x="561" y="200" type="curve"/>
      <point x="547" y="203"/>
      <point x="561" y="200"/>
      <point x="547" y="203" type="curve"/>
      <point x="525" y="116"/>
      <point x="493" y="49"/>
      <point x="412" y="49" type="curve"/>
      <point x="315" y="49"/>
      <point x="270" y="113"/>
      <point x="270" y="212" type="curve"/>
      <point x="270" y="305"/>
      <point x="319" y="361"/>
      <point x="410" y="361" type="curve"/>
      <point x="500" y="361"/>
      <point x="544" y="302"/>
      <point x="544" y="209" type="curve"/>
      <point x="544" y="113"/>
      <point x="569" y="39"/>
      <point x="656" y="39" type="curve"/>
      <point x="746" y="39"/>
      <point x="768" y="116"/>
      <point x="768" y="217" type="curve"/>
      <point x="768" y="431"/>
      <point x="645" y="554"/>
      <point x="429" y="554" type="curve"/>
      <point x="198" y="554"/>
      <point x="62" y="430"/>
      <point x="62" y="204" type="curve"/>
      <point x="62" y="-22"/>
      <point x="197" y="-147"/>
      <point x="427" y="-147" type="curve"/>
      <point x="498" y="-147"/>
      <point x="545" y="-139"/>
      <point x="606" y="-108" type="curve"/>
      <point x="595" y="-88"/>
      <point x="606" y="-108"/>
    </contour>
  </outline>
</glyph>
<glyph name="B" format="1">
  <advance width="676"/>
  <unicode hex="0042"/>
  <outline>
    <contour>
      <point x="184" y="722" type="curve"/>
      <point x="133" y="722"/>
      <point x="92" y="722"/>
      <point x="41" y="722" type="curve"/>
      <point x="41" y="700"/>
      <point x="41" y="722"/>
      <point x="41" y="700" type="curve"/>
      <point x="193" y="700"/>
      <point x="32" y="700"/>
      <point x="184" y="700" type="curve"/>
      <point x="184" y="722"/>
      <point x="184" y="700"/>
    </contour>
    <contour>
      <point x="182" y="22" type="curve"/>
      <point x="31" y="22"/>
      <point x="192" y="22"/>
      <point x="40" y="22" type="curve"/>
      <point x="40" y="0"/>
      <point x="40" y="22"/>
      <point x="40" y="0" type="curve"/>
      <point x="90" y="0"/>
      <point x="132" y="0"/>
      <point x="182" y="0" type="curve"/>
      <point x="182" y="22"/>
      <point x="182" y="0"/>
    </contour>
    <contour>
      <point x="172" y="700" type="curve"/>
      <point x="244" y="700"/>
      <point x="309" y="700"/>
      <point x="381" y="700" type="curve"/>
      <point x="476" y="700"/>
      <point x="539" y="649"/>
      <point x="539" y="555" type="curve"/>
      <point x="539" y="460"/>
      <point x="454" y="421"/>
      <point x="354" y="421" type="curve"/>
      <point x="290" y="421"/>
      <point x="235" y="421"/>
      <point x="172" y="421" type="curve"/>
      <point x="172" y="406"/>
      <point x="172" y="414"/>
      <point x="172" y="399" type="curve"/>
      <point x="231" y="399"/>
      <point x="284" y="399"/>
      <point x="343" y="399" type="curve"/>
      <point x="464" y="399"/>
      <point x="563" y="443"/>
      <point x="563" y="555" type="curve"/>
      <point x="563" y="663"/>
      <point x="492" y="722"/>
      <point x="381" y="722" type="curve"/>
      <point x="309" y="722"/>
      <point x="244" y="722"/>
      <point x="172" y="722" type="curve"/>
      <point x="172" y="707"/>
      <point x="172" y="715"/>
    </contour>
    <contour>
      <point x="194" y="0" type="curve"/>
      <point x="194" y="241"/>
      <point x="194" y="481"/>
      <point x="194" y="722" type="curve"/>
      <point x="168" y="722"/>
      <point x="194" y="722"/>
      <point x="168" y="722" type="curve"/>
      <point x="168" y="481"/>
      <point x="169" y="241"/>
      <point x="168" y="0" type="curve"/>
      <point x="194" y="0"/>
      <point x="168" y="0"/>
    </contour>
    <contour>
      <point x="172" y="399" type="curve"/>
      <point x="235" y="399"/>
      <point x="290" y="399"/>
      <point x="354" y="399" type="curve"/>
      <point x="491" y="399"/>
      <point x="588" y="338"/>
      <point x="588" y="204" type="curve"/>
      <point x="588" y="83"/>
      <point x="507" y="22"/>
      <point x="381" y="22" type="curve"/>
      <point x="308" y="22"/>
      <point x="244" y="22"/>
      <point x="172" y="22" type="curve"/>
      <point x="172" y="7"/>
      <point x="172" y="15"/>
      <point x="172" y="0" type="curve"/>
      <point x="244" y="0"/>
      <point x="308" y="0"/>
      <point x="381" y="0" type="curve"/>
      <point x="522" y="0"/>
      <point x="612" y="69"/>
      <point x="612" y="204" type="curve"/>
      <point x="612" y="354"/>
      <point x="500" y="421"/>
      <point x="344" y="421" type="curve"/>
      <point x="285" y="421"/>
      <point x="231" y="421"/>
      <point x="172" y="421" type="curve"/>
      <point x="172" y="406"/>
      <point x="172" y="414"/>
    </contour>
  </outline>
</glyph>
<glyph name="D" format="1">
  <advance width="786"/>
  <unicode hex="0044"/>
  <outline>
    <contour>
      <point x="351" y="825" type="move" name="top"/>
    </contour>
    <contour>
      <point x="184" y="22" type="curve"/>
      <point x="33" y="22"/>
      <point x="194" y="22"/>
      <point x="42" y="22" type="curve"/>
      <point x="42" y="0"/>
      <point x="42" y="22"/>
      <point x="42" y="0" type="curve"/>
      <point x="92" y="0"/>
      <point x="134" y="0"/>
      <point x="184" y="0" type="curve"/>
      <point x="184" y="22"/>
      <point x="184" y="0"/>
    </contour>
    <contour>
      <point x="184" y="722" type="curve"/>
      <point x="134" y="722"/>
      <point x="92" y="722"/>
      <point x="42" y="722" type="curve"/>
      <point x="42" y="700"/>
      <point x="42" y="722"/>
      <point x="42" y="700" type="curve"/>
      <point x="194" y="700"/>
      <point x="33" y="700"/>
      <point x="184" y="700" type="curve"/>
      <point x="184" y="722"/>
      <point x="184" y="700"/>
    </contour>
    <contour>
      <point x="170" y="722" type="curve"/>
      <point x="170" y="481"/>
      <point x="170" y="241"/>
      <point x="170" y="0" type="curve"/>
      <point x="195" y="0"/>
      <point x="170" y="0"/>
      <point x="195" y="0" type="curve"/>
      <point x="195" y="241"/>
      <point x="195" y="481"/>
      <point x="195" y="722" type="curve"/>
      <point x="170" y="722"/>
      <point x="195" y="722"/>
    </contour>
    <contour>
      <point x="184" y="0" type="curve"/>
      <point x="253" y="0"/>
      <point x="314" y="0"/>
      <point x="383" y="0" type="curve"/>
      <point x="606" y="0"/>
      <point x="722" y="128"/>
      <point x="722" y="353" type="curve"/>
      <point x="722" y="588"/>
      <point x="602" y="722"/>
      <point x="370" y="722" type="curve"/>
      <point x="305" y="722"/>
      <point x="248" y="722"/>
      <point x="184" y="722" type="curve"/>
      <point x="184" y="707"/>
      <point x="184" y="715"/>
      <point x="184" y="700" type="curve"/>
      <point x="248" y="700"/>
      <point x="305" y="700"/>
      <point x="368" y="700" type="curve"/>
      <point x="587" y="700"/>
      <point x="698" y="573"/>
      <point x="698" y="352" type="curve"/>
      <point x="698" y="143"/>
      <point x="593" y="22"/>
      <point x="385" y="22" type="curve"/>
      <point x="316" y="22"/>
      <point x="254" y="22"/>
      <point x="184" y="22" type="curve"/>
      <point x="184" y="7"/>
      <point x="184" y="15"/>
    </contour>
  </outline>
</glyph>
<glyph name="K" format="1">
  <advance width="740"/>
  <unicode hex="004B"/>
  <outline>
    <contour>
      <point x="420" y="-37" type="move" name="bottom"/>
    </contour>
    <contour>
      <point x="570" y="722" type="curve"/>
      <point x="519" y="722"/>
      <point x="488" y="722"/>
      <point x="437" y="722" type="curve"/>
      <point x="437" y="700"/>
      <point x="437" y="722"/>
      <point x="437" y="700" type="curve"/>
      <point x="589" y="700"/>
      <point x="419" y="700"/>
      <point x="570" y="700" type="curve"/>
      <point x="570" y="722"/>
      <point x="570" y="700"/>
    </contour>
    <contour>
      <point x="597" y="0" type="curve"/>
      <point x="646" y="0"/>
      <point x="680" y="0"/>
      <point x="729" y="0" type="curve"/>
      <point x="729" y="22"/>
      <point x="729" y="0"/>
      <point x="729" y="22" type="curve"/>
      <point x="583" y="22"/>
      <point x="743" y="22"/>
      <point x="597" y="22" type="curve"/>
      <point x="597" y="0"/>
      <point x="597" y="22"/>
    </contour>
    <contour>
      <point x="570" y="700" type="curve"/>
      <point x="716" y="700"/>
      <point x="556" y="700"/>
      <point x="702" y="700" type="curve"/>
      <point x="702" y="722"/>
      <point x="702" y="700"/>
      <point x="702" y="722" type="curve"/>
      <point x="653" y="722"/>
      <point x="619" y="722"/>
      <point x="570" y="722" type="curve"/>
      <point x="570" y="700"/>
      <point x="570" y="722"/>
    </contour>
    <contour>
      <point x="183" y="722" type="curve"/>
      <point x="133" y="722"/>
      <point x="92" y="722"/>
      <point x="41" y="722" type="curve"/>
      <point x="41" y="700"/>
      <point x="41" y="722"/>
      <point x="41" y="700" type="curve"/>
      <point x="193" y="700"/>
      <point x="32" y="700"/>
      <point x="183" y="700" type="curve"/>
      <point x="183" y="722"/>
      <point x="183" y="700"/>
    </contour>
    <contour>
      <point x="183" y="700" type="curve"/>
      <point x="335" y="700"/>
      <point x="169" y="700"/>
      <point x="321" y="700" type="curve"/>
      <point x="321" y="722"/>
      <point x="321" y="700"/>
      <point x="321" y="722" type="curve"/>
      <point x="270" y="722"/>
      <point x="234" y="722"/>
      <point x="183" y="722" type="curve"/>
      <point x="183" y="700"/>
      <point x="183" y="722"/>
    </contour>
    <contour>
      <point x="183" y="0" type="curve"/>
      <point x="234" y="0"/>
      <point x="169" y="0"/>
      <point x="321" y="0" type="curve"/>
      <point x="321" y="22"/>
      <point x="321" y="0"/>
      <point x="321" y="22" type="curve"/>
      <point x="169" y="22"/>
      <point x="335" y="22"/>
      <point x="183" y="22" type="curve"/>
      <point x="183" y="0"/>
      <point x="183" y="22"/>
    </contour>
    <contour>
      <point x="183" y="22" type="curve"/>
      <point x="32" y="22"/>
      <point x="193" y="22"/>
      <point x="41" y="22" type="curve"/>
      <point x="41" y="0"/>
      <point x="41" y="22"/>
      <point x="41" y="0" type="curve"/>
      <point x="92" y="0"/>
      <point x="133" y="0"/>
      <point x="183" y="0" type="curve"/>
      <point x="183" y="22"/>
      <point x="183" y="0"/>
    </contour>
    <contour>
      <point x="569" y="722" type="curve"/>
      <point x="182" y="380" type="line"/>
      <point x="218" y="380"/>
      <point x="182" y="380"/>
      <point x="218" y="380" type="curve"/>
      <point x="607" y="722" type="line"/>
      <point x="569" y="722"/>
      <point x="607" y="722"/>
    </contour>
    <contour>
      <point x="196" y="0" type="curve"/>
      <point x="196" y="722" type="line"/>
      <point x="171" y="722"/>
      <point x="196" y="722"/>
      <point x="171" y="722" type="curve"/>
      <point x="171" y="481"/>
      <point x="171" y="241"/>
      <point x="171" y="0" type="curve"/>
      <point x="196" y="0"/>
      <point x="171" y="0"/>
    </contour>
    <contour>
      <point x="634" y="0" type="curve"/>
      <point x="218" y="380" type="line"/>
      <point x="182" y="380"/>
      <point x="218" y="380"/>
      <point x="182" y="380" type="curve"/>
      <point x="593" y="0" type="line"/>
      <point x="634" y="0"/>
      <point x="593" y="0"/>
    </contour>
  </outline>
</glyph>
<glyph name="T" format="1">
  <advance width="746"/>
  <unicode hex="0054"/>
  <outline>
    <contour>
      <point x="372" y="825" type="move" name="top"/>
    </contour>
    <contour>
      <point x="380" y="-38" type="move" name="bottom"/>
    </contour>
    <contour>
      <point x="50" y="710" type="curve"/>
      <point x="50" y="590"/>
      <point x="50" y="715"/>
      <point x="50" y="595" type="curve"/>
      <point x="72" y="595"/>
      <point x="50" y="595"/>
      <point x="72" y="595" type="curve"/>
      <point x="72" y="715"/>
      <point x="72" y="590"/>
      <point x="72" y="710" type="curve"/>
      <point x="50" y="710"/>
      <point x="72" y="710"/>
    </contour>
    <contour>
      <point x="675" y="710" type="curve"/>
      <point x="675" y="590"/>
      <point x="675" y="715"/>
      <point x="675" y="595" type="curve"/>
      <point x="697" y="595"/>
      <point x="675" y="595"/>
      <point x="697" y="595" type="curve"/>
      <point x="697" y="715"/>
      <point x="697" y="590"/>
      <point x="697" y="710" type="curve"/>
      <point x="675" y="710"/>
      <point x="697" y="710"/>
    </contour>
    <contour>
      <point x="373" y="0" type="curve"/>
      <point x="422" y="0"/>
      <point x="466" y="0"/>
      <point x="515" y="0" type="curve"/>
      <point x="515" y="22"/>
      <point x="515" y="0"/>
      <point x="515" y="22" type="curve"/>
      <point x="368" y="22"/>
      <point x="519" y="22"/>
      <point x="373" y="22" type="curve"/>
      <point x="373" y="0"/>
      <point x="373" y="22"/>
    </contour>
    <contour>
      <point x="373" y="22" type="curve"/>
      <point x="226" y="22"/>
      <point x="377" y="22"/>
      <point x="230" y="22" type="curve"/>
      <point x="230" y="0"/>
      <point x="230" y="22"/>
      <point x="230" y="0" type="curve"/>
      <point x="279" y="0"/>
      <point x="324" y="0"/>
      <point x="373" y="0" type="curve"/>
      <point x="373" y="22"/>
      <point x="373" y="0"/>
    </contour>
    <contour>
      <point x="386" y="0" type="curve"/>
      <point x="386" y="237"/>
      <point x="386" y="473"/>
      <point x="386" y="710" type="curve"/>
      <point x="362" y="710"/>
      <point x="386" y="710"/>
      <point x="362" y="710" type="curve"/>
      <point x="362" y="473"/>
      <point x="362" y="237"/>
      <point x="362" y="0" type="curve"/>
      <point x="386" y="0"/>
      <point x="362" y="0"/>
    </contour>
    <contour>
      <point x="50" y="698" type="curve"/>
      <point x="266" y="698"/>
      <point x="482" y="698"/>
      <point x="697" y="698" type="curve"/>
      <point x="697" y="722"/>
      <point x="697" y="698"/>
      <point x="697" y="722" type="curve"/>
      <point x="482" y="722"/>
      <point x="266" y="722"/>
      <point x="50" y="722" type="curve"/>
      <point x="50" y="698"/>
      <point x="50" y="722"/>
    </contour>
  </outline>
</glyph>
<glyph name="X" format="1">
  <advance width="794"/>
  <unicode hex="0058"/>
  <outline>
    <contour>
      <point x="140" y="0" type="curve"/>
      <point x="189" y="0"/>
      <point x="136" y="0"/>
      <point x="282" y="0" type="curve"/>
      <point x="282" y="22"/>
      <point x="282" y="0"/>
      <point x="282" y="22" type="curve"/>
      <point x="136" y="22"/>
      <point x="287" y="22"/>
      <point x="140" y="22" type="curve"/>
      <point x="140" y="0"/>
      <point x="140" y="22"/>
    </contour>
    <contour>
      <point x="140" y="22" type="curve"/>
      <point x="-6" y="22"/>
      <point x="144" y="22"/>
      <point x="-2" y="22" type="curve"/>
      <point x="-2" y="0"/>
      <point x="-2" y="22"/>
      <point x="-2" y="0" type="curve"/>
      <point x="47" y="0"/>
      <point x="92" y="0"/>
      <point x="140" y="0" type="curve"/>
      <point x="140" y="22"/>
      <point x="140" y="0"/>
    </contour>
    <contour>
      <point x="651" y="0" type="curve"/>
      <point x="699" y="0"/>
      <point x="745" y="0"/>
      <point x="793" y="0" type="curve"/>
      <point x="793" y="22"/>
      <point x="793" y="0"/>
      <point x="793" y="22" type="curve"/>
      <point x="647" y="22"/>
      <point x="797" y="22"/>
      <point x="651" y="22" type="curve"/>
      <point x="651" y="0"/>
      <point x="651" y="22"/>
    </contour>
    <contour>
      <point x="651" y="22" type="curve"/>
      <point x="504" y="22"/>
      <point x="655" y="22"/>
      <point x="509" y="22" type="curve"/>
      <point x="509" y="0"/>
      <point x="509" y="22"/>
      <point x="509" y="0" type="curve"/>
      <point x="557" y="0"/>
      <point x="602" y="0"/>
      <point x="651" y="0" type="curve"/>
      <point x="651" y="22"/>
      <point x="651" y="0"/>
    </contour>
    <contour>
      <point x="624" y="700" type="curve"/>
      <point x="770" y="700"/>
      <point x="620" y="700"/>
      <point x="766" y="700" type="curve"/>
      <point x="766" y="722"/>
      <point x="766" y="700"/>
      <point x="766" y="722" type="curve"/>
      <point x="718" y="722"/>
      <point x="672" y="722"/>
      <point x="624" y="722" type="curve"/>
      <point x="624" y="700"/>
      <point x="624" y="722"/>
    </contour>
    <contour>
      <point x="624" y="722" type="curve"/>
      <point x="575" y="722"/>
      <point x="530" y="722"/>
      <point x="482" y="722" type="curve"/>
      <point x="482" y="700"/>
      <point x="482" y="722"/>
      <point x="482" y="700" type="curve"/>
      <point x="628" y="700"/>
      <point x="477" y="700"/>
      <point x="624" y="700" type="curve"/>
      <point x="624" y="722"/>
      <point x="624" y="700"/>
    </contour>
    <contour>
      <point x="172" y="722" type="curve"/>
      <point x="123" y="722"/>
      <point x="78" y="722"/>
      <point x="30" y="722" type="curve"/>
      <point x="30" y="700"/>
      <point x="30" y="722"/>
      <point x="30" y="700" type="curve"/>
      <point x="176" y="700"/>
      <point x="25" y="700"/>
      <point x="172" y="700" type="curve"/>
      <point x="172" y="722"/>
      <point x="172" y="700"/>
    </contour>
    <contour>
      <point x="172" y="700" type="curve"/>
      <point x="318" y="700"/>
      <point x="168" y="700"/>
      <point x="314" y="700" type="curve"/>
      <point x="314" y="722"/>
      <point x="314" y="700"/>
      <point x="314" y="722" type="curve"/>
      <point x="266" y="722"/>
      <point x="220" y="722"/>
      <point x="172" y="722" type="curve"/>
      <point x="172" y="700"/>
      <point x="172" y="722"/>
    </contour>
    <contour>
      <point x="628" y="722" type="curve"/>
      <point x="455" y="481"/>
      <point x="281" y="241"/>
      <point x="107" y="0" type="curve"/>
      <point x="139" y="0"/>
      <point x="107" y="0"/>
      <point x="139" y="0" type="curve"/>
      <point x="311" y="241"/>
      <point x="484" y="481"/>
      <point x="657" y="722" type="curve"/>
      <point x="628" y="722"/>
      <point x="657" y="722"/>
    </contour>
    <contour>
      <point x="142" y="722" type="curve"/>
      <point x="313" y="481"/>
      <point x="484" y="241"/>
      <point x="656" y="0" type="curve"/>
      <point x="686" y="0"/>
      <point x="656" y="0"/>
      <point x="686" y="0" type="curve"/>
      <point x="514" y="241"/>
      <point x="342" y="481"/>
      <point x="170" y="722" type="curve"/>
      <point x="142" y="722"/>
      <point x="170" y="722"/>
    </contour>
  </outline>
</glyph>
<glyph name="Z" format="1">
  <advance width="685"/>
  <unicode hex="005A"/>
  <outline>
    <contour>
      <point x="347" y="825" type="move" name="top"/>
    </contour>
    <contour>
      <point x="85" y="711" type="curve"/>
      <point x="85" y="591"/>
      <point x="85" y="716"/>
      <point x="85" y="596" type="curve"/>
      <point x="106" y="596"/>
      <point x="85" y="596"/>
      <point x="106" y="596" type="curve"/>
      <point x="106" y="716"/>
      <point x="106" y="591"/>
      <point x="106" y="711" type="curve"/>
      <point x="85" y="711"/>
      <point x="106" y="711"/>
    </contour>
    <contour>
      <point x="642" y="11" type="curve"/>
      <point x="642" y="131"/>
      <point x="642" y="6"/>
      <point x="642" y="126" type="curve"/>
      <point x="620" y="126"/>
      <point x="642" y="126"/>
      <point x="620" y="126" type="curve"/>
      <point x="620" y="6"/>
      <point x="620" y="131"/>
      <point x="620" y="11" type="curve"/>
      <point x="642" y="11"/>
      <point x="620" y="11"/>
    </contour>
    <contour>
      <point x="85" y="700" type="curve"/>
      <point x="253" y="700"/>
      <point x="422" y="700"/>
      <point x="591" y="700" type="curve"/>
      <point x="589" y="703"/>
      <point x="586" y="704"/>
      <point x="584" y="707" type="curve"/>
      <point x="582" y="709"/>
      <point x="581" y="710"/>
      <point x="579" y="712" type="curve"/>
      <point x="576" y="709"/>
      <point x="573" y="705"/>
      <point x="570" y="701" type="curve"/>
      <point x="42" y="22" type="line"/>
      <point x="42" y="10"/>
      <point x="42" y="22"/>
      <point x="42" y="10" type="curve"/>
      <point x="42" y="0"/>
      <point x="42" y="10"/>
      <point x="42" y="0" type="curve"/>
      <point x="48" y="0"/>
      <point x="42" y="0"/>
      <point x="48" y="0" type="curve"/>
      <point x="652" y="0"/>
      <point x="440" y="0"/>
      <point x="642" y="0" type="curve"/>
      <point x="642" y="22"/>
      <point x="642" y="0"/>
      <point x="642" y="22" type="curve"/>
      <point x="440" y="22"/>
      <point x="249" y="22"/>
      <point x="48" y="22" type="curve"/>
      <point x="50" y="20"/>
      <point x="52" y="18"/>
      <point x="54" y="16" type="curve"/>
      <point x="56" y="14"/>
      <point x="59" y="12"/>
      <point x="61" y="10" type="curve"/>
      <point x="64" y="13"/>
      <point x="67" y="17"/>
      <point x="71" y="21" type="curve"/>
      <point x="599" y="700" type="line"/>
      <point x="599" y="712"/>
      <point x="599" y="700"/>
      <point x="599" y="712" type="curve"/>
      <point x="599" y="722"/>
      <point x="599" y="712"/>
      <point x="599" y="722" type="curve"/>
      <point x="591" y="722"/>
      <point x="599" y="722"/>
      <point x="591" y="722" type="curve"/>
      <point x="422" y="722"/>
      <point x="253" y="722"/>
      <point x="85" y="722" type="curve"/>
      <point x="85" y="700"/>
      <point x="85" y="722"/>
    </contour>
  </outline>
</glyph>
<glyph name="bracketright" format="1">
  <advance width="288"/>
  <unicode hex="005D"/>
  <outline>
    <contour>
      <point x="40" y="747" type="curve"/>
      <point x="94" y="747"/>
      <point x="147" y="747"/>
      <point x="200" y="747" type="curve"/>
      <point x="197" y="750"/>
      <point x="193" y="753"/>
      <point x="190" y="756" type="curve"/>
      <point x="187" y="759"/>
      <point x="183" y="762"/>
      <point x="181" y="765" type="curve"/>
      <point x="181" y="470"/>
      <point x="180" y="175"/>
      <point x="181" y="-120" type="curve"/>
      <point x="184" y="-117"/>
      <point x="188" y="-113"/>
      <point x="191" y="-109" type="curve"/>
      <point x="195" y="-107"/>
      <point x="198" y="-103"/>
      <point x="201" y="-100" type="curve"/>
      <point x="147" y="-100"/>
      <point x="94" y="-100"/>
      <point x="40" y="-100" type="curve"/>
      <point x="40" y="-124"/>
      <point x="40" y="-100"/>
      <point x="40" y="-124" type="curve"/>
      <point x="94" y="-124"/>
      <point x="147" y="-124"/>
      <point x="201" y="-124" type="curve"/>
      <point x="205" y="-124"/>
      <point x="201" y="-124"/>
      <point x="205" y="-124" type="curve"/>
      <point x="205" y="-120"/>
      <point x="205" y="-124"/>
      <point x="205" y="-120" type="curve"/>
      <point x="205" y="175"/>
      <point x="205" y="470"/>
      <point x="205" y="765" type="curve"/>
      <point x="205" y="771"/>
      <point x="205" y="765"/>
      <point x="205" y="771" type="curve"/>
      <point x="200" y="771"/>
      <point x="205" y="771"/>
      <point x="200" y="771" type="curve"/>
      <point x="147" y="771"/>
      <point x="94" y="771"/>
      <point x="40" y="771" type="curve"/>
      <point x="40" y="747"/>
      <point x="40" y="771"/>
    </contour>
  </outline>
</glyph>
<glyph name="i" format="1">
  <advance width="318"/>
  <unicode hex="0069"/>
  <outline>
    <contour>
      <point x="177" y="670" type="move" name="top"/>
    </contour>
    <contour>
      <point x="191" y="0" type="move" name="bottom"/>
    </contour>
    <contour>
      <point x="177" y="22" type="curve"/>
      <point x="31" y="22"/>
      <point x="182" y="22"/>
      <point x="35" y="22" type="curve"/>
      <point x="35" y="0"/>
      <point x="35" y="22"/>
      <point x="35" y="0" type="curve"/>
      <point x="84" y="0"/>
      <point x="129" y="0"/>
      <point x="177" y="0" type="curve"/>
      <point x="177" y="22"/>
      <point x="177" y="0"/>
    </contour>
    <contour>
      <point x="177" y="0" type="curve"/>
      <point x="222" y="0"/>
      <point x="264" y="0"/>
      <point x="309" y="0" type="curve"/>
      <point x="309" y="22"/>
      <point x="309" y="0"/>
      <point x="309" y="22" type="curve"/>
      <point x="173" y="22"/>
      <point x="314" y="22"/>
      <point x="177" y="22" type="curve"/>
      <point x="177" y="0"/>
      <point x="177" y="22"/>
    </contour>
    <contour>
      <point x="177" y="533" type="curve"/>
      <point x="129" y="533"/>
      <point x="84" y="533"/>
      <point x="35" y="533" type="curve"/>
      <point x="35" y="511"/>
      <point x="35" y="533"/>
      <point x="35" y="511" type="curve"/>
      <point x="182" y="511"/>
      <point x="31" y="511"/>
      <point x="177" y="511" type="curve"/>
      <point x="177" y="533"/>
      <point x="177" y="511"/>
    </contour>
    <contour>
      <point x="191" y="0" type="curve"/>
      <point x="191" y="178"/>
      <point x="191" y="355"/>
      <point x="191" y="533" type="curve"/>
      <point x="165" y="533"/>
      <point x="191" y="533"/>
      <point x="165" y="533" type="curve"/>
      <point x="165" y="355"/>
      <point x="165" y="178"/>
      <point x="165" y="0" type="curve"/>
      <point x="191" y="0"/>
      <point x="165" y="0"/>
    </contour>
    <contour>
      <point x="195" y="684" type="curve"/>
      <point x="195" y="695"/>
      <point x="187" y="702"/>
      <point x="176" y="702" type="curve"/>
      <point x="165" y="702"/>
      <point x="158" y="695"/>
      <point x="158" y="684" type="curve"/>
      <point x="182" y="684"/>
      <point x="171" y="684"/>
      <point x="195" y="684" type="curve"/>
      <point x="195" y="673"/>
      <point x="187" y="667"/>
      <point x="176" y="667" type="curve"/>
      <point x="165" y="667"/>
      <point x="158" y="673"/>
      <point x="158" y="684" type="curve"/>
      <point x="182" y="684"/>
      <point x="171" y="684"/>
    </contour>
  </outline>
</glyph>
<glyph name="j" format="1">
  <advance width="309"/>
  <unicode hex="006A"/>
  <outline>
    <contour>
      <point x="191" y="533" type="curve"/>
      <point x="142" y="533"/>
      <point x="97" y="533"/>
      <point x="48" y="533" type="curve"/>
      <point x="48" y="511"/>
      <point x="48" y="533"/>
      <point x="48" y="511" type="curve"/>
      <point x="195" y="511"/>
      <point x="44" y="511"/>
      <point x="191" y="511" type="curve"/>
      <point x="191" y="533"/>
      <point x="191" y="511"/>
    </contour>
    <contour>
      <point x="7" y="-301" type="curve"/>
      <point x="16" y="-301"/>
      <point x="27" y="-304"/>
      <point x="39" y="-304" type="curve"/>
      <point x="136" y="-304"/>
      <point x="204" y="-241"/>
      <point x="204" y="-142" type="curve"/>
      <point x="204" y="83"/>
      <point x="204" y="308"/>
      <point x="204" y="533" type="curve"/>
      <point x="180" y="533"/>
      <point x="204" y="533"/>
      <point x="180" y="533" type="curve"/>
      <point x="180" y="308"/>
      <point x="180" y="83"/>
      <point x="180" y="-142" type="curve"/>
      <point x="180" y="-223"/>
      <point x="121" y="-280"/>
      <point x="39" y="-280" type="curve"/>
      <point x="30" y="-280"/>
      <point x="18" y="-279"/>
      <point x="11" y="-278" type="curve"/>
      <point x="8" y="-299"/>
      <point x="11" y="-279"/>
    </contour>
    <contour>
      <point x="211" y="684" type="curve"/>
      <point x="211" y="695"/>
      <point x="204" y="702"/>
      <point x="192" y="702" type="curve"/>
      <point x="181" y="702"/>
      <point x="175" y="695"/>
      <point x="175" y="684" type="curve"/>
      <point x="199" y="684"/>
      <point x="188" y="684"/>
      <point x="211" y="684" type="curve"/>
      <point x="211" y="673"/>
      <point x="204" y="667"/>
      <point x="192" y="667" type="curve"/>
      <point x="181" y="667"/>
      <point x="175" y="673"/>
      <point x="175" y="684" type="curve"/>
      <point x="199" y="684"/>
      <point x="188" y="684"/>
    </contour>
  </outline>
</glyph>
<glyph name="k" format="1">
  <advance width="620"/>
  <unicode hex="006B"/>
  <outline>
    <contour>
      <point x="366" y="-36" type="move" name="bottom"/>
    </contour>
    <contour>
      <point x="149" y="22" type="curve"/>
      <point x="3" y="22"/>
      <point x="153" y="22"/>
      <point x="7" y="22" type="curve"/>
      <point x="7" y="0"/>
      <point x="7" y="22"/>
      <point x="7" y="0" type="curve"/>
      <point x="55" y="0"/>
      <point x="100" y="0"/>
      <point x="149" y="0" type="curve"/>
      <point x="149" y="22"/>
      <point x="149" y="0"/>
    </contour>
    <contour>
      <point x="467" y="0" type="curve"/>
      <point x="514" y="0"/>
      <point x="557" y="0"/>
      <point x="604" y="0" type="curve"/>
      <point x="604" y="22"/>
      <point x="604" y="0"/>
      <point x="604" y="22" type="curve"/>
      <point x="464" y="22"/>
      <point x="608" y="22"/>
      <point x="467" y="22" type="curve"/>
      <point x="467" y="0"/>
      <point x="467" y="22"/>
    </contour>
    <contour>
      <point x="440" y="511" type="curve"/>
      <point x="568" y="511"/>
      <point x="437" y="511"/>
      <point x="564" y="511" type="curve"/>
      <point x="564" y="533"/>
      <point x="564" y="511"/>
      <point x="564" y="533" type="curve"/>
      <point x="522" y="533"/>
      <point x="482" y="533"/>
      <point x="440" y="533" type="curve"/>
      <point x="440" y="511"/>
      <point x="440" y="533"/>
    </contour>
    <contour>
      <point x="149" y="0" type="curve"/>
      <point x="192" y="0"/>
      <point x="145" y="0"/>
      <point x="274" y="0" type="curve"/>
      <point x="274" y="22"/>
      <point x="274" y="0"/>
      <point x="274" y="22" type="curve"/>
      <point x="145" y="22"/>
      <point x="278" y="22"/>
      <point x="149" y="22" type="curve"/>
      <point x="149" y="0"/>
      <point x="149" y="22"/>
    </contour>
    <contour>
      <point x="440" y="533" type="curve"/>
      <point x="395" y="533"/>
      <point x="353" y="533"/>
      <point x="308" y="533" type="curve"/>
      <point x="308" y="511"/>
      <point x="308" y="533"/>
      <point x="308" y="511" type="curve"/>
      <point x="445" y="511"/>
      <point x="304" y="511"/>
      <point x="440" y="511" type="curve"/>
      <point x="440" y="533"/>
      <point x="440" y="511"/>
    </contour>
    <contour>
      <point x="151" y="800" type="curve"/>
      <point x="102" y="800"/>
      <point x="58" y="800"/>
      <point x="9" y="800" type="curve"/>
      <point x="9" y="778"/>
      <point x="9" y="800"/>
      <point x="9" y="778" type="curve"/>
      <point x="156" y="778"/>
      <point x="4" y="778"/>
      <point x="151" y="778" type="curve"/>
      <point x="151" y="800"/>
      <point x="151" y="778"/>
    </contour>
    <contour>
      <point x="162" y="0" type="curve"/>
      <point x="162" y="800" type="line"/>
      <point x="138" y="800"/>
      <point x="162" y="800"/>
      <point x="138" y="800" type="curve"/>
      <point x="138" y="533"/>
      <point x="138" y="267"/>
      <point x="138" y="0" type="curve"/>
      <point x="162" y="0"/>
      <point x="138" y="0"/>
    </contour>
    <contour>
      <point x="439" y="533" type="curve"/>
      <point x="149" y="275" type="line"/>
      <point x="189" y="275"/>
      <point x="147" y="275"/>
      <point x="187" y="275" type="curve"/>
      <point x="477" y="533" type="line"/>
      <point x="437" y="533"/>
      <point x="479" y="533"/>
    </contour>
    <contour>
      <point x="505" y="0" type="curve"/>
      <point x="187" y="275" type="line"/>
      <point x="147" y="275"/>
      <point x="189" y="275"/>
      <point x="149" y="275" type="curve"/>
      <point x="464" y="0" type="line"/>
      <point x="506" y="0"/>
      <point x="462" y="0"/>
    </contour>
  </outline>
</glyph>
<glyph name="v" format="1">
  <advance width="710"/>
  <unicode hex="0076"/>
  <outline>
    <contour>
      <point x="143" y="533" type="curve"/>
      <point x="95" y="533"/>
      <point x="49" y="533"/>
      <point x="1" y="533" type="curve"/>
      <point x="1" y="511"/>
      <point x="1" y="533"/>
      <point x="1" y="511" type="curve"/>
      <point x="147" y="511"/>
      <point x="-3" y="511"/>
      <point x="143" y="511" type="curve"/>
      <point x="143" y="533"/>
      <point x="143" y="511"/>
    </contour>
    <contour>
      <point x="143" y="511" type="curve"/>
      <point x="276" y="511"/>
      <point x="139" y="511"/>
      <point x="272" y="511" type="curve"/>
      <point x="272" y="533"/>
      <point x="272" y="511"/>
      <point x="272" y="533" type="curve"/>
      <point x="228" y="533"/>
      <point x="188" y="533"/>
      <point x="143" y="533" type="curve"/>
      <point x="143" y="511"/>
      <point x="143" y="533"/>
    </contour>
    <contour>
      <point x="571" y="533" type="curve"/>
      <point x="525" y="533"/>
      <point x="484" y="533"/>
      <point x="438" y="533" type="curve"/>
      <point x="438" y="511"/>
      <point x="438" y="533"/>
      <point x="438" y="511" type="curve"/>
      <point x="575" y="511"/>
      <point x="434" y="511"/>
      <point x="571" y="511" type="curve"/>
      <point x="571" y="533"/>
      <point x="571" y="511"/>
    </contour>
    <contour>
      <point x="571" y="511" type="curve"/>
      <point x="712" y="511"/>
      <point x="567" y="511"/>
      <point x="708" y="511" type="curve"/>
      <point x="708" y="533"/>
      <point x="708" y="511"/>
      <point x="708" y="533" type="curve"/>
      <point x="661" y="533"/>
      <point x="618" y="533"/>
      <point x="571" y="533" type="curve"/>
      <point x="571" y="511"/>
      <point x="571" y="533"/>
    </contour>
    <contour>
      <point x="120" y="533" type="curve"/>
      <point x="192" y="355"/>
      <point x="265" y="178"/>
      <point x="337" y="0" type="curve"/>
      <point x="362" y="0"/>
      <point x="337" y="0"/>
      <point x="362" y="0" type="curve"/>
      <point x="290" y="178"/>
      <point x="218" y="355"/>
      <point x="147" y="533" type="curve"/>
      <point x="120" y="533"/>
      <point x="147" y="533"/>
    </contour>
    <contour>
      <point x="569" y="533" type="curve"/>
      <point x="342" y="0" type="line"/>
      <point x="367" y="0"/>
      <point x="342" y="0"/>
      <point x="367" y="0" type="curve"/>
      <point x="443" y="178"/>
      <point x="518" y="355"/>
      <point x="594" y="533" type="curve"/>
      <point x="569" y="533"/>
      <point x="594" y="533"/>
    </contour>
  </outline>
</glyph>
<glyph name="w" format="1">
  <advance width="1055"/>
  <unicode hex="0077"/>
  <outline>
    <contour>
      <point x="911" y="511" type="curve"/>
      <point x="1057" y="511"/>
      <point x="906" y="511"/>
      <point x="1053" y="511" type="curve"/>
      <point x="1053" y="533"/>
      <point x="1053" y="511"/>
      <point x="1053" y="533" type="curve"/>
      <point x="1004" y="533"/>
      <point x="959" y="533"/>
      <point x="911" y="533" type="curve"/>
      <point x="911" y="511"/>
      <point x="911" y="533"/>
    </contour>
    <contour>
      <point x="911" y="533" type="curve"/>
      <point x="862" y="533"/>
      <point x="826" y="533"/>
      <point x="778" y="533" type="curve"/>
      <point x="778" y="511"/>
      <point x="778" y="533"/>
      <point x="778" y="511" type="curve"/>
      <point x="923" y="511"/>
      <point x="765" y="511"/>
      <point x="911" y="511" type="curve"/>
      <point x="911" y="533"/>
      <point x="911" y="511"/>
    </contour>
    <contour>
      <point x="143" y="533" type="curve"/>
      <point x="95" y="533"/>
      <point x="49" y="533"/>
      <point x="1" y="533" type="curve"/>
      <point x="1" y="511"/>
      <point x="1" y="533"/>
      <point x="1" y="511" type="curve"/>
      <point x="147" y="511"/>
      <point x="-3" y="511"/>
      <point x="143" y="511" type="curve"/>
      <point x="143" y="533"/>
      <point x="143" y="511"/>
    </contour>
    <contour>
      <point x="143" y="511" type="curve"/>
      <point x="289" y="511"/>
      <point x="135" y="511"/>
      <point x="281" y="511" type="curve"/>
      <point x="281" y="533"/>
      <point x="281" y="511"/>
      <point x="281" y="533" type="curve"/>
      <point x="232" y="533"/>
      <point x="192" y="533"/>
      <point x="143" y="533" type="curve"/>
      <point x="143" y="511"/>
      <point x="143" y="533"/>
    </contour>
    <contour>
      <point x="332" y="0" type="curve"/>
      <point x="403" y="178"/>
      <point x="473" y="355"/>
      <point x="544" y="533" type="curve"/>
      <point x="517" y="533"/>
      <point x="544" y="533"/>
      <point x="517" y="533" type="curve"/>
      <point x="448" y="355"/>
      <point x="378" y="178"/>
      <point x="309" y="0" type="curve"/>
      <point x="332" y="0"/>
      <point x="309" y="0"/>
    </contour>
    <contour>
      <point x="911" y="533" type="curve"/>
      <point x="846" y="355"/>
      <point x="781" y="178"/>
      <point x="716" y="0" type="curve"/>
      <point x="739" y="0"/>
      <point x="716" y="0"/>
      <point x="739" y="0" type="curve"/>
      <point x="805" y="178"/>
      <point x="871" y="355"/>
      <point x="938" y="533" type="curve"/>
      <point x="911" y="533"/>
      <point x="938" y="533"/>
    </contour>
    <contour>
      <point x="524" y="533" type="curve"/>
      <point x="588" y="355"/>
      <point x="651" y="178"/>
      <point x="715" y="0" type="curve"/>
      <point x="738" y="0"/>
      <point x="715" y="0"/>
      <point x="738" y="0" type="curve"/>
      <point x="675" y="178"/>
      <point x="612" y="355"/>
      <point x="549" y="533" type="curve"/>
      <point x="524" y="533"/>
      <point x="549" y="533"/>
    </contour>
    <contour>
      <point x="117" y="533" type="curve"/>
      <point x="181" y="355"/>
      <point x="244" y="178"/>
      <point x="308" y="0" type="curve"/>
      <point x="331" y="0"/>
      <point x="308" y="0"/>
      <point x="331" y="0" type="curve"/>
      <point x="268" y="178"/>
      <point x="206" y="355"/>
      <point x="143" y="533" type="curve"/>
      <point x="117" y="533"/>
      <point x="143" y="533"/>
    </contour>
  </outline>
</glyph>
<glyph name="x" format="1">
  <advance width="726"/>
  <unicode hex="0078"/>
  <outline>
    <contour>
      <point x="147" y="22" type="curve"/>
      <point x="1" y="22"/>
      <point x="151" y="22"/>
      <point x="5" y="22" type="curve"/>
      <point x="5" y="0"/>
      <point x="5" y="22"/>
      <point x="5" y="0" type="curve"/>
      <point x="53" y="0"/>
      <point x="98" y="0"/>
      <point x="147" y="0" type="curve"/>
      <point x="147" y="22"/>
      <point x="147" y="0"/>
    </contour>
    <contour>
      <point x="578" y="22" type="curve"/>
      <point x="437" y="22"/>
      <point x="586" y="22"/>
      <point x="445" y="22" type="curve"/>
      <point x="445" y="0"/>
      <point x="445" y="22"/>
      <point x="445" y="0" type="curve"/>
      <point x="492" y="0"/>
      <point x="531" y="0"/>
      <point x="578" y="0" type="curve"/>
      <point x="578" y="22"/>
      <point x="578" y="0"/>
    </contour>
    <contour>
      <point x="578" y="0" type="curve"/>
      <point x="626" y="0"/>
      <point x="671" y="0"/>
      <point x="720" y="0" type="curve"/>
      <point x="720" y="22"/>
      <point x="720" y="0"/>
      <point x="720" y="22" type="curve"/>
      <point x="573" y="22"/>
      <point x="724" y="22"/>
      <point x="578" y="22" type="curve"/>
      <point x="578" y="0"/>
      <point x="578" y="22"/>
    </contour>
    <contour>
      <point x="147" y="0" type="curve"/>
      <point x="194" y="0"/>
      <point x="139" y="0"/>
      <point x="280" y="0" type="curve"/>
      <point x="280" y="22"/>
      <point x="280" y="0"/>
      <point x="280" y="22" type="curve"/>
      <point x="139" y="22"/>
      <point x="288" y="22"/>
      <point x="147" y="22" type="curve"/>
      <point x="147" y="0"/>
      <point x="147" y="22"/>
    </contour>
    <contour>
      <point x="560" y="511" type="curve"/>
      <point x="707" y="511"/>
      <point x="556" y="511"/>
      <point x="703" y="511" type="curve"/>
      <point x="703" y="533"/>
      <point x="703" y="511"/>
      <point x="703" y="533" type="curve"/>
      <point x="654" y="533"/>
      <point x="609" y="533"/>
      <point x="560" y="533" type="curve"/>
      <point x="560" y="511"/>
      <point x="560" y="533"/>
    </contour>
    <contour>
      <point x="168" y="533" type="curve"/>
      <point x="119" y="533"/>
      <point x="74" y="533"/>
      <point x="26" y="533" type="curve"/>
      <point x="26" y="511"/>
      <point x="26" y="533"/>
      <point x="26" y="511" type="curve"/>
      <point x="172" y="511"/>
      <point x="22" y="511"/>
      <point x="168" y="511" type="curve"/>
      <point x="168" y="533"/>
      <point x="168" y="511"/>
    </contour>
    <contour>
      <point x="168" y="511" type="curve"/>
      <point x="308" y="511"/>
      <point x="156" y="511"/>
      <point x="296" y="511" type="curve"/>
      <point x="296" y="533"/>
      <point x="296" y="511"/>
      <point x="296" y="533" type="curve"/>
      <point x="249" y="533"/>
      <point x="215" y="533"/>
      <point x="168" y="533" type="curve"/>
      <point x="168" y="511"/>
      <point x="168" y="533"/>
    </contour>
    <contour>
      <point x="560" y="533" type="curve"/>
      <point x="514" y="533"/>
      <point x="479" y="533"/>
      <point x="432" y="533" type="curve"/>
      <point x="432" y="511"/>
      <point x="432" y="533"/>
      <point x="432" y="511" type="curve"/>
      <point x="572" y="511"/>
      <point x="421" y="511"/>
      <point x="560" y="511" type="curve"/>
      <point x="560" y="533"/>
      <point x="560" y="511"/>
    </contour>
    <contour>
      <point x="606" y="0" type="curve"/>
      <point x="461" y="178"/>
      <point x="316" y="355"/>
      <point x="170" y="533" type="curve"/>
      <point x="142" y="533"/>
      <point x="170" y="533"/>
      <point x="142" y="533" type="curve"/>
      <point x="287" y="355"/>
      <point x="431" y="178"/>
      <point x="575" y="0" type="curve"/>
      <point x="606" y="0"/>
      <point x="575" y="0"/>
    </contour>
    <contour>
      <point x="560" y="533" type="curve"/>
      <point x="413" y="355"/>
      <point x="266" y="178"/>
      <point x="119" y="0" type="curve"/>
      <point x="151" y="0"/>
      <point x="119" y="0"/>
      <point x="151" y="0" type="curve"/>
      <point x="297" y="178"/>
      <point x="442" y="355"/>
      <point x="589" y="533" type="curve"/>
      <point x="560" y="533"/>
      <point x="589" y="533"/>
    </contour>
  </outline>
</glyph>
<glyph name="z" format="1">
  <advance width="541"/>
  <unicode hex="007A"/>
  <outline>
    <contour>
      <point x="267" y="670" type="move" name="top"/>
    </contour>
    <contour>
      <point x="70" y="511" type="curve"/>
      <point x="199" y="511"/>
      <point x="325" y="511"/>
      <point x="454" y="511" type="curve"/>
      <point x="452" y="514"/>
      <point x="450" y="515"/>
      <point x="447" y="518" type="curve"/>
      <point x="445" y="520"/>
      <point x="444" y="521"/>
      <point x="442" y="523" type="curve"/>
      <point x="439" y="520"/>
      <point x="436" y="516"/>
      <point x="433" y="512" type="curve"/>
      <point x="55" y="22" type="line"/>
      <point x="55" y="10"/>
      <point x="55" y="22"/>
      <point x="55" y="10" type="curve"/>
      <point x="55" y="0"/>
      <point x="55" y="10"/>
      <point x="55" y="0" type="curve"/>
      <point x="61" y="0"/>
      <point x="55" y="0"/>
      <point x="61" y="0" type="curve"/>
      <point x="490" y="0"/>
      <point x="346" y="0"/>
      <point x="489" y="0" type="curve"/>
      <point x="489" y="22"/>
      <point x="489" y="0"/>
      <point x="489" y="22" type="curve"/>
      <point x="346" y="22"/>
      <point x="203" y="22"/>
      <point x="61" y="22" type="curve"/>
      <point x="63" y="20"/>
      <point x="65" y="18"/>
      <point x="67" y="16" type="curve"/>
      <point x="69" y="14"/>
      <point x="72" y="12"/>
      <point x="74" y="10" type="curve"/>
      <point x="77" y="13"/>
      <point x="79" y="17"/>
      <point x="82" y="21" type="curve"/>
      <point x="461" y="511" type="line"/>
      <point x="461" y="523"/>
      <point x="461" y="511"/>
      <point x="461" y="523" type="curve"/>
      <point x="461" y="533"/>
      <point x="461" y="523"/>
      <point x="461" y="533" type="curve"/>
      <point x="454" y="533"/>
      <point x="461" y="533"/>
      <point x="454" y="533" type="curve"/>
      <point x="325" y="533"/>
      <point x="199" y="533"/>
      <point x="70" y="533" type="curve"/>
      <point x="70" y="511"/>
      <point x="70" y="533"/>
    </contour>
    <contour>
      <point x="70" y="522" type="curve"/>
      <point x="70" y="402"/>
      <point x="70" y="527"/>
      <point x="70" y="407" type="curve"/>
      <point x="91" y="407"/>
      <point x="70" y="407"/>
      <point x="91" y="407" type="curve"/>
      <point x="91" y="527"/>
      <point x="91" y="402"/>
      <point x="91" y="522" type="curve"/>
      <point x="70" y="522"/>
      <point x="91" y="522"/>
    </contour>
    <contour>
      <point x="489" y="11" type="curve"/>
      <point x="489" y="131"/>
      <point x="489" y="6"/>
      <point x="489" y="126" type="curve"/>
      <point x="467" y="126"/>
      <point x="489" y="126"/>
      <point x="467" y="126" type="curve"/>
      <point x="467" y="6"/>
      <point x="467" y="131"/>
      <point x="467" y="11" type="curve"/>
      <point x="489" y="11"/>
      <point x="467" y="11"/>
    </contour>
  </outline>
</glyph>
<glyph name="braceright" format="1">
  <advance width="330"/>
  <unicode hex="007D"/>
  <outline>
    <contour>
      <point x="48" y="-124" type="curve"/>
      <point x="135" y="-124"/>
      <point x="180" y="-63"/>
      <point x="180" y="27" type="curve"/>
      <point x="180" y="86"/>
      <point x="180" y="146"/>
      <point x="180" y="205" type="curve"/>
      <point x="180" y="278"/>
      <point x="218" y="327"/>
      <point x="290" y="327" type="curve"/>
      <point x="290" y="349"/>
      <point x="290" y="327"/>
      <point x="290" y="349" type="curve"/>
      <point x="205" y="349"/>
      <point x="159" y="290"/>
      <point x="159" y="203" type="curve"/>
      <point x="159" y="144"/>
      <point x="159" y="85"/>
      <point x="159" y="26" type="curve"/>
      <point x="159" y="-50"/>
      <point x="123" y="-103"/>
      <point x="48" y="-103" type="curve"/>
      <point x="48" y="-124"/>
      <point x="48" y="-103"/>
    </contour>
    <contour>
      <point x="48" y="778" type="curve"/>
      <point x="123" y="778"/>
      <point x="158" y="726"/>
      <point x="158" y="650" type="curve"/>
      <point x="158" y="591"/>
      <point x="158" y="532"/>
      <point x="158" y="473" type="curve"/>
      <point x="158" y="385"/>
      <point x="205" y="327"/>
      <point x="290" y="327" type="curve"/>
      <point x="290" y="349"/>
      <point x="290" y="327"/>
      <point x="290" y="349" type="curve"/>
      <point x="218" y="349"/>
      <point x="180" y="396"/>
      <point x="180" y="470" type="curve"/>
      <point x="180" y="530"/>
      <point x="180" y="590"/>
      <point x="180" y="650" type="curve"/>
      <point x="180" y="740"/>
      <point x="135" y="799"/>
      <point x="48" y="799" type="curve"/>
      <point x="48" y="778"/>
      <point x="48" y="799"/>
    </contour>
  </outline>
</glyph>
<glyph name="currency" format="1">
  <advance width="644"/>
  <unicode hex="00A4"/>
  <outline>
    <contour>
      <point x="180" y="310" type="curve"/>
      <point x="180" y="400"/>
      <point x="233" y="458"/>
      <point x="323" y="458" type="curve"/>
      <point x="413" y="458"/>
      <point x="463" y="400"/>
      <point x="463" y="310" type="curve"/>
      <point x="463" y="219"/>
      <point x="415" y="156"/>
      <point x="326" y="156" type="curve"/>
      <point x="232" y="156"/>
      <point x="180" y="216"/>
      <point x="180" y="310" type="curve"/>
      <point x="156" y="310"/>
      <point x="180" y="310"/>
      <point x="156" y="310" type="curve"/>
      <point x="156" y="202"/>
      <point x="219" y="135"/>
      <point x="325" y="135" type="curve"/>
      <point x="429" y="135"/>
      <point x="487" y="206"/>
      <point x="487" y="311" type="curve"/>
      <point x="487" y="414"/>
      <point x="426" y="479"/>
      <point x="325" y="479" type="curve"/>
      <point x="220" y="479"/>
      <point x="156" y="415"/>
      <point x="156" y="310" type="curve"/>
      <point x="180" y="310"/>
      <point x="156" y="310"/>
    </contour>
    <contour>
      <point x="440" y="418" type="line"/>
      <point x="575" y="548" type="line"/>
      <point x="554" y="570" type="line"/>
      <point x="423" y="435" type="line"/>
    </contour>
    <contour>
      <point x="422" y="184" type="line"/>
      <point x="553" y="49" type="line"/>
      <point x="574" y="71" type="line"/>
      <point x="439" y="201" type="line"/>
    </contour>
    <contour>
      <point x="202" y="202" type="line"/>
      <point x="67" y="71" type="line"/>
      <point x="88" y="50" type="line"/>
      <point x="219" y="185" type="line"/>
    </contour>
    <contour>
      <point x="220" y="435" type="line"/>
      <point x="89" y="570" type="line"/>
      <point x="68" y="549" type="line"/>
      <point x="203" y="418" type="line"/>
    </contour>
  </outline>
</glyph>
<glyph name="yen" format="1">
  <advance width="865"/>
  <unicode hex="00A5"/>
  <outline>
    <contour>
      <point x="664" y="371" type="curve"/>
      <point x="590" y="371"/>
      <point x="517" y="371"/>
      <point x="443" y="371" type="curve"/>
      <point x="443" y="348"/>
      <point x="443" y="371"/>
      <point x="443" y="348" type="curve"/>
      <point x="517" y="348"/>
      <point x="590" y="348"/>
      <point x="664" y="348" type="curve"/>
      <point x="664" y="371"/>
      <point x="664" y="348"/>
    </contour>
    <contour>
      <point x="413" y="371" type="curve"/>
      <point x="341" y="371"/>
      <point x="268" y="371"/>
      <point x="197" y="371" type="curve"/>
      <point x="197" y="348"/>
      <point x="197" y="371"/>
      <point x="197" y="348" type="curve"/>
      <point x="268" y="348"/>
      <point x="341" y="348"/>
      <point x="413" y="348" type="curve"/>
      <point x="413" y="371"/>
      <point x="413" y="348"/>
    </contour>
    <contour>
      <point x="664" y="252" type="curve"/>
      <point x="508" y="252"/>
      <point x="352" y="252"/>
      <point x="197" y="252" type="curve"/>
      <point x="197" y="229"/>
      <point x="197" y="252"/>
      <point x="197" y="229" type="curve"/>
      <point x="352" y="229"/>
      <point x="508" y="229"/>
      <point x="664" y="229" type="curve"/>
      <point x="664" y="252"/>
      <point x="664" y="229"/>
    </contour>
    <contour>
      <point x="426" y="22" type="curve"/>
      <point x="264" y="22"/>
      <point x="430" y="22"/>
      <point x="268" y="22" type="curve"/>
      <point x="268" y="1"/>
      <point x="268" y="22"/>
      <point x="268" y="1" type="curve"/>
      <point x="322" y="1"/>
      <point x="372" y="1"/>
      <point x="426" y="1" type="curve"/>
      <point x="426" y="22"/>
      <point x="426" y="1"/>
    </contour>
    <contour>
      <point x="426" y="0" type="curve"/>
      <point x="480" y="0"/>
      <point x="530" y="0"/>
      <point x="584" y="0" type="curve"/>
      <point x="584" y="22"/>
      <point x="584" y="0"/>
      <point x="584" y="22" type="curve"/>
      <point x="422" y="21"/>
      <point x="588" y="22"/>
      <point x="426" y="21" type="curve"/>
      <point x="426" y="0"/>
      <point x="426" y="21"/>
    </contour>
    <contour>
      <point x="673" y="722" type="curve"/>
      <point x="618" y="722"/>
      <point x="568" y="722"/>
      <point x="515" y="722" type="curve"/>
      <point x="515" y="701"/>
      <point x="515" y="722"/>
      <point x="515" y="701" type="curve"/>
      <point x="677" y="701"/>
      <point x="510" y="701"/>
      <point x="673" y="701" type="curve"/>
      <point x="673" y="722"/>
      <point x="673" y="701"/>
    </contour>
    <contour>
      <point x="193" y="722" type="curve"/>
      <point x="139" y="722"/>
      <point x="89" y="722"/>
      <point x="35" y="722" type="curve"/>
      <point x="35" y="701"/>
      <point x="35" y="722"/>
      <point x="35" y="701" type="curve"/>
      <point x="197" y="701"/>
      <point x="31" y="701"/>
      <point x="193" y="701" type="curve"/>
      <point x="193" y="722"/>
      <point x="193" y="701"/>
    </contour>
    <contour>
      <point x="193" y="701" type="curve"/>
      <point x="356" y="701"/>
      <point x="189" y="701"/>
      <point x="351" y="701" type="curve"/>
      <point x="351" y="722"/>
      <point x="351" y="701"/>
      <point x="351" y="722" type="curve"/>
      <point x="298" y="722"/>
      <point x="247" y="722"/>
      <point x="193" y="722" type="curve"/>
      <point x="193" y="701"/>
      <point x="193" y="722"/>
    </contour>
    <contour>
      <point x="673" y="701" type="curve"/>
      <point x="835" y="701"/>
      <point x="668" y="701"/>
      <point x="831" y="701" type="curve"/>
      <point x="831" y="722"/>
      <point x="831" y="701"/>
      <point x="831" y="722" type="curve"/>
      <point x="776" y="722"/>
      <point x="726" y="722"/>
      <point x="673" y="722" type="curve"/>
      <point x="673" y="701"/>
      <point x="673" y="722"/>
    </contour>
    <contour>
      <point x="167" y="722" type="curve"/>
      <point x="249" y="593"/>
      <point x="332" y="464"/>
      <point x="414" y="336" type="curve"/>
      <point x="438" y="336"/>
      <point x="414" y="336"/>
      <point x="438" y="336" type="curve"/>
      <point x="356" y="464"/>
      <point x="274" y="593"/>
      <point x="193" y="722" type="curve"/>
      <point x="167" y="722"/>
      <point x="193" y="722"/>
    </contour>
    <contour>
      <point x="672" y="721" type="curve"/>
      <point x="586" y="593"/>
      <point x="500" y="464"/>
      <point x="414" y="336" type="curve"/>
      <point x="438" y="336"/>
      <point x="414" y="336"/>
      <point x="438" y="336" type="curve"/>
      <point x="525" y="464"/>
      <point x="611" y="593"/>
      <point x="698" y="721" type="curve"/>
      <point x="672" y="721"/>
      <point x="698" y="721"/>
    </contour>
    <contour>
      <point x="438" y="0" type="curve"/>
      <point x="438" y="113"/>
      <point x="438" y="227"/>
      <point x="438" y="340" type="curve"/>
      <point x="414" y="340"/>
      <point x="438" y="340"/>
      <point x="414" y="340" type="curve"/>
      <point x="414" y="227"/>
      <point x="414" y="113"/>
      <point x="414" y="0" type="curve"/>
      <point x="438" y="0"/>
      <point x="414" y="0"/>
    </contour>
  </outline>
</glyph>
<glyph name="dieresis" format="1">
  <advance width="373"/>
  <unicode hex="00A8"/>
  <outline>
    <contour>
      <point x="136" y="653" type="move" name="_top"/>
    </contour>
    <contour>
      <point x="91" y="669" type="curve"/>
      <point x="91" y="680"/>
      <point x="84" y="687"/>
      <point x="72" y="687" type="curve"/>
      <point x="61" y="687"/>
      <point x="55" y="680"/>
      <point x="55" y="669" type="curve"/>
      <point x="78" y="669"/>
      <point x="67" y="669"/>
      <point x="91" y="669" type="curve"/>
      <point x="91" y="658"/>
      <point x="84" y="651"/>
      <point x="72" y="651" type="curve"/>
      <point x="61" y="651"/>
      <point x="55" y="658"/>
      <point x="55" y="669" type="curve"/>
      <point x="78" y="669"/>
      <point x="67" y="669"/>
    </contour>
    <contour>
      <point x="217" y="669" type="curve"/>
      <point x="217" y="680"/>
      <point x="209" y="687"/>
      <point x="197" y="687" type="curve"/>
      <point x="186" y="687"/>
      <point x="180" y="680"/>
      <point x="180" y="669" type="curve"/>
      <point x="204" y="669"/>
      <point x="193" y="669"/>
      <point x="217" y="669" type="curve"/>
      <point x="217" y="658"/>
      <point x="209" y="651"/>
      <point x="197" y="651" type="curve"/>
      <point x="186" y="651"/>
      <point x="180" y="658"/>
      <point x="180" y="669" type="curve"/>
      <point x="204" y="669"/>
      <point x="193" y="669"/>
    </contour>
  </outline>
</glyph>
<glyph name="copyright" format="1">
  <advance width="788"/>
  <unicode hex="00A9"/>
  <outline>
    <contour>
      <point x="91" y="319" type="curve"/>
      <point x="91" y="504"/>
      <point x="212" y="625"/>
      <point x="398" y="625" type="curve"/>
      <point x="579" y="625"/>
      <point x="698" y="502"/>
      <point x="698" y="318" type="curve"/>
      <point x="698" y="139"/>
      <point x="582" y="17"/>
      <point x="404" y="17" type="curve"/>
      <point x="219" y="17"/>
      <point x="91" y="134"/>
      <point x="91" y="319" type="curve"/>
      <point x="67" y="319"/>
      <point x="91" y="319"/>
      <point x="67" y="319" type="curve"/>
      <point x="67" y="123"/>
      <point x="203" y="-4"/>
      <point x="403" y="-4" type="curve"/>
      <point x="596" y="-4"/>
      <point x="721" y="126"/>
      <point x="721" y="319" type="curve"/>
      <point x="721" y="515"/>
      <point x="593" y="645"/>
      <point x="398" y="645" type="curve"/>
      <point x="200" y="645"/>
      <point x="67" y="517"/>
      <point x="67" y="319" type="curve"/>
      <point x="91" y="319"/>
      <point x="67" y="319"/>
    </contour>
    <contour>
      <point x="500" y="452" type="curve"/>
      <point x="500" y="429"/>
      <point x="500" y="405"/>
      <point x="500" y="381" type="curve"/>
      <point x="521" y="381"/>
      <point x="500" y="381"/>
      <point x="521" y="381" type="curve"/>
      <point x="521" y="409"/>
      <point x="521" y="436"/>
      <point x="521" y="464" type="curve"/>
      <point x="500" y="452"/>
      <point x="521" y="464"/>
    </contour>
    <contour>
      <point x="522" y="464" type="curve"/>
      <point x="482" y="487"/>
      <point x="450" y="496"/>
      <point x="404" y="496" type="curve"/>
      <point x="297" y="496"/>
      <point x="233" y="427"/>
      <point x="233" y="319" type="curve"/>
      <point x="233" y="215"/>
      <point x="289" y="146"/>
      <point x="391" y="146" type="curve"/>
      <point x="449" y="146"/>
      <point x="489" y="158"/>
      <point x="535" y="193" type="curve"/>
      <point x="519" y="208"/>
      <point x="535" y="193"/>
      <point x="519" y="208" type="curve"/>
      <point x="480" y="178"/>
      <point x="444" y="167"/>
      <point x="392" y="167" type="curve"/>
      <point x="303" y="167"/>
      <point x="257" y="228"/>
      <point x="257" y="320" type="curve"/>
      <point x="257" y="414"/>
      <point x="309" y="475"/>
      <point x="403" y="475" type="curve"/>
      <point x="444" y="475"/>
      <point x="469" y="467"/>
      <point x="500" y="453" type="curve"/>
      <point x="522" y="464"/>
      <point x="500" y="453"/>
    </contour>
  </outline>
</glyph>
<glyph name="macron" format="1">
  <advance width="367"/>
  <unicode hex="00AF"/>
  <outline>
    <contour>
      <point x="143" y="659" type="move" name="_top"/>
    </contour>
    <contour>
      <point x="257" y="680" type="curve"/>
      <point x="179" y="680"/>
      <point x="101" y="680"/>
      <point x="23" y="680" type="curve"/>
      <point x="23" y="659"/>
      <point x="23" y="680"/>
      <point x="23" y="659" type="curve"/>
      <point x="101" y="659"/>
      <point x="179" y="659"/>
      <point x="257" y="659" type="curve"/>
      <point x="257" y="680"/>
      <point x="257" y="659"/>
    </contour>
  </outline>
</glyph>
<glyph name="plusminus" format="1">
  <advance width="708"/>
  <unicode hex="00B1"/>
  <outline>
    <contour>
      <point x="75" y="18" type="line"/>
      <point x="633" y="18" type="line"/>
      <point x="633" y="42" type="line"/>
      <point x="75" y="42" type="line"/>
    </contour>
    <contour>
      <point x="75" y="297" type="curve"/>
      <point x="633" y="297" type="line"/>
      <point x="633" y="321"/>
      <point x="633" y="297"/>
      <point x="633" y="321" type="curve"/>
      <point x="75" y="321" type="line"/>
      <point x="75" y="297"/>
      <point x="75" y="321"/>
    </contour>
    <contour>
      <point x="363" y="18" type="curve"/>
      <point x="363" y="588" type="line"/>
      <point x="339" y="588"/>
      <point x="363" y="588"/>
      <point x="339" y="588" type="curve"/>
      <point x="339" y="18" type="line"/>
      <point x="363" y="18"/>
      <point x="339" y="18"/>
    </contour>
  </outline>
</glyph>
<glyph name="threesuperior" format="1">
  <advance width="447"/>
  <unicode hex="00B3"/>
  <outline>
    <contour>
      <point x="230" y="702" type="move" name="_top"/>
    </contour>
    <contour>
      <point x="217" y="283" type="move" name="_bottom"/>
    </contour>
    <contour>
      <point x="109" y="637" type="curve"/>
      <point x="138" y="663"/>
      <point x="171" y="682"/>
      <point x="212" y="682" type="curve"/>
      <point x="278" y="682"/>
      <point x="326" y="658"/>
      <point x="326" y="596" type="curve"/>
      <point x="326" y="524"/>
      <point x="247" y="513"/>
      <point x="166" y="507" type="curve"/>
      <point x="166" y="489"/>
      <point x="166" y="507"/>
      <point x="166" y="489" type="curve"/>
      <point x="264" y="490"/>
      <point x="350" y="510"/>
      <point x="350" y="598" type="curve"/>
      <point x="350" y="672"/>
      <point x="293" y="702"/>
      <point x="215" y="702" type="curve"/>
      <point x="167" y="702"/>
      <point x="124" y="682"/>
      <point x="94" y="650" type="curve"/>
      <point x="109" y="637"/>
      <point x="94" y="650"/>
    </contour>
    <contour>
      <point x="87" y="317" type="curve"/>
      <point x="124" y="295"/>
      <point x="162" y="284"/>
      <point x="204" y="284" type="curve"/>
      <point x="297" y="281"/>
      <point x="368" y="312"/>
      <point x="366" y="396" type="curve"/>
      <point x="366" y="490"/>
      <point x="271" y="498"/>
      <point x="166" y="500" type="curve"/>
      <point x="166" y="485"/>
      <point x="166" y="500"/>
      <point x="166" y="485" type="curve"/>
      <point x="261" y="480"/>
      <point x="343" y="471"/>
      <point x="343" y="395" type="curve"/>
      <point x="342" y="326"/>
      <point x="285" y="302"/>
      <point x="207" y="304" type="curve"/>
      <point x="168" y="304"/>
      <point x="133" y="314"/>
      <point x="99" y="332" type="curve"/>
      <point x="87" y="317"/>
      <point x="99" y="332"/>
    </contour>
  </outline>
</glyph>
<glyph name="paragraph" format="1">
  <advance width="699"/>
  <unicode hex="00B6"/>
  <outline>
    <contour>
      <point x="437" y="700" type="curve"/>
      <point x="605" y="700"/>
      <point x="437" y="700"/>
      <point x="605" y="700" type="curve"/>
      <point x="605" y="722"/>
      <point x="605" y="700"/>
      <point x="605" y="722" type="curve"/>
      <point x="549" y="722"/>
      <point x="493" y="722"/>
      <point x="437" y="722" type="curve"/>
      <point x="437" y="700"/>
      <point x="437" y="722"/>
    </contour>
    <contour>
      <point x="437" y="0" type="curve"/>
      <point x="493" y="0"/>
      <point x="549" y="0"/>
      <point x="605" y="0" type="curve"/>
      <point x="605" y="22"/>
      <point x="605" y="0"/>
      <point x="605" y="22" type="curve"/>
      <point x="437" y="22"/>
      <point x="605" y="22"/>
      <point x="437" y="22" type="curve"/>
      <point x="437" y="0"/>
      <point x="437" y="22"/>
    </contour>
    <contour>
      <point x="437" y="22" type="curve"/>
      <point x="284" y="22"/>
      <point x="437" y="22"/>
      <point x="284" y="22" type="curve"/>
      <point x="284" y="0"/>
      <point x="284" y="22"/>
      <point x="284" y="0" type="curve"/>
      <point x="437" y="0"/>
      <point x="386" y="0"/>
      <point x="437" y="0" type="curve"/>
      <point x="437" y="22"/>
      <point x="437" y="0"/>
    </contour>
    <contour>
      <point x="432" y="346" type="curve"/>
      <point x="377" y="319"/>
      <point x="335" y="302"/>
      <point x="274" y="302" type="curve"/>
      <point x="152" y="302"/>
      <point x="72" y="373"/>
      <point x="72" y="493" type="curve"/>
      <point x="72" y="626"/>
      <point x="166" y="700"/>
      <point x="304" y="700" type="curve"/>
      <point x="347" y="700"/>
      <point x="391" y="700"/>
      <point x="434" y="700" type="curve"/>
      <point x="434" y="722"/>
      <point x="434" y="700"/>
      <point x="434" y="722" type="curve"/>
      <point x="390" y="722"/>
      <point x="345" y="722"/>
      <point x="301" y="722" type="curve"/>
      <point x="151" y="722"/>
      <point x="47" y="638"/>
      <point x="47" y="494" type="curve"/>
      <point x="47" y="357"/>
      <point x="138" y="283"/>
      <point x="276" y="280" type="curve"/>
      <point x="336" y="280"/>
      <point x="387" y="299"/>
      <point x="440" y="326" type="curve"/>
      <point x="432" y="346"/>
      <point x="440" y="326"/>
    </contour>
    <contour>
      <point x="451" y="0" type="curve"/>
      <point x="451" y="241"/>
      <point x="451" y="481"/>
      <point x="451" y="722" type="curve"/>
      <point x="426" y="722"/>
      <point x="451" y="722"/>
      <point x="426" y="722" type="curve"/>
      <point x="426" y="481"/>
      <point x="426" y="241"/>
      <point x="426" y="0" type="curve"/>
      <point x="451" y="0"/>
      <point x="426" y="0"/>
    </contour>
    <contour>
      <point x="614" y="0" type="curve"/>
      <point x="614" y="241"/>
      <point x="614" y="481"/>
      <point x="614" y="722" type="curve"/>
      <point x="590" y="722"/>
      <point x="614" y="722"/>
      <point x="590" y="722" type="curve"/>
      <point x="590" y="481"/>
      <point x="590" y="241"/>
      <point x="590" y="0" type="curve"/>
      <point x="614" y="0"/>
      <point x="590" y="0"/>
    </contour>
  </outline>
</glyph>
<glyph name="onesuperior" format="1">
  <advance width="394"/>
  <unicode hex="00B9"/>
  <outline>
    <contour>
      <point x="233" y="693" type="move" name="_top"/>
    </contour>
    <contour>
      <point x="232" y="291" type="move" name="_bottom"/>
    </contour>
    <contour>
      <point x="220" y="289" type="curve"/>
      <point x="259" y="289"/>
      <point x="284" y="289"/>
      <point x="323" y="289" type="curve"/>
      <point x="323" y="310"/>
      <point x="323" y="289"/>
      <point x="323" y="310" type="curve"/>
      <point x="292" y="310"/>
      <point x="274" y="310"/>
      <point x="244" y="310" type="curve"/>
      <point x="220" y="289"/>
      <point x="244" y="310"/>
    </contour>
    <contour>
      <point x="244" y="310" type="curve"/>
      <point x="204" y="310"/>
      <point x="177" y="310"/>
      <point x="137" y="310" type="curve"/>
      <point x="137" y="289"/>
      <point x="137" y="310"/>
      <point x="137" y="289" type="curve"/>
      <point x="169" y="289"/>
      <point x="188" y="289"/>
      <point x="221" y="289" type="curve"/>
      <point x="244" y="310"/>
      <point x="221" y="289"/>
    </contour>
    <contour>
      <point x="96" y="568" type="line"/>
      <point x="243" y="686" type="line"/>
      <point x="221" y="696" type="line"/>
      <point x="82" y="585" type="line"/>
    </contour>
    <contour>
      <point x="244" y="310" type="curve"/>
      <point x="244" y="696" type="line"/>
      <point x="221" y="696" type="line"/>
      <point x="221" y="289" type="line"/>
      <point x="244" y="310"/>
      <point x="221" y="289"/>
    </contour>
  </outline>
</glyph>
<glyph name="Atilde" format="1">
  <advance width="836"/>
  <unicode hex="00C3"/>
  <outline>
    <contour>
      <point x="113" y="22" type="curve"/>
      <point x="-33" y="22"/>
      <point x="123" y="22"/>
      <point x="-24" y="22" type="curve"/>
      <point x="-24" y="0"/>
      <point x="-24" y="22"/>
      <point x="-24" y="0" type="curve"/>
      <point x="25" y="0"/>
      <point x="65" y="0"/>
      <point x="113" y="0" type="curve"/>
      <point x="113" y="22"/>
      <point x="113" y="0"/>
    </contour>
    <contour>
      <point x="113" y="0" type="curve"/>
      <point x="164" y="0"/>
      <point x="104" y="0"/>
      <point x="255" y="0" type="curve"/>
      <point x="255" y="22"/>
      <point x="255" y="0"/>
      <point x="255" y="22" type="curve"/>
      <point x="104" y="22"/>
      <point x="265" y="22"/>
      <point x="113" y="22" type="curve"/>
      <point x="113" y="0"/>
      <point x="113" y="22"/>
    </contour>
    <contour>
      <point x="685" y="0" type="curve"/>
      <point x="733" y="0"/>
      <point x="773" y="0"/>
      <point x="821" y="0" type="curve"/>
      <point x="821" y="22"/>
      <point x="821" y="0"/>
      <point x="821" y="22" type="curve"/>
      <point x="675" y="22"/>
      <point x="831" y="22"/>
      <point x="685" y="22" type="curve"/>
      <point x="685" y="0"/>
      <point x="685" y="22"/>
    </contour>
    <contour>
      <point x="685" y="22" type="curve"/>
      <point x="533" y="22"/>
      <point x="694" y="22"/>
      <point x="542" y="22" type="curve"/>
      <point x="542" y="0"/>
      <point x="542" y="22"/>
      <point x="542" y="0" type="curve"/>
      <point x="593" y="0"/>
      <point x="634" y="0"/>
      <point x="685" y="0" type="curve"/>
      <point x="685" y="22"/>
      <point x="685" y="0"/>
    </contour>
    <contour>
      <point x="590" y="277" type="curve"/>
      <point x="468" y="277"/>
      <point x="346" y="277"/>
      <point x="224" y="277" type="curve"/>
      <point x="214" y="254"/>
      <point x="224" y="277"/>
      <point x="214" y="254" type="curve"/>
      <point x="342" y="254"/>
      <point x="470" y="254"/>
      <point x="598" y="254" type="curve"/>
      <point x="590" y="277"/>
      <point x="598" y="254"/>
    </contour>
    <contour>
      <point x="709" y="0" type="curve"/>
      <point x="615" y="241"/>
      <point x="521" y="481"/>
      <point x="427" y="722" type="curve"/>
      <point x="405" y="722"/>
      <point x="427" y="722"/>
      <point x="405" y="722" type="curve"/>
      <point x="498" y="481"/>
      <point x="591" y="241"/>
      <point x="684" y="0" type="curve"/>
      <point x="709" y="0"/>
      <point x="684" y="0"/>
    </contour>
    <contour>
      <point x="114" y="0" type="curve"/>
      <point x="218" y="241"/>
      <point x="321" y="481"/>
      <point x="425" y="722" type="curve"/>
      <point x="403" y="722"/>
      <point x="425" y="722"/>
      <point x="403" y="722" type="curve"/>
      <point x="298" y="481"/>
      <point x="193" y="241"/>
      <point x="88" y="0" type="curve"/>
      <point x="114" y="0"/>
      <point x="88" y="0"/>
    </contour>
    <contour>
      <point x="590" y="948" type="curve"/>
      <point x="576" y="895"/>
      <point x="560" y="845"/>
      <point x="513" y="845" type="curve"/>
      <point x="473" y="845"/>
      <point x="449" y="864"/>
      <point x="421" y="894" type="curve"/>
      <point x="391" y="927"/>
      <point x="367" y="949"/>
      <point x="323" y="949" type="curve"/>
      <point x="257" y="949"/>
      <point x="231" y="899"/>
      <point x="217" y="830" type="curve"/>
      <point x="236" y="824"/>
      <point x="217" y="830"/>
      <point x="236" y="824" type="curve"/>
      <point x="250" y="883"/>
      <point x="270" y="928"/>
      <point x="323" y="928" type="curve"/>
      <point x="360" y="928"/>
      <point x="379" y="908"/>
      <point x="403" y="880" type="curve"/>
      <point x="436" y="846"/>
      <point x="464" y="824"/>
      <point x="511" y="824" type="curve"/>
      <point x="575" y="824"/>
      <point x="593" y="880"/>
      <point x="610" y="944" type="curve"/>
      <point x="590" y="948"/>
      <point x="610" y="944"/>
    </contour>
  </outline>
</glyph>
<glyph name="Adieresis" format="1">
  <advance width="836"/>
  <unicode hex="00C4"/>
  <outline>
    <contour>
      <point x="113" y="22" type="curve"/>
      <point x="-33" y="22"/>
      <point x="123" y="22"/>
      <point x="-24" y="22" type="curve"/>
      <point x="-24" y="0"/>
      <point x="-24" y="22"/>
      <point x="-24" y="0" type="curve"/>
      <point x="25" y="0"/>
      <point x="65" y="0"/>
      <point x="113" y="0" type="curve"/>
      <point x="113" y="22"/>
      <point x="113" y="0"/>
    </contour>
    <contour>
      <point x="113" y="0" type="curve"/>
      <point x="164" y="0"/>
      <point x="104" y="0"/>
      <point x="255" y="0" type="curve"/>
      <point x="255" y="22"/>
      <point x="255" y="0"/>
      <point x="255" y="22" type="curve"/>
      <point x="104" y="22"/>
      <point x="265" y="22"/>
      <point x="113" y="22" type="curve"/>
      <point x="113" y="0"/>
      <point x="113" y="22"/>
    </contour>
    <contour>
      <point x="685" y="0" type="curve"/>
      <point x="733" y="0"/>
      <point x="773" y="0"/>
      <point x="821" y="0" type="curve"/>
      <point x="821" y="22"/>
      <point x="821" y="0"/>
      <point x="821" y="22" type="curve"/>
      <point x="675" y="22"/>
      <point x="831" y="22"/>
      <point x="685" y="22" type="curve"/>
      <point x="685" y="0"/>
      <point x="685" y="22"/>
    </contour>
    <contour>
      <point x="685" y="22" type="curve"/>
      <point x="533" y="22"/>
      <point x="694" y="22"/>
      <point x="542" y="22" type="curve"/>
      <point x="542" y="0"/>
      <point x="542" y="22"/>
      <point x="542" y="0" type="curve"/>
      <point x="593" y="0"/>
      <point x="634" y="0"/>
      <point x="685" y="0" type="curve"/>
      <point x="685" y="22"/>
      <point x="685" y="0"/>
    </contour>
    <contour>
      <point x="590" y="277" type="curve"/>
      <point x="468" y="277"/>
      <point x="346" y="277"/>
      <point x="224" y="277" type="curve"/>
      <point x="214" y="254"/>
      <point x="224" y="277"/>
      <point x="214" y="254" type="curve"/>
      <point x="342" y="254"/>
      <point x="470" y="254"/>
      <point x="598" y="254" type="curve"/>
      <point x="590" y="277"/>
      <point x="598" y="254"/>
    </contour>
    <contour>
      <point x="709" y="0" type="curve"/>
      <point x="615" y="241"/>
      <point x="521" y="481"/>
      <point x="427" y="722" type="curve"/>
      <point x="405" y="722"/>
      <point x="427" y="722"/>
      <point x="405" y="722" type="curve"/>
      <point x="498" y="481"/>
      <point x="591" y="241"/>
      <point x="684" y="0" type="curve"/>
      <point x="709" y="0"/>
      <point x="684" y="0"/>
    </contour>
    <contour>
      <point x="114" y="0" type="curve"/>
      <point x="218" y="241"/>
      <point x="321" y="481"/>
      <point x="425" y="722" type="curve"/>
      <point x="403" y="722"/>
      <point x="425" y="722"/>
      <point x="403" y="722" type="curve"/>
      <point x="298" y="481"/>
      <point x="193" y="241"/>
      <point x="88" y="0" type="curve"/>
      <point x="114" y="0"/>
      <point x="88" y="0"/>
    </contour>
    <contour>
      <point x="369" y="841" type="curve"/>
      <point x="369" y="852"/>
      <point x="362" y="859"/>
      <point x="350" y="859" type="curve"/>
      <point x="339" y="859"/>
      <point x="333" y="852"/>
      <point x="333" y="841" type="curve"/>
      <point x="357" y="841"/>
      <point x="345" y="841"/>
      <point x="369" y="841" type="curve"/>
      <point x="369" y="830"/>
      <point x="362" y="824"/>
      <point x="350" y="824" type="curve"/>
      <point x="339" y="824"/>
      <point x="333" y="830"/>
      <point x="333" y="841" type="curve"/>
      <point x="357" y="841"/>
      <point x="345" y="841"/>
    </contour>
    <contour>
      <point x="495" y="841" type="curve"/>
      <point x="495" y="852"/>
      <point x="487" y="859"/>
      <point x="476" y="859" type="curve"/>
      <point x="465" y="859"/>
      <point x="458" y="852"/>
      <point x="458" y="841" type="curve"/>
      <point x="482" y="841"/>
      <point x="471" y="841"/>
      <point x="495" y="841" type="curve"/>
      <point x="495" y="830"/>
      <point x="487" y="824"/>
      <point x="476" y="824" type="curve"/>
      <point x="465" y="824"/>
      <point x="458" y="830"/>
      <point x="458" y="841" type="curve"/>
      <point x="482" y="841"/>
      <point x="471" y="841"/>
    </contour>
  </outline>
</glyph>
<glyph name="Icircumflex" format="1">
  <advance width="375"/>
  <unicode hex="00CE"/>
  <outline>
    <contour>
      <point x="188" y="722" type="curve"/>
      <point x="137" y="722"/>
      <point x="96" y="722"/>
      <point x="45" y="722" type="curve"/>
      <point x="45" y="700"/>
      <point x="45" y="722"/>
      <point x="45" y="700" type="curve"/>
      <point x="197" y="700"/>
      <point x="36" y="700"/>
      <point x="188" y="700" type="curve"/>
      <point x="188" y="722"/>
      <point x="188" y="700"/>
    </contour>
    <contour>
      <point x="188" y="700" type="curve"/>
      <point x="340" y="700"/>
      <point x="178" y="700"/>
      <point x="330" y="700" type="curve"/>
      <point x="330" y="722"/>
      <point x="330" y="700"/>
      <point x="330" y="722" type="curve"/>
      <point x="279" y="722"/>
      <point x="238" y="722"/>
      <point x="188" y="722" type="curve"/>
      <point x="188" y="700"/>
      <point x="188" y="722"/>
    </contour>
    <contour>
      <point x="188" y="0" type="curve"/>
      <point x="238" y="0"/>
      <point x="279" y="0"/>
      <point x="330" y="0" type="curve"/>
      <point x="330" y="22"/>
      <point x="330" y="0"/>
      <point x="330" y="22" type="curve"/>
      <point x="178" y="22"/>
      <point x="340" y="22"/>
      <point x="188" y="22" type="curve"/>
      <point x="188" y="0"/>
      <point x="188" y="22"/>
    </contour>
    <contour>
      <point x="188" y="22" type="curve"/>
      <point x="36" y="22"/>
      <point x="197" y="22"/>
      <point x="45" y="22" type="curve"/>
      <point x="45" y="0"/>
      <point x="45" y="22"/>
      <point x="45" y="0" type="curve"/>
      <point x="96" y="0"/>
      <point x="137" y="0"/>
      <point x="188" y="0" type="curve"/>
      <point x="188" y="22"/>
      <point x="188" y="0"/>
    </contour>
    <contour>
      <point x="199" y="0" type="curve"/>
      <point x="199" y="241"/>
      <point x="199" y="481"/>
      <point x="199" y="722" type="curve"/>
      <point x="175" y="722"/>
      <point x="199" y="722"/>
      <point x="175" y="722" type="curve"/>
      <point x="175" y="481"/>
      <point x="175" y="241"/>
      <point x="175" y="0" type="curve"/>
      <point x="199" y="0"/>
      <point x="175" y="0"/>
    </contour>
    <contour>
      <point x="61" y="825" type="line"/>
      <point x="200" y="991" type="line"/>
      <point x="164" y="991" type="line"/>
      <point x="34" y="825" type="line"/>
    </contour>
    <contour>
      <point x="341" y="825" type="line"/>
      <point x="210" y="991" type="line"/>
      <point x="174" y="991" type="line"/>
      <point x="314" y="825" type="line"/>
    </contour>
  </outline>
</glyph>
<glyph name="Otilde" format="1">
  <advance width="766"/>
  <unicode hex="00D5"/>
  <outline>
    <contour>
      <point x="93" y="360" type="curve"/>
      <point x="93" y="560"/>
      <point x="189" y="705"/>
      <point x="381" y="705" type="curve"/>
      <point x="574" y="705"/>
      <point x="672" y="562"/>
      <point x="672" y="363" type="curve"/>
      <point x="672" y="164"/>
      <point x="577" y="18"/>
      <point x="384" y="18" type="curve"/>
      <point x="190" y="18"/>
      <point x="93" y="160"/>
      <point x="93" y="360" type="curve"/>
      <point x="69" y="360"/>
      <point x="93" y="360"/>
      <point x="69" y="360" type="curve"/>
      <point x="69" y="145"/>
      <point x="176" y="-5"/>
      <point x="383" y="-5" type="curve"/>
      <point x="590" y="-5"/>
      <point x="697" y="147"/>
      <point x="697" y="363" type="curve"/>
      <point x="697" y="577"/>
      <point x="590" y="727"/>
      <point x="383" y="727" type="curve"/>
      <point x="175" y="727"/>
      <point x="69" y="575"/>
      <point x="69" y="360" type="curve"/>
      <point x="93" y="360"/>
      <point x="69" y="360"/>
    </contour>
    <contour>
      <point x="557" y="948" type="curve"/>
      <point x="543" y="895"/>
      <point x="527" y="845"/>
      <point x="480" y="845" type="curve"/>
      <point x="440" y="845"/>
      <point x="416" y="864"/>
      <point x="388" y="894" type="curve"/>
      <point x="358" y="927"/>
      <point x="334" y="949"/>
      <point x="290" y="949" type="curve"/>
      <point x="224" y="949"/>
      <point x="198" y="899"/>
      <point x="184" y="830" type="curve"/>
      <point x="204" y="824"/>
      <point x="184" y="830"/>
      <point x="204" y="824" type="curve"/>
      <point x="217" y="883"/>
      <point x="237" y="928"/>
      <point x="290" y="928" type="curve"/>
      <point x="327" y="928"/>
      <point x="346" y="908"/>
      <point x="371" y="880" type="curve"/>
      <point x="403" y="846"/>
      <point x="431" y="824"/>
      <point x="478" y="824" type="curve"/>
      <point x="542" y="824"/>
      <point x="560" y="880"/>
      <point x="578" y="944" type="curve"/>
      <point x="557" y="948"/>
      <point x="578" y="944"/>
    </contour>
  </outline>
</glyph>
<glyph name="Udieresis" format="1">
  <advance width="859"/>
  <unicode hex="00DC"/>
  <outline>
    <contour>
      <point x="691" y="700" type="curve"/>
      <point x="837" y="700"/>
      <point x="687" y="700"/>
      <point x="833" y="700" type="curve"/>
      <point x="833" y="722"/>
      <point x="833" y="700"/>
      <point x="833" y="722" type="curve"/>
      <point x="785" y="722"/>
      <point x="739" y="722"/>
      <point x="691" y="722" type="curve"/>
      <point x="691" y="700"/>
      <point x="691" y="722"/>
    </contour>
    <contour>
      <point x="691" y="722" type="curve"/>
      <point x="642" y="722"/>
      <point x="597" y="722"/>
      <point x="549" y="722" type="curve"/>
      <point x="549" y="700"/>
      <point x="549" y="722"/>
      <point x="549" y="700" type="curve"/>
      <point x="695" y="700"/>
      <point x="545" y="700"/>
      <point x="691" y="700" type="curve"/>
      <point x="691" y="722"/>
      <point x="691" y="700"/>
    </contour>
    <contour>
      <point x="169" y="722" type="curve"/>
      <point x="120" y="722"/>
      <point x="75" y="722"/>
      <point x="27" y="722" type="curve"/>
      <point x="27" y="700"/>
      <point x="27" y="722"/>
      <point x="27" y="700" type="curve"/>
      <point x="173" y="700"/>
      <point x="22" y="700"/>
      <point x="169" y="700" type="curve"/>
      <point x="169" y="722"/>
      <point x="169" y="700"/>
    </contour>
    <contour>
      <point x="169" y="700" type="curve"/>
      <point x="315" y="700"/>
      <point x="165" y="700"/>
      <point x="311" y="700" type="curve"/>
      <point x="311" y="722"/>
      <point x="311" y="700"/>
      <point x="311" y="722" type="curve"/>
      <point x="262" y="722"/>
      <point x="217" y="722"/>
      <point x="169" y="722" type="curve"/>
      <point x="169" y="700"/>
      <point x="169" y="722"/>
    </contour>
    <contour>
      <point x="154" y="721" type="curve"/>
      <point x="154" y="555"/>
      <point x="154" y="437"/>
      <point x="154" y="271" type="curve"/>
      <point x="154" y="86"/>
      <point x="245" y="-5"/>
      <point x="431" y="-5" type="curve"/>
      <point x="613" y="-5"/>
      <point x="703" y="83"/>
      <point x="703" y="263" type="curve"/>
      <point x="703" y="432"/>
      <point x="703" y="552"/>
      <point x="703" y="721" type="curve"/>
      <point x="688" y="721"/>
      <point x="695" y="721"/>
      <point x="680" y="721" type="curve"/>
      <point x="680" y="550"/>
      <point x="680" y="430"/>
      <point x="680" y="259" type="curve"/>
      <point x="680" y="100"/>
      <point x="596" y="19"/>
      <point x="433" y="19" type="curve"/>
      <point x="260" y="19"/>
      <point x="177" y="103"/>
      <point x="177" y="275" type="curve"/>
      <point x="177" y="440"/>
      <point x="177" y="557"/>
      <point x="177" y="721" type="curve"/>
      <point x="162" y="721"/>
      <point x="169" y="721"/>
    </contour>
    <contour>
      <point x="389" y="841" type="curve"/>
      <point x="389" y="852"/>
      <point x="382" y="859"/>
      <point x="370" y="859" type="curve"/>
      <point x="359" y="859"/>
      <point x="353" y="852"/>
      <point x="353" y="841" type="curve"/>
      <point x="376" y="841"/>
      <point x="365" y="841"/>
      <point x="389" y="841" type="curve"/>
      <point x="389" y="830"/>
      <point x="382" y="824"/>
      <point x="370" y="824" type="curve"/>
      <point x="359" y="824"/>
      <point x="353" y="830"/>
      <point x="353" y="841" type="curve"/>
      <point x="376" y="841"/>
      <point x="365" y="841"/>
    </contour>
    <contour>
      <point x="514" y="841" type="curve"/>
      <point x="514" y="852"/>
      <point x="507" y="859"/>
      <point x="495" y="859" type="curve"/>
      <point x="484" y="859"/>
      <point x="478" y="852"/>
      <point x="478" y="841" type="curve"/>
      <point x="502" y="841"/>
      <point x="491" y="841"/>
      <point x="514" y="841" type="curve"/>
      <point x="514" y="830"/>
      <point x="507" y="824"/>
      <point x="495" y="824" type="curve"/>
      <point x="484" y="824"/>
      <point x="478" y="830"/>
      <point x="478" y="841" type="curve"/>
      <point x="502" y="841"/>
      <point x="491" y="841"/>
    </contour>
  </outline>
</glyph>
<glyph name="Thorn" format="1">
  <advance width="620"/>
  <unicode hex="00DE"/>
  <outline>
    <contour>
      <point x="174" y="722" type="curve"/>
      <point x="130" y="722"/>
      <point x="86" y="722"/>
      <point x="42" y="722" type="curve"/>
      <point x="42" y="700"/>
      <point x="42" y="722"/>
      <point x="42" y="700" type="curve"/>
      <point x="174" y="700"/>
      <point x="42" y="700"/>
      <point x="174" y="700" type="curve"/>
      <point x="174" y="722"/>
      <point x="174" y="700"/>
    </contour>
    <contour>
      <point x="174" y="22" type="curve"/>
      <point x="42" y="22"/>
      <point x="174" y="22"/>
      <point x="42" y="22" type="curve"/>
      <point x="42" y="0"/>
      <point x="42" y="22"/>
      <point x="42" y="0" type="curve"/>
      <point x="86" y="0"/>
      <point x="130" y="0"/>
      <point x="174" y="0" type="curve"/>
      <point x="174" y="22"/>
      <point x="174" y="0"/>
    </contour>
    <contour>
      <point x="174" y="0" type="curve"/>
      <point x="218" y="0"/>
      <point x="174" y="0"/>
      <point x="306" y="0" type="curve"/>
      <point x="306" y="22"/>
      <point x="306" y="0"/>
      <point x="306" y="22" type="curve"/>
      <point x="174" y="22"/>
      <point x="306" y="22"/>
      <point x="174" y="22" type="curve"/>
      <point x="174" y="0"/>
      <point x="174" y="22"/>
    </contour>
    <contour>
      <point x="172" y="222" type="curve"/>
      <point x="224" y="196"/>
      <point x="275" y="176"/>
      <point x="336" y="176" type="curve"/>
      <point x="473" y="179"/>
      <point x="564" y="253"/>
      <point x="564" y="390" type="curve"/>
      <point x="564" y="535"/>
      <point x="461" y="618"/>
      <point x="311" y="618" type="curve"/>
      <point x="266" y="618"/>
      <point x="222" y="618"/>
      <point x="177" y="618" type="curve"/>
      <point x="177" y="596"/>
      <point x="177" y="618"/>
      <point x="177" y="596" type="curve"/>
      <point x="221" y="596"/>
      <point x="264" y="596"/>
      <point x="308" y="596" type="curve"/>
      <point x="446" y="596"/>
      <point x="540" y="522"/>
      <point x="540" y="389" type="curve"/>
      <point x="540" y="269"/>
      <point x="459" y="199"/>
      <point x="338" y="199" type="curve"/>
      <point x="276" y="199"/>
      <point x="234" y="215"/>
      <point x="180" y="242" type="curve"/>
      <point x="172" y="222"/>
      <point x="180" y="242"/>
    </contour>
    <contour>
      <point x="185" y="0" type="curve"/>
      <point x="185" y="241"/>
      <point x="185" y="481"/>
      <point x="185" y="722" type="curve"/>
      <point x="161" y="722"/>
      <point x="185" y="722"/>
      <point x="161" y="722" type="curve"/>
      <point x="161" y="481"/>
      <point x="161" y="241"/>
      <point x="161" y="0" type="curve"/>
      <point x="185" y="0"/>
      <point x="161" y="0"/>
    </contour>
    <contour>
      <point x="174" y="700" type="curve"/>
      <point x="218" y="700"/>
      <point x="174" y="700"/>
      <point x="306" y="700" type="curve"/>
      <point x="306" y="722"/>
      <point x="306" y="700"/>
      <point x="306" y="722" type="curve"/>
      <point x="174" y="722"/>
      <point x="306" y="722"/>
      <point x="174" y="722" type="curve"/>
      <point x="174" y="700"/>
      <point x="174" y="722"/>
    </contour>
  </outline>
</glyph>
<glyph name="germandbls" format="1">
  <advance width="613"/>
  <unicode hex="00DF"/>
  <outline>
    <contour>
      <point x="149" y="22" type="curve"/>
      <point x="3" y="22"/>
      <point x="153" y="22"/>
      <point x="7" y="22" type="curve"/>
      <point x="7" y="0"/>
      <point x="7" y="22"/>
      <point x="7" y="0" type="curve"/>
      <point x="56" y="0"/>
      <point x="101" y="0"/>
      <point x="149" y="0" type="curve"/>
      <point x="149" y="22"/>
      <point x="149" y="0"/>
    </contour>
    <contour>
      <point x="149" y="0" type="curve"/>
      <point x="198" y="0"/>
      <point x="234" y="0"/>
      <point x="283" y="0" type="curve"/>
      <point x="283" y="22"/>
      <point x="283" y="0"/>
      <point x="283" y="22" type="curve"/>
      <point x="137" y="22"/>
      <point x="295" y="22"/>
      <point x="149" y="22" type="curve"/>
      <point x="149" y="0"/>
      <point x="149" y="22"/>
    </contour>
    <contour>
      <point x="160" y="0" type="curve"/>
      <point x="160" y="207"/>
      <point x="160" y="412"/>
      <point x="160" y="619" type="curve"/>
      <point x="137" y="619"/>
      <point x="160" y="619"/>
      <point x="137" y="619" type="curve"/>
      <point x="137" y="412"/>
      <point x="137" y="207"/>
      <point x="137" y="0" type="curve"/>
      <point x="160" y="0"/>
      <point x="137" y="0"/>
    </contour>
    <contour>
      <point x="160" y="619" type="curve"/>
      <point x="160" y="721"/>
      <point x="224" y="783"/>
      <point x="325" y="783" type="curve"/>
      <point x="430" y="783"/>
      <point x="503" y="730"/>
      <point x="503" y="627" type="curve"/>
      <point x="503" y="526"/>
      <point x="421" y="471"/>
      <point x="310" y="471" type="curve"/>
      <point x="310" y="454"/>
      <point x="310" y="471"/>
      <point x="310" y="454" type="curve"/>
      <point x="435" y="454"/>
      <point x="526" y="510"/>
      <point x="526" y="628" type="curve"/>
      <point x="526" y="743"/>
      <point x="446" y="804"/>
      <point x="327" y="804" type="curve"/>
      <point x="210" y="804"/>
      <point x="137" y="735"/>
      <point x="137" y="619" type="curve"/>
      <point x="160" y="619"/>
      <point x="137" y="619"/>
    </contour>
    <contour>
      <point x="411" y="87" type="curve"/>
      <point x="502" y="109"/>
      <point x="560" y="167"/>
      <point x="560" y="273" type="curve"/>
      <point x="560" y="405"/>
      <point x="462" y="471"/>
      <point x="310" y="471" type="curve"/>
      <point x="310" y="454"/>
      <point x="310" y="471"/>
      <point x="310" y="454" type="curve"/>
      <point x="429" y="454"/>
      <point x="538" y="398"/>
      <point x="538" y="272" type="curve"/>
      <point x="538" y="180"/>
      <point x="480" y="130"/>
      <point x="404" y="108" type="curve"/>
      <point x="411" y="87"/>
      <point x="404" y="108"/>
    </contour>
  </outline>
</glyph>
<glyph name="eth" format="1">
  <advance width="585"/>
  <unicode hex="00F0"/>
  <outline>
    <contour>
      <point x="140" y="527" type="curve"/>
      <point x="217" y="605"/>
      <point x="295" y="683"/>
      <point x="373" y="761" type="curve"/>
      <point x="390" y="744"/>
      <point x="373" y="761"/>
      <point x="390" y="744" type="curve"/>
      <point x="312" y="666"/>
      <point x="234" y="589"/>
      <point x="156" y="511" type="curve"/>
      <point x="140" y="527"/>
      <point x="156" y="511"/>
    </contour>
    <contour>
      <point x="499" y="224" type="curve"/>
      <point x="455" y="317"/>
      <point x="391" y="379"/>
      <point x="281" y="379" type="curve"/>
      <point x="162" y="379"/>
      <point x="90" y="313"/>
      <point x="90" y="195" type="curve"/>
      <point x="90" y="81"/>
      <point x="161" y="12"/>
      <point x="276" y="12" type="curve"/>
      <point x="414" y="12"/>
      <point x="494" y="98"/>
      <point x="494" y="235" type="curve"/>
      <point x="494" y="499"/>
      <point x="321" y="643"/>
      <point x="57" y="707" type="curve"/>
      <point x="63" y="730"/>
      <point x="57" y="707"/>
      <point x="63" y="730" type="curve"/>
      <point x="340" y="665"/>
      <point x="518" y="512"/>
      <point x="518" y="234" type="curve"/>
      <point x="518" y="81"/>
      <point x="430" y="-12"/>
      <point x="277" y="-12" type="curve"/>
      <point x="145" y="-12"/>
      <point x="66" y="66"/>
      <point x="66" y="196" type="curve"/>
      <point x="66" y="327"/>
      <point x="146" y="402"/>
      <point x="279" y="402" type="curve"/>
      <point x="398" y="402"/>
      <point x="473" y="341"/>
      <point x="513" y="232" type="curve"/>
      <point x="499" y="224"/>
      <point x="513" y="232"/>
    </contour>
  </outline>
</glyph>
<glyph name="otilde" format="1">
  <advance width="606"/>
  <unicode hex="00F5"/>
  <outline>
    <contour>
      <point x="90" y="268" type="curve"/>
      <point x="90" y="419"/>
      <point x="160" y="517"/>
      <point x="299" y="517" type="curve"/>
      <point x="444" y="517"/>
      <point x="515" y="417"/>
      <point x="515" y="266" type="curve"/>
      <point x="515" y="116"/>
      <point x="444" y="17"/>
      <point x="303" y="17" type="curve"/>
      <point x="157" y="17"/>
      <point x="90" y="118"/>
      <point x="90" y="268" type="curve"/>
      <point x="66" y="268"/>
      <point x="90" y="268"/>
      <point x="66" y="268" type="curve"/>
      <point x="66" y="104"/>
      <point x="144" y="-5"/>
      <point x="302" y="-5" type="curve"/>
      <point x="461" y="-5"/>
      <point x="540" y="102"/>
      <point x="540" y="266" type="curve"/>
      <point x="540" y="430"/>
      <point x="460" y="538"/>
      <point x="300" y="538" type="curve"/>
      <point x="144" y="538"/>
      <point x="66" y="430"/>
      <point x="66" y="268" type="curve"/>
      <point x="90" y="268"/>
      <point x="66" y="268"/>
    </contour>
    <contour>
      <point x="474" y="794" type="curve"/>
      <point x="460" y="741"/>
      <point x="444" y="691"/>
      <point x="397" y="691" type="curve"/>
      <point x="357" y="691"/>
      <point x="333" y="710"/>
      <point x="305" y="740" type="curve"/>
      <point x="275" y="773"/>
      <point x="251" y="795"/>
      <point x="207" y="795" type="curve"/>
      <point x="141" y="795"/>
      <point x="115" y="745"/>
      <point x="101" y="676" type="curve"/>
      <point x="121" y="670"/>
      <point x="101" y="676"/>
      <point x="121" y="670" type="curve"/>
      <point x="134" y="729"/>
      <point x="154" y="774"/>
      <point x="207" y="774" type="curve"/>
      <point x="244" y="774"/>
      <point x="263" y="754"/>
      <point x="288" y="726" type="curve"/>
      <point x="320" y="692"/>
      <point x="348" y="670"/>
      <point x="395" y="670" type="curve"/>
      <point x="459" y="670"/>
      <point x="477" y="726"/>
      <point x="495" y="790" type="curve"/>
      <point x="474" y="794"/>
      <point x="495" y="790"/>
    </contour>
  </outline>
</glyph>
<glyph name="yacute" format="1">
  <advance width="780"/>
  <unicode hex="00FD"/>
  <outline>
    <contour>
      <point x="240" y="-278" type="curve"/>
      <point x="96" y="-278"/>
      <point x="244" y="-278"/>
      <point x="100" y="-278" type="curve"/>
      <point x="100" y="-300"/>
      <point x="100" y="-278"/>
      <point x="100" y="-300" type="curve"/>
      <point x="149" y="-300"/>
      <point x="192" y="-300"/>
      <point x="240" y="-300" type="curve"/>
      <point x="240" y="-278"/>
      <point x="240" y="-300"/>
    </contour>
    <contour>
      <point x="147" y="533" type="curve"/>
      <point x="99" y="533"/>
      <point x="54" y="533"/>
      <point x="5" y="533" type="curve"/>
      <point x="5" y="511"/>
      <point x="5" y="533"/>
      <point x="5" y="511" type="curve"/>
      <point x="151" y="511"/>
      <point x="1" y="511"/>
      <point x="147" y="511" type="curve"/>
      <point x="147" y="533"/>
      <point x="147" y="511"/>
    </contour>
    <contour>
      <point x="147" y="511" type="curve"/>
      <point x="289" y="511"/>
      <point x="143" y="511"/>
      <point x="285" y="511" type="curve"/>
      <point x="285" y="533"/>
      <point x="285" y="511"/>
      <point x="285" y="533" type="curve"/>
      <point x="238" y="533"/>
      <point x="195" y="533"/>
      <point x="147" y="533" type="curve"/>
      <point x="147" y="511"/>
      <point x="147" y="533"/>
    </contour>
    <contour>
      <point x="632" y="533" type="curve"/>
      <point x="587" y="533"/>
      <point x="544" y="533"/>
      <point x="499" y="533" type="curve"/>
      <point x="499" y="511"/>
      <point x="499" y="533"/>
      <point x="499" y="511" type="curve"/>
      <point x="636" y="511"/>
      <point x="495" y="511"/>
      <point x="632" y="511" type="curve"/>
      <point x="632" y="533"/>
      <point x="632" y="511"/>
    </contour>
    <contour>
      <point x="632" y="511" type="curve"/>
      <point x="777" y="511"/>
      <point x="628" y="511"/>
      <point x="773" y="511" type="curve"/>
      <point x="773" y="533"/>
      <point x="773" y="511"/>
      <point x="773" y="533" type="curve"/>
      <point x="725" y="533"/>
      <point x="680" y="533"/>
      <point x="632" y="533" type="curve"/>
      <point x="632" y="511"/>
      <point x="632" y="533"/>
    </contour>
    <contour>
      <point x="394" y="8" type="curve"/>
      <point x="338" y="101"/>
      <point x="205" y="440"/>
      <point x="148" y="533" type="curve"/>
      <point x="121" y="533"/>
      <point x="148" y="533"/>
      <point x="121" y="533" type="curve"/>
      <point x="178" y="440"/>
      <point x="313" y="94"/>
      <point x="371" y="2" type="curve"/>
      <point x="394" y="2"/>
      <point x="371" y="8"/>
    </contour>
    <contour>
      <point x="243" y="-300" type="curve"/>
      <point x="340" y="-153"/>
      <point x="561" y="386"/>
      <point x="658" y="533" type="curve"/>
      <point x="631" y="533"/>
      <point x="658" y="533"/>
      <point x="631" y="533" type="curve"/>
      <point x="534" y="386"/>
      <point x="313" y="-153"/>
      <point x="216" y="-300" type="curve"/>
      <point x="243" y="-300"/>
      <point x="216" y="-300"/>
    </contour>
    <contour>
      <point x="404" y="671" type="line"/>
      <point x="543" y="837" type="line"/>
      <point x="508" y="837" type="line"/>
      <point x="377" y="671" type="line"/>
    </contour>
  </outline>
</glyph>
<glyph name="thorn" format="1">
  <advance width="623"/>
  <unicode hex="00FE"/>
  <outline>
    <contour>
      <point x="107" y="-278" type="curve"/>
      <point x="-39" y="-278"/>
      <point x="111" y="-278"/>
      <point x="-35" y="-278" type="curve"/>
      <point x="-35" y="-299"/>
      <point x="-35" y="-278"/>
      <point x="-35" y="-299" type="curve"/>
      <point x="14" y="-299"/>
      <point x="59" y="-299"/>
      <point x="107" y="-299" type="curve"/>
      <point x="107" y="-278"/>
      <point x="107" y="-299"/>
    </contour>
    <contour>
      <point x="107" y="-300" type="curve"/>
      <point x="153" y="-300"/>
      <point x="194" y="-300"/>
      <point x="239" y="-300" type="curve"/>
      <point x="239" y="-278"/>
      <point x="239" y="-300"/>
      <point x="239" y="-278" type="curve"/>
      <point x="103" y="-279"/>
      <point x="243" y="-278"/>
      <point x="107" y="-279" type="curve"/>
      <point x="107" y="-300"/>
      <point x="107" y="-279"/>
    </contour>
    <contour>
      <point x="109" y="800" type="curve"/>
      <point x="60" y="800"/>
      <point x="15" y="800"/>
      <point x="-34" y="800" type="curve"/>
      <point x="-34" y="778"/>
      <point x="-34" y="800"/>
      <point x="-34" y="778" type="curve"/>
      <point x="113" y="778"/>
      <point x="-38" y="778"/>
      <point x="109" y="778" type="curve"/>
      <point x="109" y="799"/>
      <point x="109" y="778"/>
    </contour>
    <contour>
      <point x="113" y="423" type="curve"/>
      <point x="154" y="470"/>
      <point x="236" y="516"/>
      <point x="330" y="516" type="curve"/>
      <point x="463" y="516"/>
      <point x="534" y="416"/>
      <point x="534" y="276" type="curve"/>
      <point x="537" y="127"/>
      <point x="465" y="16"/>
      <point x="329" y="17" type="curve"/>
      <point x="239" y="17"/>
      <point x="180" y="59"/>
      <point x="115" y="122" type="curve"/>
      <point x="100" y="111"/>
      <point x="115" y="122"/>
      <point x="100" y="111" type="curve"/>
      <point x="167" y="40"/>
      <point x="231" y="-5"/>
      <point x="329" y="-5" type="curve"/>
      <point x="481" y="-5"/>
      <point x="558" y="116"/>
      <point x="557" y="277" type="curve"/>
      <point x="557" y="429"/>
      <point x="476" y="538"/>
      <point x="331" y="538" type="curve"/>
      <point x="231" y="538"/>
      <point x="146" y="490"/>
      <point x="101" y="437" type="curve"/>
      <point x="113" y="423"/>
      <point x="101" y="437"/>
    </contour>
    <contour>
      <point x="120" y="-300" type="curve"/>
      <point x="120" y="-22"/>
      <point x="120" y="522"/>
      <point x="120" y="800" type="curve"/>
      <point x="96" y="800"/>
      <point x="120" y="800"/>
      <point x="96" y="800" type="curve"/>
      <point x="96" y="522"/>
      <point x="96" y="-22"/>
      <point x="96" y="-300" type="curve"/>
      <point x="120" y="-300"/>
      <point x="96" y="-300"/>
    </contour>
  </outline>
</glyph>
<glyph name="Abreve" format="1">
  <advance width="836"/>
  <unicode hex="0102"/>
  <outline>
    <contour>
      <point x="113" y="22" type="curve"/>
      <point x="-33" y="22"/>
      <point x="123" y="22"/>
      <point x="-24" y="22" type="curve"/>
      <point x="-24" y="0"/>
      <point x="-24" y="22"/>
      <point x="-24" y="0" type="curve"/>
      <point x="25" y="0"/>
      <point x="65" y="0"/>
      <point x="113" y="0" type="curve"/>
      <point x="113" y="22"/>
      <point x="113" y="0"/>
    </contour>
    <contour>
      <point x="113" y="0" type="curve"/>
      <point x="164" y="0"/>
      <point x="104" y="0"/>
      <point x="255" y="0" type="curve"/>
      <point x="255" y="22"/>
      <point x="255" y="0"/>
      <point x="255" y="22" type="curve"/>
      <point x="104" y="22"/>
      <point x="265" y="22"/>
      <point x="113" y="22" type="curve"/>
      <point x="113" y="0"/>
      <point x="113" y="22"/>
    </contour>
    <contour>
      <point x="685" y="0" type="curve"/>
      <point x="733" y="0"/>
      <point x="773" y="0"/>
      <point x="821" y="0" type="curve"/>
      <point x="821" y="22"/>
      <point x="821" y="0"/>
      <point x="821" y="22" type="curve"/>
      <point x="675" y="22"/>
      <point x="831" y="22"/>
      <point x="685" y="22" type="curve"/>
      <point x="685" y="0"/>
      <point x="685" y="22"/>
    </contour>
    <contour>
      <point x="685" y="22" type="curve"/>
      <point x="533" y="22"/>
      <point x="694" y="22"/>
      <point x="542" y="22" type="curve"/>
      <point x="542" y="0"/>
      <point x="542" y="22"/>
      <point x="542" y="0" type="curve"/>
      <point x="593" y="0"/>
      <point x="634" y="0"/>
      <point x="685" y="0" type="curve"/>
      <point x="685" y="22"/>
      <point x="685" y="0"/>
    </contour>
    <contour>
      <point x="590" y="277" type="curve"/>
      <point x="468" y="277"/>
      <point x="346" y="277"/>
      <point x="224" y="277" type="curve"/>
      <point x="214" y="254"/>
      <point x="224" y="277"/>
      <point x="214" y="254" type="curve"/>
      <point x="342" y="254"/>
      <point x="470" y="254"/>
      <point x="598" y="254" type="curve"/>
      <point x="590" y="277"/>
      <point x="598" y="254"/>
    </contour>
    <contour>
      <point x="709" y="0" type="curve"/>
      <point x="615" y="241"/>
      <point x="521" y="481"/>
      <point x="427" y="722" type="curve"/>
      <point x="405" y="722"/>
      <point x="427" y="722"/>
      <point x="405" y="722" type="curve"/>
      <point x="498" y="481"/>
      <point x="591" y="241"/>
      <point x="684" y="0" type="curve"/>
      <point x="709" y="0"/>
      <point x="684" y="0"/>
    </contour>
    <contour>
      <point x="114" y="0" type="curve"/>
      <point x="218" y="241"/>
      <point x="321" y="481"/>
      <point x="425" y="722" type="curve"/>
      <point x="403" y="722"/>
      <point x="425" y="722"/>
      <point x="403" y="722" type="curve"/>
      <point x="298" y="481"/>
      <point x="193" y="241"/>
      <point x="88" y="0" type="curve"/>
      <point x="114" y="0"/>
      <point x="88" y="0"/>
    </contour>
    <contour>
      <point x="537" y="948" type="curve"/>
      <point x="537" y="880"/>
      <point x="489" y="846"/>
      <point x="416" y="846" type="curve"/>
      <point x="347" y="846"/>
      <point x="302" y="882"/>
      <point x="302" y="949" type="curve"/>
      <point x="279" y="949"/>
      <point x="302" y="949"/>
      <point x="279" y="949" type="curve"/>
      <point x="279" y="868"/>
      <point x="331" y="825"/>
      <point x="414" y="825" type="curve"/>
      <point x="503" y="825"/>
      <point x="560" y="865"/>
      <point x="560" y="948" type="curve"/>
      <point x="537" y="948"/>
      <point x="560" y="948"/>
    </contour>
  </outline>
</glyph>
<glyph name="Dcaron" format="1">
  <advance width="786"/>
  <unicode hex="010E"/>
  <outline>
    <contour>
      <point x="184" y="22" type="curve"/>
      <point x="33" y="22"/>
      <point x="194" y="22"/>
      <point x="42" y="22" type="curve"/>
      <point x="42" y="0"/>
      <point x="42" y="22"/>
      <point x="42" y="0" type="curve"/>
      <point x="92" y="0"/>
      <point x="134" y="0"/>
      <point x="184" y="0" type="curve"/>
      <point x="184" y="22"/>
      <point x="184" y="0"/>
    </contour>
    <contour>
      <point x="184" y="722" type="curve"/>
      <point x="134" y="722"/>
      <point x="92" y="722"/>
      <point x="42" y="722" type="curve"/>
      <point x="42" y="700"/>
      <point x="42" y="722"/>
      <point x="42" y="700" type="curve"/>
      <point x="194" y="700"/>
      <point x="33" y="700"/>
      <point x="184" y="700" type="curve"/>
      <point x="184" y="722"/>
      <point x="184" y="700"/>
    </contour>
    <contour>
      <point x="170" y="722" type="curve"/>
      <point x="170" y="481"/>
      <point x="170" y="241"/>
      <point x="170" y="0" type="curve"/>
      <point x="195" y="0"/>
      <point x="170" y="0"/>
      <point x="195" y="0" type="curve"/>
      <point x="195" y="241"/>
      <point x="195" y="481"/>
      <point x="195" y="722" type="curve"/>
      <point x="170" y="722"/>
      <point x="195" y="722"/>
    </contour>
    <contour>
      <point x="184" y="0" type="curve"/>
      <point x="253" y="0"/>
      <point x="314" y="0"/>
      <point x="383" y="0" type="curve"/>
      <point x="606" y="0"/>
      <point x="722" y="128"/>
      <point x="722" y="353" type="curve"/>
      <point x="722" y="588"/>
      <point x="602" y="722"/>
      <point x="370" y="722" type="curve"/>
      <point x="305" y="722"/>
      <point x="248" y="722"/>
      <point x="184" y="722" type="curve"/>
      <point x="184" y="707"/>
      <point x="184" y="715"/>
      <point x="184" y="700" type="curve"/>
      <point x="248" y="700"/>
      <point x="305" y="700"/>
      <point x="368" y="700" type="curve"/>
      <point x="587" y="700"/>
      <point x="698" y="573"/>
      <point x="698" y="352" type="curve"/>
      <point x="698" y="143"/>
      <point x="593" y="22"/>
      <point x="385" y="22" type="curve"/>
      <point x="316" y="22"/>
      <point x="254" y="22"/>
      <point x="184" y="22" type="curve"/>
      <point x="184" y="7"/>
      <point x="184" y="15"/>
    </contour>
    <contour>
      <point x="476" y="991" type="line"/>
      <point x="337" y="825" type="line"/>
      <point x="373" y="825" type="line"/>
      <point x="504" y="991" type="line"/>
    </contour>
    <contour>
      <point x="198" y="991" type="line"/>
      <point x="328" y="825" type="line"/>
      <point x="364" y="825" type="line"/>
      <point x="225" y="991" type="line"/>
    </contour>
  </outline>
</glyph>
<glyph name="dcaron" format="1">
  <advance width="667"/>
  <unicode hex="010F"/>
  <outline>
    <contour>
      <point x="518" y="800" type="curve"/>
      <point x="468" y="800"/>
      <point x="427" y="800"/>
      <point x="376" y="800" type="curve"/>
      <point x="376" y="778"/>
      <point x="376" y="800"/>
      <point x="376" y="778" type="curve"/>
      <point x="528" y="778"/>
      <point x="367" y="778"/>
      <point x="518" y="778" type="curve"/>
      <point x="518" y="800"/>
      <point x="518" y="778"/>
    </contour>
    <contour>
      <point x="520" y="0" type="curve"/>
      <point x="570" y="0"/>
      <point x="611" y="0"/>
      <point x="662" y="0" type="curve"/>
      <point x="662" y="22"/>
      <point x="662" y="0"/>
      <point x="662" y="22" type="curve"/>
      <point x="511" y="22"/>
      <point x="672" y="22"/>
      <point x="520" y="22" type="curve"/>
      <point x="520" y="0"/>
      <point x="520" y="22"/>
    </contour>
    <contour>
      <point x="526" y="443" type="curve"/>
      <point x="475" y="503"/>
      <point x="405" y="538"/>
      <point x="317" y="538" type="curve"/>
      <point x="158" y="538"/>
      <point x="63" y="426"/>
      <point x="63" y="264" type="curve"/>
      <point x="63" y="103"/>
      <point x="161" y="-5"/>
      <point x="320" y="-5" type="curve"/>
      <point x="413" y="-5"/>
      <point x="476" y="41"/>
      <point x="526" y="124" type="curve"/>
      <point x="512" y="139"/>
      <point x="526" y="124"/>
      <point x="512" y="139" type="curve"/>
      <point x="462" y="61"/>
      <point x="404" y="17"/>
      <point x="319" y="17" type="curve"/>
      <point x="175" y="17"/>
      <point x="87" y="117"/>
      <point x="87" y="265" type="curve"/>
      <point x="87" y="414"/>
      <point x="174" y="516"/>
      <point x="318" y="516" type="curve"/>
      <point x="396" y="516"/>
      <point x="465" y="484"/>
      <point x="512" y="427" type="curve"/>
      <point x="526" y="443"/>
      <point x="512" y="427"/>
    </contour>
    <contour>
      <point x="532" y="0" type="curve"/>
      <point x="532" y="267"/>
      <point x="532" y="533"/>
      <point x="532" y="800" type="curve"/>
      <point x="506" y="800"/>
      <point x="532" y="800"/>
      <point x="506" y="800" type="curve"/>
      <point x="506" y="533"/>
      <point x="506" y="267"/>
      <point x="506" y="0" type="curve"/>
      <point x="532" y="0"/>
      <point x="506" y="0"/>
    </contour>
    <contour>
      <point x="645" y="659" type="line"/>
      <point x="673" y="684"/>
      <point x="697" y="715"/>
      <point x="697" y="766" type="curve"/>
      <point x="697" y="787"/>
      <point x="694" y="804"/>
      <point x="675" y="804" type="curve"/>
      <point x="662" y="804"/>
      <point x="655" y="798"/>
      <point x="655" y="786" type="curve"/>
      <point x="655" y="776"/>
      <point x="659" y="770"/>
      <point x="670" y="765" type="curve"/>
      <point x="670" y="742"/>
      <point x="658" y="702"/>
      <point x="629" y="677" type="curve"/>
    </contour>
  </outline>
</glyph>
<glyph name="Edotaccent" format="1">
  <advance width="680"/>
  <unicode hex="0116"/>
  <outline>
    <contour>
      <point x="630" y="11" type="curve"/>
      <point x="630" y="131"/>
      <point x="630" y="6"/>
      <point x="630" y="126" type="curve"/>
      <point x="609" y="126"/>
      <point x="630" y="126"/>
      <point x="609" y="126" type="curve"/>
      <point x="609" y="6"/>
      <point x="609" y="131"/>
      <point x="609" y="11" type="curve"/>
      <point x="630" y="11"/>
      <point x="609" y="11"/>
    </contour>
    <contour>
      <point x="573" y="711" type="curve"/>
      <point x="573" y="591"/>
      <point x="573" y="716"/>
      <point x="573" y="596" type="curve"/>
      <point x="595" y="596"/>
      <point x="573" y="596"/>
      <point x="595" y="596" type="curve"/>
      <point x="595" y="716"/>
      <point x="595" y="591"/>
      <point x="595" y="711" type="curve"/>
      <point x="573" y="711"/>
      <point x="595" y="711"/>
    </contour>
    <contour>
      <point x="183" y="22" type="curve"/>
      <point x="32" y="22"/>
      <point x="193" y="22"/>
      <point x="41" y="22" type="curve"/>
      <point x="41" y="0"/>
      <point x="41" y="22"/>
      <point x="41" y="0" type="curve"/>
      <point x="91" y="0"/>
      <point x="132" y="0"/>
      <point x="183" y="0" type="curve"/>
      <point x="183" y="22"/>
      <point x="183" y="0"/>
    </contour>
    <contour>
      <point x="183" y="722" type="curve"/>
      <point x="132" y="722"/>
      <point x="91" y="722"/>
      <point x="41" y="722" type="curve"/>
      <point x="41" y="700"/>
      <point x="41" y="722"/>
      <point x="41" y="700" type="curve"/>
      <point x="193" y="700"/>
      <point x="32" y="700"/>
      <point x="183" y="700" type="curve"/>
      <point x="183" y="722"/>
      <point x="183" y="700"/>
    </contour>
    <contour>
      <point x="186" y="363" type="curve"/>
      <point x="300" y="363"/>
      <point x="415" y="363"/>
      <point x="529" y="363" type="curve"/>
      <point x="529" y="385"/>
      <point x="529" y="363"/>
      <point x="529" y="385" type="curve"/>
      <point x="415" y="385"/>
      <point x="300" y="385"/>
      <point x="186" y="385" type="curve"/>
      <point x="186" y="363"/>
      <point x="186" y="385"/>
    </contour>
    <contour>
      <point x="171" y="700" type="curve"/>
      <point x="312" y="700"/>
      <point x="453" y="700"/>
      <point x="595" y="700" type="curve"/>
      <point x="595" y="722"/>
      <point x="595" y="700"/>
      <point x="595" y="722" type="curve"/>
      <point x="453" y="722"/>
      <point x="312" y="722"/>
      <point x="171" y="722" type="curve"/>
      <point x="171" y="700"/>
      <point x="171" y="722"/>
    </contour>
    <contour>
      <point x="194" y="0" type="curve"/>
      <point x="194" y="722" type="line"/>
      <point x="170" y="722"/>
      <point x="194" y="722"/>
      <point x="170" y="722" type="curve"/>
      <point x="170" y="481"/>
      <point x="170" y="241"/>
      <point x="170" y="0" type="curve"/>
      <point x="194" y="0"/>
      <point x="170" y="0"/>
    </contour>
    <contour>
      <point x="171" y="0" type="curve"/>
      <point x="324" y="0"/>
      <point x="477" y="0"/>
      <point x="630" y="0" type="curve"/>
      <point x="630" y="22"/>
      <point x="630" y="0"/>
      <point x="630" y="22" type="curve"/>
      <point x="477" y="22"/>
      <point x="324" y="22"/>
      <point x="171" y="22" type="curve"/>
      <point x="171" y="0"/>
      <point x="171" y="22"/>
    </contour>
    <contour>
      <point x="371" y="841" type="curve"/>
      <point x="371" y="852"/>
      <point x="363" y="859"/>
      <point x="352" y="859" type="curve"/>
      <point x="341" y="859"/>
      <point x="334" y="852"/>
      <point x="334" y="841" type="curve"/>
      <point x="358" y="841"/>
      <point x="347" y="841"/>
      <point x="371" y="841" type="curve"/>
      <point x="371" y="830"/>
      <point x="363" y="824"/>
      <point x="352" y="824" type="curve"/>
      <point x="341" y="824"/>
      <point x="334" y="830"/>
      <point x="334" y="841" type="curve"/>
      <point x="358" y="841"/>
      <point x="347" y="841"/>
    </contour>
  </outline>
</glyph>
<glyph name="Eogonek" format="1">
  <advance width="696"/>
  <unicode hex="0118"/>
  <outline>
    <contour>
      <point x="630" y="11" type="curve"/>
      <point x="630" y="131"/>
      <point x="630" y="6"/>
      <point x="630" y="126" type="curve"/>
      <point x="609" y="126"/>
      <point x="630" y="126"/>
      <point x="609" y="126" type="curve"/>
      <point x="609" y="6"/>
      <point x="609" y="131"/>
      <point x="609" y="11" type="curve"/>
      <point x="630" y="11"/>
      <point x="609" y="11"/>
    </contour>
    <contour>
      <point x="573" y="711" type="curve"/>
      <point x="573" y="591"/>
      <point x="573" y="716"/>
      <point x="573" y="596" type="curve"/>
      <point x="595" y="596"/>
      <point x="573" y="596"/>
      <point x="595" y="596" type="curve"/>
      <point x="595" y="716"/>
      <point x="595" y="591"/>
      <point x="595" y="711" type="curve"/>
      <point x="573" y="711"/>
      <point x="595" y="711"/>
    </contour>
    <contour>
      <point x="183" y="22" type="curve"/>
      <point x="32" y="22"/>
      <point x="193" y="22"/>
      <point x="41" y="22" type="curve"/>
      <point x="41" y="0"/>
      <point x="41" y="22"/>
      <point x="41" y="0" type="curve"/>
      <point x="91" y="0"/>
      <point x="132" y="0"/>
      <point x="183" y="0" type="curve"/>
      <point x="183" y="22"/>
      <point x="183" y="0"/>
    </contour>
    <contour>
      <point x="183" y="722" type="curve"/>
      <point x="132" y="722"/>
      <point x="91" y="722"/>
      <point x="41" y="722" type="curve"/>
      <point x="41" y="700"/>
      <point x="41" y="722"/>
      <point x="41" y="700" type="curve"/>
      <point x="193" y="700"/>
      <point x="32" y="700"/>
      <point x="183" y="700" type="curve"/>
      <point x="183" y="722"/>
      <point x="183" y="700"/>
    </contour>
    <contour>
      <point x="186" y="363" type="curve"/>
      <point x="300" y="363"/>
      <point x="415" y="363"/>
      <point x="529" y="363" type="curve"/>
      <point x="529" y="385"/>
      <point x="529" y="363"/>
      <point x="529" y="385" type="curve"/>
      <point x="415" y="385"/>
      <point x="300" y="385"/>
      <point x="186" y="385" type="curve"/>
      <point x="186" y="363"/>
      <point x="186" y="385"/>
    </contour>
    <contour>
      <point x="171" y="700" type="curve"/>
      <point x="312" y="700"/>
      <point x="453" y="700"/>
      <point x="595" y="700" type="curve"/>
      <point x="595" y="722"/>
      <point x="595" y="700"/>
      <point x="595" y="722" type="curve"/>
      <point x="453" y="722"/>
      <point x="312" y="722"/>
      <point x="171" y="722" type="curve"/>
      <point x="171" y="700"/>
      <point x="171" y="722"/>
    </contour>
    <contour>
      <point x="194" y="0" type="curve"/>
      <point x="194" y="722" type="line"/>
      <point x="170" y="722"/>
      <point x="194" y="722"/>
      <point x="170" y="722" type="curve"/>
      <point x="170" y="481"/>
      <point x="170" y="241"/>
      <point x="170" y="0" type="curve"/>
      <point x="194" y="0"/>
      <point x="170" y="0"/>
    </contour>
    <contour>
      <point x="171" y="0" type="curve"/>
      <point x="324" y="0"/>
      <point x="477" y="0"/>
      <point x="630" y="0" type="curve"/>
      <point x="630" y="22"/>
      <point x="630" y="0"/>
      <point x="630" y="22" type="curve"/>
      <point x="477" y="22"/>
      <point x="324" y="22"/>
      <point x="171" y="22" type="curve"/>
      <point x="171" y="0"/>
      <point x="171" y="22"/>
    </contour>
    <contour>
      <point x="615" y="18" type="curve"/>
      <point x="553" y="-7"/>
      <point x="502" y="-32"/>
      <point x="502" y="-96" type="curve"/>
      <point x="502" y="-153"/>
      <point x="539" y="-191"/>
      <point x="596" y="-191" type="curve"/>
      <point x="629" y="-191"/>
      <point x="651" y="-178"/>
      <point x="678" y="-161" type="curve"/>
      <point x="671" y="-150"/>
      <point x="674" y="-157"/>
      <point x="667" y="-146" type="curve"/>
      <point x="643" y="-160"/>
      <point x="625" y="-169"/>
      <point x="598" y="-169" type="curve"/>
      <point x="553" y="-169"/>
      <point x="525" y="-141"/>
      <point x="525" y="-96" type="curve"/>
      <point x="525" y="-40"/>
      <point x="571" y="-21"/>
      <point x="624" y="4" type="curve"/>
      <point x="618" y="13"/>
      <point x="621" y="8"/>
    </contour>
  </outline>
</glyph>
<glyph name="Gbreve" format="1">
  <advance width="788"/>
  <unicode hex="011E"/>
  <outline>
    <contour>
      <point x="677" y="642" type="curve"/>
      <point x="677" y="522"/>
      <point x="677" y="647"/>
      <point x="677" y="527" type="curve"/>
      <point x="698" y="527"/>
      <point x="677" y="527"/>
      <point x="698" y="527" type="curve"/>
      <point x="698" y="647"/>
      <point x="698" y="522"/>
      <point x="698" y="642" type="curve"/>
      <point x="677" y="642"/>
      <point x="698" y="642"/>
    </contour>
    <contour>
      <point x="707" y="319" type="curve"/>
      <point x="631" y="319"/>
      <point x="554" y="319"/>
      <point x="478" y="319" type="curve"/>
      <point x="478" y="297"/>
      <point x="478" y="319"/>
      <point x="478" y="297" type="curve"/>
      <point x="554" y="297"/>
      <point x="631" y="297"/>
      <point x="707" y="297" type="curve"/>
      <point x="707" y="319"/>
      <point x="707" y="297"/>
    </contour>
    <contour>
      <point x="716" y="77" type="curve"/>
      <point x="716" y="158"/>
      <point x="716" y="238"/>
      <point x="716" y="319" type="curve"/>
      <point x="694" y="319"/>
      <point x="716" y="319"/>
      <point x="694" y="319" type="curve"/>
      <point x="694" y="238"/>
      <point x="694" y="158"/>
      <point x="694" y="77" type="curve"/>
      <point x="716" y="77"/>
      <point x="694" y="77"/>
    </contour>
    <contour>
      <point x="698" y="642" type="curve"/>
      <point x="605" y="700"/>
      <point x="520" y="727"/>
      <point x="409" y="727" type="curve"/>
      <point x="187" y="727"/>
      <point x="66" y="592"/>
      <point x="66" y="365" type="curve"/>
      <point x="66" y="132"/>
      <point x="192" y="-5"/>
      <point x="421" y="-5" type="curve"/>
      <point x="539" y="-5"/>
      <point x="614" y="21"/>
      <point x="716" y="77" type="curve"/>
      <point x="702" y="95"/>
      <point x="716" y="77"/>
      <point x="702" y="95" type="curve"/>
      <point x="613" y="46"/>
      <point x="532" y="20"/>
      <point x="422" y="20" type="curve"/>
      <point x="207" y="20"/>
      <point x="91" y="149"/>
      <point x="91" y="367" type="curve"/>
      <point x="91" y="576"/>
      <point x="204" y="704"/>
      <point x="410" y="704" type="curve"/>
      <point x="515" y="704"/>
      <point x="597" y="678"/>
      <point x="686" y="624" type="curve"/>
      <point x="698" y="642"/>
      <point x="686" y="624"/>
    </contour>
    <contour>
      <point x="532" y="948" type="curve"/>
      <point x="532" y="880"/>
      <point x="484" y="846"/>
      <point x="411" y="846" type="curve"/>
      <point x="342" y="846"/>
      <point x="297" y="882"/>
      <point x="297" y="949" type="curve"/>
      <point x="274" y="949"/>
      <point x="297" y="949"/>
      <point x="274" y="949" type="curve"/>
      <point x="274" y="868"/>
      <point x="326" y="825"/>
      <point x="409" y="825" type="curve"/>
      <point x="498" y="825"/>
      <point x="555" y="865"/>
      <point x="555" y="948" type="curve"/>
      <point x="532" y="948"/>
      <point x="555" y="948"/>
    </contour>
  </outline>
</glyph>
<glyph name="gcommaaccent" format="1">
  <advance width="560"/>
  <unicode hex="0123"/>
  <outline>
    <contour>
      <point x="384" y="500" type="curve"/>
      <point x="539" y="578" type="line"/>
      <point x="532" y="587"/>
      <point x="532" y="589"/>
      <point x="525" y="598" type="curve"/>
      <point x="371" y="517" type="line"/>
      <point x="384" y="500"/>
      <point x="371" y="517"/>
    </contour>
    <contour>
      <point x="115" y="358" type="curve"/>
      <point x="115" y="455"/>
      <point x="185" y="517"/>
      <point x="287" y="517" type="curve"/>
      <point x="387" y="517"/>
      <point x="454" y="458"/>
      <point x="454" y="361" type="curve"/>
      <point x="454" y="268"/>
      <point x="385" y="210"/>
      <point x="285" y="210" type="curve"/>
      <point x="187" y="210"/>
      <point x="115" y="264"/>
      <point x="115" y="358" type="curve"/>
      <point x="91" y="357"/>
      <point x="115" y="358"/>
      <point x="91" y="357" type="curve"/>
      <point x="91" y="250"/>
      <point x="171" y="189"/>
      <point x="283" y="189" type="curve"/>
      <point x="397" y="189"/>
      <point x="478" y="252"/>
      <point x="478" y="362" type="curve"/>
      <point x="478" y="472"/>
      <point x="400" y="538"/>
      <point x="287" y="538" type="curve"/>
      <point x="170" y="538"/>
      <point x="91" y="470"/>
      <point x="91" y="357" type="curve"/>
      <point x="115" y="358"/>
      <point x="91" y="357"/>
    </contour>
    <contour>
      <point x="174" y="227" type="curve"/>
      <point x="127" y="200"/>
      <point x="95" y="165"/>
      <point x="95" y="109" type="curve"/>
      <point x="95" y="20"/>
      <point x="181" y="-5"/>
      <point x="279" y="-13" type="curve"/>
      <point x="400" y="-23"/>
      <point x="513" y="-38"/>
      <point x="513" y="-144" type="curve"/>
      <point x="513" y="-248"/>
      <point x="405" y="-283"/>
      <point x="282" y="-283" type="curve"/>
      <point x="165" y="-283"/>
      <point x="69" y="-236"/>
      <point x="69" y="-134" type="curve"/>
      <point x="69" y="-62"/>
      <point x="115" y="-18"/>
      <point x="182" y="10" type="curve"/>
      <point x="171" y="24"/>
      <point x="182" y="10"/>
      <point x="171" y="24" type="curve"/>
      <point x="96" y="-7"/>
      <point x="45" y="-54"/>
      <point x="45" y="-135" type="curve"/>
      <point x="45" y="-254"/>
      <point x="150" y="-304"/>
      <point x="281" y="-304" type="curve"/>
      <point x="418" y="-304"/>
      <point x="537" y="-266"/>
      <point x="535" y="-142" type="curve"/>
      <point x="535" y="-23"/>
      <point x="415" y="-3"/>
      <point x="284" y="8" type="curve"/>
      <point x="196" y="13"/>
      <point x="119" y="32"/>
      <point x="119" y="112" type="curve"/>
      <point x="119" y="159"/>
      <point x="145" y="190"/>
      <point x="187" y="214" type="curve"/>
      <point x="174" y="227"/>
      <point x="187" y="214"/>
    </contour>
    <contour>
      <point x="330" y="794" type="line"/>
      <point x="302" y="769"/>
      <point x="278" y="738"/>
      <point x="278" y="687" type="curve"/>
      <point x="278" y="666"/>
      <point x="281" y="648"/>
      <point x="300" y="648" type="curve"/>
      <point x="313" y="648"/>
      <point x="320" y="654"/>
      <point x="320" y="666" type="curve"/>
      <point x="320" y="676"/>
      <point x="316" y="682"/>
      <point x="305" y="687" type="curve"/>
      <point x="305" y="711"/>
      <point x="316" y="750"/>
      <point x="346" y="776" type="curve"/>
    </contour>
  </outline>
</glyph>
<glyph name="iogonek" format="1">
  <advance width="318"/>
  <unicode hex="012F"/>
  <outline>
    <contour>
      <point x="177" y="22" type="curve"/>
      <point x="31" y="22"/>
      <point x="182" y="22"/>
      <point x="35" y="22" type="curve"/>
      <point x="35" y="0"/>
      <point x="35" y="22"/>
      <point x="35" y="0" type="curve"/>
      <point x="84" y="0"/>
      <point x="129" y="0"/>
      <point x="177" y="0" type="curve"/>
      <point x="177" y="22"/>
      <point x="177" y="0"/>
    </contour>
    <contour>
      <point x="177" y="0" type="curve"/>
      <point x="222" y="0"/>
      <point x="264" y="0"/>
      <point x="309" y="0" type="curve"/>
      <point x="309" y="22"/>
      <point x="309" y="0"/>
      <point x="309" y="22" type="curve"/>
      <point x="173" y="22"/>
      <point x="314" y="22"/>
      <point x="177" y="22" type="curve"/>
      <point x="177" y="0"/>
      <point x="177" y="22"/>
    </contour>
    <contour>
      <point x="177" y="533" type="curve"/>
      <point x="129" y="533"/>
      <point x="84" y="533"/>
      <point x="35" y="533" type="curve"/>
      <point x="35" y="511"/>
      <point x="35" y="533"/>
      <point x="35" y="511" type="curve"/>
      <point x="182" y="511"/>
      <point x="31" y="511"/>
      <point x="177" y="511" type="curve"/>
      <point x="177" y="533"/>
      <point x="177" y="511"/>
    </contour>
    <contour>
      <point x="191" y="0" type="curve"/>
      <point x="191" y="178"/>
      <point x="191" y="355"/>
      <point x="191" y="533" type="curve"/>
      <point x="165" y="533"/>
      <point x="191" y="533"/>
      <point x="165" y="533" type="curve"/>
      <point x="165" y="355"/>
      <point x="165" y="178"/>
      <point x="165" y="0" type="curve"/>
      <point x="191" y="0"/>
      <point x="165" y="0"/>
    </contour>
    <contour>
      <point x="195" y="684" type="curve"/>
      <point x="195" y="695"/>
      <point x="187" y="702"/>
      <point x="176" y="702" type="curve"/>
      <point x="165" y="702"/>
      <point x="158" y="695"/>
      <point x="158" y="684" type="curve"/>
      <point x="182" y="684"/>
      <point x="171" y="684"/>
      <point x="195" y="684" type="curve"/>
      <point x="195" y="673"/>
      <point x="187" y="667"/>
      <point x="176" y="667" type="curve"/>
      <point x="165" y="667"/>
      <point x="158" y="673"/>
      <point x="158" y="684" type="curve"/>
      <point x="182" y="684"/>
      <point x="171" y="684"/>
    </contour>
    <contour>
      <point x="182" y="14" type="curve"/>
      <point x="121" y="-11"/>
      <point x="69" y="-35"/>
      <point x="69" y="-100" type="curve"/>
      <point x="69" y="-157"/>
      <point x="106" y="-195"/>
      <point x="163" y="-195" type="curve"/>
      <point x="196" y="-195"/>
      <point x="218" y="-182"/>
      <point x="246" y="-165" type="curve"/>
      <point x="238" y="-154"/>
      <point x="241" y="-161"/>
      <point x="234" y="-150" type="curve"/>
      <point x="210" y="-164"/>
      <point x="192" y="-173"/>
      <point x="165" y="-173" type="curve"/>
      <point x="120" y="-173"/>
      <point x="92" y="-144"/>
      <point x="92" y="-100" type="curve"/>
      <point x="92" y="-43"/>
      <point x="138" y="-25"/>
      <point x="191" y="0" type="curve"/>
      <point x="185" y="10"/>
      <point x="188" y="5"/>
    </contour>
  </outline>
</glyph>
<glyph name="Lacute" format="1">
  <advance width="665"/>
  <unicode hex="0139"/>
  <outline>
    <contour>
      <point x="623" y="11" type="curve"/>
      <point x="623" y="131"/>
      <point x="623" y="6"/>
      <point x="623" y="126" type="curve"/>
      <point x="601" y="126"/>
      <point x="623" y="126"/>
      <point x="601" y="126" type="curve"/>
      <point x="601" y="6"/>
      <point x="601" y="131"/>
      <point x="601" y="11" type="curve"/>
      <point x="623" y="11"/>
      <point x="601" y="11"/>
    </contour>
    <contour>
      <point x="182" y="22" type="curve"/>
      <point x="31" y="22"/>
      <point x="192" y="22"/>
      <point x="40" y="22" type="curve"/>
      <point x="40" y="0"/>
      <point x="40" y="22"/>
      <point x="40" y="0" type="curve"/>
      <point x="90" y="0"/>
      <point x="132" y="0"/>
      <point x="182" y="0" type="curve"/>
      <point x="182" y="22"/>
      <point x="182" y="0"/>
    </contour>
    <contour>
      <point x="182" y="722" type="curve"/>
      <point x="132" y="722"/>
      <point x="90" y="722"/>
      <point x="40" y="722" type="curve"/>
      <point x="40" y="700"/>
      <point x="40" y="722"/>
      <point x="40" y="700" type="curve"/>
      <point x="192" y="700"/>
      <point x="31" y="700"/>
      <point x="182" y="700" type="curve"/>
      <point x="182" y="722"/>
      <point x="182" y="700"/>
    </contour>
    <contour>
      <point x="182" y="700" type="curve"/>
      <point x="334" y="700"/>
      <point x="173" y="700"/>
      <point x="324" y="700" type="curve"/>
      <point x="324" y="722"/>
      <point x="324" y="700"/>
      <point x="324" y="722" type="curve"/>
      <point x="274" y="722"/>
      <point x="233" y="722"/>
      <point x="182" y="722" type="curve"/>
      <point x="182" y="700"/>
      <point x="182" y="722"/>
    </contour>
    <contour>
      <point x="196" y="0" type="curve"/>
      <point x="196" y="241"/>
      <point x="196" y="481"/>
      <point x="196" y="722" type="curve"/>
      <point x="171" y="722"/>
      <point x="196" y="722"/>
      <point x="171" y="722" type="curve"/>
      <point x="171" y="481"/>
      <point x="171" y="241"/>
      <point x="171" y="0" type="curve"/>
      <point x="196" y="0"/>
      <point x="171" y="0"/>
    </contour>
    <contour>
      <point x="182" y="0" type="curve"/>
      <point x="330" y="0"/>
      <point x="476" y="0"/>
      <point x="623" y="0" type="curve"/>
      <point x="623" y="22"/>
      <point x="623" y="0"/>
      <point x="623" y="22" type="curve"/>
      <point x="476" y="22"/>
      <point x="330" y="22"/>
      <point x="182" y="22" type="curve"/>
      <point x="182" y="0"/>
      <point x="182" y="22"/>
    </contour>
    <contour>
      <point x="198" y="825" type="line"/>
      <point x="337" y="991" type="line"/>
      <point x="301" y="991" type="line"/>
      <point x="171" y="825" type="line"/>
    </contour>
  </outline>
</glyph>
<glyph name="nacute" format="1">
  <advance width="711"/>
  <unicode hex="0144"/>
  <outline>
    <contour>
      <point x="184" y="347" type="curve"/>
      <point x="215" y="448"/>
      <point x="302" y="516"/>
      <point x="395" y="516" type="curve"/>
      <point x="501" y="516"/>
      <point x="554" y="450"/>
      <point x="554" y="341" type="curve"/>
      <point x="554" y="228"/>
      <point x="554" y="114"/>
      <point x="554" y="0" type="curve"/>
      <point x="578" y="0"/>
      <point x="554" y="0"/>
      <point x="578" y="0" type="curve"/>
      <point x="578" y="115"/>
      <point x="578" y="229"/>
      <point x="578" y="344" type="curve"/>
      <point x="578" y="466"/>
      <point x="519" y="538"/>
      <point x="400" y="538" type="curve"/>
      <point x="294" y="538"/>
      <point x="199" y="472"/>
      <point x="172" y="361" type="curve"/>
      <point x="184" y="349"/>
      <point x="171" y="359"/>
    </contour>
    <contour>
      <point x="565" y="0" type="curve"/>
      <point x="613" y="0"/>
      <point x="658" y="0"/>
      <point x="707" y="0" type="curve"/>
      <point x="707" y="22"/>
      <point x="707" y="0"/>
      <point x="707" y="22" type="curve"/>
      <point x="560" y="22"/>
      <point x="711" y="22"/>
      <point x="565" y="22" type="curve"/>
      <point x="565" y="0"/>
      <point x="565" y="22"/>
    </contour>
    <contour>
      <point x="177" y="22" type="curve"/>
      <point x="31" y="22"/>
      <point x="182" y="22"/>
      <point x="35" y="22" type="curve"/>
      <point x="35" y="0"/>
      <point x="35" y="22"/>
      <point x="35" y="0" type="curve"/>
      <point x="84" y="0"/>
      <point x="129" y="0"/>
      <point x="177" y="0" type="curve"/>
      <point x="177" y="22"/>
      <point x="177" y="0"/>
    </contour>
    <contour>
      <point x="177" y="0" type="curve"/>
      <point x="221" y="0"/>
      <point x="170" y="0"/>
      <point x="301" y="0" type="curve"/>
      <point x="301" y="22"/>
      <point x="301" y="0"/>
      <point x="301" y="22" type="curve"/>
      <point x="170" y="22"/>
      <point x="309" y="22"/>
      <point x="177" y="22" type="curve"/>
      <point x="177" y="0"/>
      <point x="177" y="22"/>
    </contour>
    <contour>
      <point x="189" y="0" type="curve"/>
      <point x="189" y="178"/>
      <point x="189" y="355"/>
      <point x="189" y="533" type="curve"/>
      <point x="165" y="533"/>
      <point x="189" y="533"/>
      <point x="165" y="533" type="curve"/>
      <point x="165" y="355"/>
      <point x="165" y="178"/>
      <point x="165" y="0" type="curve"/>
      <point x="189" y="0"/>
      <point x="165" y="0"/>
    </contour>
    <contour>
      <point x="177" y="533" type="curve"/>
      <point x="129" y="533"/>
      <point x="84" y="533"/>
      <point x="35" y="533" type="curve"/>
      <point x="35" y="511"/>
      <point x="35" y="533"/>
      <point x="35" y="511" type="curve"/>
      <point x="182" y="511"/>
      <point x="31" y="511"/>
      <point x="177" y="511" type="curve"/>
      <point x="177" y="533"/>
      <point x="177" y="511"/>
    </contour>
    <contour>
      <point x="393" y="670" type="line"/>
      <point x="532" y="836" type="line"/>
      <point x="497" y="836" type="line"/>
      <point x="366" y="670" type="line"/>
    </contour>
  </outline>
</glyph>
<glyph name="Omacron" format="1">
  <advance width="766"/>
  <unicode hex="014C"/>
  <outline>
    <contour>
      <point x="93" y="360" type="curve"/>
      <point x="93" y="560"/>
      <point x="189" y="705"/>
      <point x="381" y="705" type="curve"/>
      <point x="574" y="705"/>
      <point x="672" y="562"/>
      <point x="672" y="363" type="curve"/>
      <point x="672" y="164"/>
      <point x="577" y="18"/>
      <point x="384" y="18" type="curve"/>
      <point x="190" y="18"/>
      <point x="93" y="160"/>
      <point x="93" y="360" type="curve"/>
      <point x="69" y="360"/>
      <point x="93" y="360"/>
      <point x="69" y="360" type="curve"/>
      <point x="69" y="145"/>
      <point x="176" y="-5"/>
      <point x="383" y="-5" type="curve"/>
      <point x="590" y="-5"/>
      <point x="697" y="147"/>
      <point x="697" y="363" type="curve"/>
      <point x="697" y="577"/>
      <point x="590" y="727"/>
      <point x="383" y="727" type="curve"/>
      <point x="175" y="727"/>
      <point x="69" y="575"/>
      <point x="69" y="360" type="curve"/>
      <point x="93" y="360"/>
      <point x="69" y="360"/>
    </contour>
    <contour>
      <point x="496" y="846" type="curve"/>
      <point x="417" y="846"/>
      <point x="339" y="846"/>
      <point x="261" y="846" type="curve"/>
      <point x="261" y="825"/>
      <point x="261" y="846"/>
      <point x="261" y="825" type="curve"/>
      <point x="339" y="825"/>
      <point x="417" y="825"/>
      <point x="496" y="825" type="curve"/>
      <point x="496" y="846"/>
      <point x="496" y="825"/>
    </contour>
  </outline>
</glyph>
<glyph name="rcommaaccent" format="1">
  <advance width="469"/>
  <unicode hex="0157"/>
  <outline>
    <contour>
      <point x="178" y="0" type="curve"/>
      <point x="223" y="0"/>
      <point x="265" y="0"/>
      <point x="310" y="0" type="curve"/>
      <point x="310" y="22"/>
      <point x="310" y="0"/>
      <point x="310" y="22" type="curve"/>
      <point x="174" y="22"/>
      <point x="314" y="22"/>
      <point x="178" y="22" type="curve"/>
      <point x="178" y="0"/>
      <point x="178" y="22"/>
    </contour>
    <contour>
      <point x="178" y="22" type="curve"/>
      <point x="31" y="22"/>
      <point x="182" y="22"/>
      <point x="36" y="22" type="curve"/>
      <point x="36" y="0"/>
      <point x="36" y="22"/>
      <point x="36" y="0" type="curve"/>
      <point x="84" y="0"/>
      <point x="129" y="0"/>
      <point x="178" y="0" type="curve"/>
      <point x="178" y="22"/>
      <point x="178" y="0"/>
    </contour>
    <contour>
      <point x="177" y="533" type="curve"/>
      <point x="128" y="533"/>
      <point x="84" y="533"/>
      <point x="35" y="533" type="curve"/>
      <point x="35" y="511"/>
      <point x="35" y="533"/>
      <point x="35" y="511" type="curve"/>
      <point x="182" y="511"/>
      <point x="31" y="511"/>
      <point x="177" y="511" type="curve"/>
      <point x="177" y="533"/>
      <point x="177" y="511"/>
    </contour>
    <contour>
      <point x="190" y="0" type="curve"/>
      <point x="190" y="178"/>
      <point x="190" y="355"/>
      <point x="190" y="533" type="curve"/>
      <point x="166" y="533"/>
      <point x="190" y="533"/>
      <point x="166" y="533" type="curve"/>
      <point x="166" y="355"/>
      <point x="166" y="178"/>
      <point x="166" y="0" type="curve"/>
      <point x="190" y="0"/>
      <point x="166" y="0"/>
    </contour>
    <contour>
      <point x="184" y="361" type="curve"/>
      <point x="229" y="469"/>
      <point x="331" y="516"/>
      <point x="438" y="516" type="curve"/>
      <point x="438" y="540"/>
      <point x="438" y="514"/>
      <point x="438" y="538" type="curve"/>
      <point x="324" y="538"/>
      <point x="213" y="487"/>
      <point x="174" y="383" type="curve"/>
      <point x="187" y="368"/>
      <point x="173" y="375"/>
    </contour>
    <contour>
      <point x="133" y="-228" type="line"/>
      <point x="161" y="-203"/>
      <point x="185" y="-172"/>
      <point x="185" y="-120" type="curve"/>
      <point x="185" y="-100"/>
      <point x="182" y="-82"/>
      <point x="163" y="-82" type="curve"/>
      <point x="150" y="-82"/>
      <point x="143" y="-88"/>
      <point x="143" y="-100" type="curve"/>
      <point x="143" y="-110"/>
      <point x="147" y="-116"/>
      <point x="158" y="-121" type="curve"/>
      <point x="158" y="-145"/>
      <point x="147" y="-184"/>
      <point x="117" y="-210" type="curve"/>
    </contour>
  </outline>
</glyph>
<glyph name="tcaron" format="1">
  <advance width="452"/>
  <unicode hex="0165"/>
  <outline>
    <contour>
      <point x="21" y="511" type="curve"/>
      <point x="429" y="511" type="line"/>
      <point x="429" y="533"/>
      <point x="429" y="511"/>
      <point x="429" y="533" type="curve"/>
      <point x="21" y="533" type="line"/>
      <point x="21" y="511"/>
      <point x="21" y="533"/>
    </contour>
    <contour>
      <point x="404" y="47" type="curve"/>
      <point x="368" y="29"/>
      <point x="341" y="18"/>
      <point x="302" y="18" type="curve"/>
      <point x="227" y="18"/>
      <point x="194" y="62"/>
      <point x="194" y="145" type="curve"/>
      <point x="194" y="676" type="line"/>
      <point x="181" y="669"/>
      <point x="182" y="665"/>
      <point x="170" y="658" type="curve"/>
      <point x="170" y="143" type="line"/>
      <point x="170" y="49"/>
      <point x="211" y="-5"/>
      <point x="300" y="-5" type="curve"/>
      <point x="344" y="-5"/>
      <point x="374" y="7"/>
      <point x="414" y="26" type="curve"/>
      <point x="404" y="47"/>
      <point x="414" y="26"/>
    </contour>
    <contour>
      <point x="342" y="673" type="line"/>
      <point x="370" y="698"/>
      <point x="395" y="730"/>
      <point x="395" y="781" type="curve"/>
      <point x="395" y="801"/>
      <point x="391" y="819"/>
      <point x="373" y="819" type="curve"/>
      <point x="360" y="819"/>
      <point x="353" y="813"/>
      <point x="353" y="801" type="curve"/>
      <point x="353" y="791"/>
      <point x="357" y="785"/>
      <point x="368" y="780" type="curve"/>
      <point x="368" y="756"/>
      <point x="356" y="717"/>
      <point x="327" y="691" type="curve"/>
    </contour>
  </outline>
</glyph>
<glyph name="Uhungarumlaut" format="1">
  <advance width="859"/>
  <unicode hex="0170"/>
  <outline>
    <contour>
      <point x="691" y="700" type="curve"/>
      <point x="837" y="700"/>
      <point x="687" y="700"/>
      <point x="833" y="700" type="curve"/>
      <point x="833" y="722"/>
      <point x="833" y="700"/>
      <point x="833" y="722" type="curve"/>
      <point x="785" y="722"/>
      <point x="739" y="722"/>
      <point x="691" y="722" type="curve"/>
      <point x="691" y="700"/>
      <point x="691" y="722"/>
    </contour>
    <contour>
      <point x="691" y="722" type="curve"/>
      <point x="642" y="722"/>
      <point x="597" y="722"/>
      <point x="549" y="722" type="curve"/>
      <point x="549" y="700"/>
      <point x="549" y="722"/>
      <point x="549" y="700" type="curve"/>
      <point x="695" y="700"/>
      <point x="545" y="700"/>
      <point x="691" y="700" type="curve"/>
      <point x="691" y="722"/>
      <point x="691" y="700"/>
    </contour>
    <contour>
      <point x="169" y="722" type="curve"/>
      <point x="120" y="722"/>
      <point x="75" y="722"/>
      <point x="27" y="722" type="curve"/>
      <point x="27" y="700"/>
      <point x="27" y="722"/>
      <point x="27" y="700" type="curve"/>
      <point x="173" y="700"/>
      <point x="22" y="700"/>
      <point x="169" y="700" type="curve"/>
      <point x="169" y="722"/>
      <point x="169" y="700"/>
    </contour>
    <contour>
      <point x="169" y="700" type="curve"/>
      <point x="315" y="700"/>
      <point x="165" y="700"/>
      <point x="311" y="700" type="curve"/>
      <point x="311" y="722"/>
      <point x="311" y="700"/>
      <point x="311" y="722" type="curve"/>
      <point x="262" y="722"/>
      <point x="217" y="722"/>
      <point x="169" y="722" type="curve"/>
      <point x="169" y="700"/>
      <point x="169" y="722"/>
    </contour>
    <contour>
      <point x="154" y="721" type="curve"/>
      <point x="154" y="555"/>
      <point x="154" y="437"/>
      <point x="154" y="271" type="curve"/>
      <point x="154" y="86"/>
      <point x="245" y="-5"/>
      <point x="431" y="-5" type="curve"/>
      <point x="613" y="-5"/>
      <point x="703" y="83"/>
      <point x="703" y="263" type="curve"/>
      <point x="703" y="432"/>
      <point x="703" y="552"/>
      <point x="703" y="721" type="curve"/>
      <point x="688" y="721"/>
      <point x="695" y="721"/>
      <point x="680" y="721" type="curve"/>
      <point x="680" y="550"/>
      <point x="680" y="430"/>
      <point x="680" y="259" type="curve"/>
      <point x="680" y="100"/>
      <point x="596" y="19"/>
      <point x="433" y="19" type="curve"/>
      <point x="260" y="19"/>
      <point x="177" y="103"/>
      <point x="177" y="275" type="curve"/>
      <point x="177" y="440"/>
      <point x="177" y="557"/>
      <point x="177" y="721" type="curve"/>
      <point x="162" y="721"/>
      <point x="169" y="721"/>
    </contour>
    <contour>
      <point x="346" y="851" type="line"/>
      <point x="485" y="1017" type="line"/>
      <point x="450" y="1017" type="line"/>
      <point x="319" y="851" type="line"/>
    </contour>
    <contour>
      <point x="488" y="851" type="line"/>
      <point x="627" y="1017" type="line"/>
      <point x="592" y="1017" type="line"/>
      <point x="461" y="851" type="line"/>
    </contour>
  </outline>
</glyph>
<glyph name="Uogonek" format="1">
  <advance width="859"/>
  <unicode hex="0172"/>
  <outline>
    <contour>
      <point x="691" y="700" type="curve"/>
      <point x="837" y="700"/>
      <point x="687" y="700"/>
      <point x="833" y="700" type="curve"/>
      <point x="833" y="722"/>
      <point x="833" y="700"/>
      <point x="833" y="722" type="curve"/>
      <point x="785" y="722"/>
      <point x="739" y="722"/>
      <point x="691" y="722" type="curve"/>
      <point x="691" y="700"/>
      <point x="691" y="722"/>
    </contour>
    <contour>
      <point x="691" y="722" type="curve"/>
      <point x="642" y="722"/>
      <point x="597" y="722"/>
      <point x="549" y="722" type="curve"/>
      <point x="549" y="700"/>
      <point x="549" y="722"/>
      <point x="549" y="700" type="curve"/>
      <point x="695" y="700"/>
      <point x="545" y="700"/>
      <point x="691" y="700" type="curve"/>
      <point x="691" y="722"/>
      <point x="691" y="700"/>
    </contour>
    <contour>
      <point x="169" y="722" type="curve"/>
      <point x="120" y="722"/>
      <point x="75" y="722"/>
      <point x="27" y="722" type="curve"/>
      <point x="27" y="700"/>
      <point x="27" y="722"/>
      <point x="27" y="700" type="curve"/>
      <point x="173" y="700"/>
      <point x="22" y="700"/>
      <point x="169" y="700" type="curve"/>
      <point x="169" y="722"/>
      <point x="169" y="700"/>
    </contour>
    <contour>
      <point x="169" y="700" type="curve"/>
      <point x="315" y="700"/>
      <point x="165" y="700"/>
      <point x="311" y="700" type="curve"/>
      <point x="311" y="722"/>
      <point x="311" y="700"/>
      <point x="311" y="722" type="curve"/>
      <point x="262" y="722"/>
      <point x="217" y="722"/>
      <point x="169" y="722" type="curve"/>
      <point x="169" y="700"/>
      <point x="169" y="722"/>
    </contour>
    <contour>
      <point x="154" y="721" type="curve"/>
      <point x="154" y="555"/>
      <point x="154" y="437"/>
      <point x="154" y="271" type="curve"/>
      <point x="154" y="86"/>
      <point x="245" y="-5"/>
      <point x="431" y="-5" type="curve"/>
      <point x="613" y="-5"/>
      <point x="703" y="83"/>
      <point x="703" y="263" type="curve"/>
      <point x="703" y="432"/>
      <point x="703" y="552"/>
      <point x="703" y="721" type="curve"/>
      <point x="688" y="721"/>
      <point x="695" y="721"/>
      <point x="680" y="721" type="curve"/>
      <point x="680" y="550"/>
      <point x="680" y="430"/>
      <point x="680" y="259" type="curve"/>
      <point x="680" y="100"/>
      <point x="596" y="19"/>
      <point x="433" y="19" type="curve"/>
      <point x="260" y="19"/>
      <point x="177" y="103"/>
      <point x="177" y="275" type="curve"/>
      <point x="177" y="440"/>
      <point x="177" y="557"/>
      <point x="177" y="721" type="curve"/>
      <point x="162" y="721"/>
      <point x="169" y="721"/>
    </contour>
    <contour>
      <point x="436" y="11" type="curve"/>
      <point x="375" y="-14"/>
      <point x="324" y="-38"/>
      <point x="324" y="-103" type="curve"/>
      <point x="324" y="-160"/>
      <point x="360" y="-198"/>
      <point x="418" y="-198" type="curve"/>
      <point x="451" y="-198"/>
      <point x="473" y="-185"/>
      <point x="500" y="-168" type="curve"/>
      <point x="492" y="-157"/>
      <point x="496" y="-164"/>
      <point x="488" y="-153" type="curve"/>
      <point x="465" y="-167"/>
      <point x="446" y="-176"/>
      <point x="420" y="-176" type="curve"/>
      <point x="374" y="-176"/>
      <point x="346" y="-147"/>
      <point x="346" y="-103" type="curve"/>
      <point x="346" y="-46"/>
      <point x="393" y="-28"/>
      <point x="445" y="-3" type="curve"/>
      <point x="439" y="7"/>
      <point x="443" y="2"/>
    </contour>
  </outline>
</glyph>
<glyph name="uogonek" format="1">
  <advance width="670"/>
  <unicode hex="0173"/>
  <outline>
    <contour>
      <point x="530" y="533" type="curve"/>
      <point x="481" y="533"/>
      <point x="436" y="533"/>
      <point x="388" y="533" type="curve"/>
      <point x="388" y="511"/>
      <point x="388" y="533"/>
      <point x="388" y="511" type="curve"/>
      <point x="534" y="511"/>
      <point x="383" y="511"/>
      <point x="530" y="511" type="curve"/>
      <point x="530" y="533"/>
      <point x="530" y="511"/>
    </contour>
    <contour>
      <point x="148" y="533" type="curve"/>
      <point x="100" y="533"/>
      <point x="54" y="533"/>
      <point x="6" y="533" type="curve"/>
      <point x="6" y="511"/>
      <point x="6" y="533"/>
      <point x="6" y="511" type="curve"/>
      <point x="152" y="511"/>
      <point x="2" y="511"/>
      <point x="148" y="511" type="curve"/>
      <point x="148" y="533"/>
      <point x="148" y="511"/>
    </contour>
    <contour>
      <point x="530" y="0" type="curve"/>
      <point x="575" y="0"/>
      <point x="616" y="0"/>
      <point x="661" y="0" type="curve"/>
      <point x="661" y="22"/>
      <point x="661" y="0"/>
      <point x="661" y="22" type="curve"/>
      <point x="526" y="22"/>
      <point x="666" y="22"/>
      <point x="530" y="22" type="curve"/>
      <point x="530" y="0"/>
      <point x="530" y="22"/>
    </contour>
    <contour>
      <point x="542" y="0" type="curve"/>
      <point x="542" y="178"/>
      <point x="542" y="355"/>
      <point x="542" y="533" type="curve"/>
      <point x="518" y="533"/>
      <point x="542" y="533"/>
      <point x="518" y="533" type="curve"/>
      <point x="518" y="355"/>
      <point x="518" y="178"/>
      <point x="518" y="0" type="curve"/>
      <point x="542" y="0"/>
      <point x="518" y="0"/>
    </contour>
    <contour>
      <point x="521" y="167" type="curve"/>
      <point x="483" y="88"/>
      <point x="409" y="17"/>
      <point x="328" y="17" type="curve"/>
      <point x="218" y="17"/>
      <point x="160" y="77"/>
      <point x="160" y="187" type="curve"/>
      <point x="160" y="302"/>
      <point x="160" y="418"/>
      <point x="160" y="533" type="curve"/>
      <point x="136" y="533"/>
      <point x="160" y="533"/>
      <point x="136" y="533" type="curve"/>
      <point x="136" y="417"/>
      <point x="136" y="301"/>
      <point x="136" y="185" type="curve"/>
      <point x="136" y="61"/>
      <point x="202" y="-5"/>
      <point x="326" y="-5" type="curve"/>
      <point x="421" y="-5"/>
      <point x="497" y="69"/>
      <point x="537" y="156" type="curve"/>
      <point x="521" y="167"/>
      <point x="538" y="156"/>
    </contour>
    <contour>
      <point x="533" y="14" type="curve"/>
      <point x="472" y="-11"/>
      <point x="420" y="-35"/>
      <point x="420" y="-100" type="curve"/>
      <point x="420" y="-157"/>
      <point x="457" y="-195"/>
      <point x="514" y="-195" type="curve"/>
      <point x="547" y="-195"/>
      <point x="569" y="-182"/>
      <point x="597" y="-165" type="curve"/>
      <point x="589" y="-154"/>
      <point x="592" y="-161"/>
      <point x="585" y="-150" type="curve"/>
      <point x="561" y="-164"/>
      <point x="543" y="-173"/>
      <point x="516" y="-173" type="curve"/>
      <point x="471" y="-173"/>
      <point x="443" y="-144"/>
      <point x="443" y="-100" type="curve"/>
      <point x="443" y="-43"/>
      <point x="489" y="-25"/>
      <point x="542" y="0" type="curve"/>
      <point x="536" y="10"/>
      <point x="539" y="5"/>
    </contour>
  </outline>
</glyph>
<glyph name="scommaaccent" format="1">
  <advance width="494"/>
  <unicode hex="0219"/>
  <outline>
    <contour>
      <point x="65" y="50" type="curve"/>
      <point x="128" y="18"/>
      <point x="189" y="-5"/>
      <point x="258" y="-5" type="curve"/>
      <point x="362" y="-5"/>
      <point x="429" y="39"/>
      <point x="429" y="136" type="curve"/>
      <point x="428" y="235"/>
      <point x="349" y="258"/>
      <point x="252" y="288" type="curve" smooth="yes"/>
      <point x="173" y="312"/>
      <point x="114" y="341"/>
      <point x="114" y="417" type="curve"/>
      <point x="114" y="486"/>
      <point x="165" y="516"/>
      <point x="240" y="516" type="curve"/>
      <point x="293" y="516"/>
      <point x="349" y="497"/>
      <point x="387" y="472" type="curve"/>
      <point x="394" y="485"/>
      <point x="390" y="478"/>
      <point x="398" y="491" type="curve"/>
      <point x="357" y="517"/>
      <point x="298" y="538"/>
      <point x="241" y="538" type="curve"/>
      <point x="153" y="538"/>
      <point x="92" y="500"/>
      <point x="92" y="417" type="curve"/>
      <point x="92" y="328"/>
      <point x="155" y="295"/>
      <point x="244" y="267" type="curve" smooth="yes"/>
      <point x="330" y="239"/>
      <point x="406" y="222"/>
      <point x="406" y="136" type="curve"/>
      <point x="406" y="54"/>
      <point x="347" y="17"/>
      <point x="262" y="17" type="curve"/>
      <point x="195" y="17"/>
      <point x="138" y="40"/>
      <point x="76" y="70" type="curve"/>
      <point x="64" y="51"/>
      <point x="77" y="70"/>
    </contour>
    <contour>
      <point x="376" y="491" type="curve"/>
      <point x="376" y="371"/>
      <point x="376" y="496"/>
      <point x="376" y="376" type="curve"/>
      <point x="398" y="376"/>
      <point x="376" y="376"/>
      <point x="398" y="376" type="curve"/>
      <point x="398" y="496"/>
      <point x="398" y="371"/>
      <point x="398" y="491" type="curve"/>
      <point x="382" y="491"/>
      <point x="391" y="491"/>
    </contour>
    <contour>
      <point x="85" y="50" type="curve"/>
      <point x="85" y="170"/>
      <point x="85" y="45"/>
      <point x="85" y="165" type="curve"/>
      <point x="64" y="165"/>
      <point x="85" y="165"/>
      <point x="64" y="165" type="curve"/>
      <point x="64" y="45"/>
      <point x="64" y="170"/>
      <point x="64" y="50" type="curve"/>
      <point x="85" y="50"/>
      <point x="64" y="50"/>
    </contour>
    <contour>
      <point x="205" y="-230" type="line"/>
      <point x="233" y="-205"/>
      <point x="257" y="-174"/>
      <point x="257" y="-123" type="curve"/>
      <point x="257" y="-102"/>
      <point x="254" y="-84"/>
      <point x="235" y="-84" type="curve"/>
      <point x="222" y="-84"/>
      <point x="215" y="-90"/>
      <point x="215" y="-102" type="curve"/>
      <point x="215" y="-112"/>
      <point x="219" y="-118"/>
      <point x="230" y="-123" type="curve"/>
      <point x="230" y="-147"/>
      <point x="219" y="-186"/>
      <point x="189" y="-212" type="curve"/>
    </contour>
  </outline>
</glyph>
<glyph name="caron" format="1">
  <advance width="420"/>
  <unicode hex="02C7"/>
  <outline>
    <contour>
      <point x="158" y="591" type="move" name="_top"/>
    </contour>
    <contour>
      <point x="283" y="757" type="line"/>
      <point x="144" y="591" type="line"/>
      <point x="180" y="591" type="line"/>
      <point x="311" y="757" type="line"/>
    </contour>
    <contour>
      <point x="5" y="757" type="line"/>
      <point x="135" y="591" type="line"/>
      <point x="171" y="591" type="line"/>
      <point x="32" y="757" type="line"/>
    </contour>
  </outline>
</glyph>
<glyph name="ring" format="1">
  <advance width="334"/>
  <unicode hex="02DA"/>
  <outline>
    <contour>
      <point x="130" y="597" type="move" name="_top"/>
    </contour>
    <contour>
      <point x="12" y="712" type="curve"/>
      <point x="12" y="640"/>
      <point x="57" y="596"/>
      <point x="130" y="596" type="curve"/>
      <point x="204" y="596"/>
      <point x="251" y="639"/>
      <point x="251" y="712" type="curve"/>
      <point x="251" y="786"/>
      <point x="203" y="829"/>
      <point x="127" y="829" type="curve"/>
      <point x="55" y="829"/>
      <point x="12" y="785"/>
      <point x="12" y="712" type="curve"/>
      <point x="34" y="712"/>
      <point x="12" y="712"/>
      <point x="34" y="712" type="curve"/>
      <point x="34" y="771"/>
      <point x="68" y="808"/>
      <point x="127" y="808" type="curve"/>
      <point x="189" y="808"/>
      <point x="227" y="773"/>
      <point x="227" y="712" type="curve"/>
      <point x="227" y="653"/>
      <point x="190" y="617"/>
      <point x="130" y="617" type="curve"/>
      <point x="70" y="617"/>
      <point x="34" y="653"/>
      <point x="34" y="712" type="curve"/>
      <point x="12" y="712"/>
      <point x="34" y="712"/>
    </contour>
  </outline>
</glyph>
<glyph name="tilde" format="1">
  <advance width="525"/>
  <unicode hex="02DC"/>
  <outline>
    <contour>
      <point x="202" y="607" type="move" name="_top"/>
    </contour>
    <contour>
      <point x="377" y="730" type="curve"/>
      <point x="363" y="676"/>
      <point x="347" y="627"/>
      <point x="300" y="627" type="curve"/>
      <point x="260" y="627"/>
      <point x="236" y="646"/>
      <point x="208" y="676" type="curve"/>
      <point x="178" y="708"/>
      <point x="154" y="731"/>
      <point x="110" y="731" type="curve"/>
      <point x="44" y="731"/>
      <point x="18" y="680"/>
      <point x="4" y="612" type="curve"/>
      <point x="23" y="606"/>
      <point x="4" y="612"/>
      <point x="23" y="606" type="curve"/>
      <point x="37" y="664"/>
      <point x="57" y="710"/>
      <point x="110" y="710" type="curve"/>
      <point x="147" y="710"/>
      <point x="166" y="689"/>
      <point x="190" y="662" type="curve"/>
      <point x="223" y="628"/>
      <point x="251" y="606"/>
      <point x="298" y="606" type="curve"/>
      <point x="362" y="606"/>
      <point x="380" y="661"/>
      <point x="397" y="726" type="curve"/>
      <point x="377" y="730"/>
      <point x="397" y="726"/>
    </contour>
  </outline>
</glyph>
<glyph name="pi" format="1">
  <advance width="598"/>
  <unicode hex="03C0"/>
  <outline>
    <contour>
      <point x="19" y="565" type="curve"/>
      <point x="576" y="565" type="line"/>
      <point x="576" y="589"/>
      <point x="576" y="565"/>
      <point x="576" y="589" type="curve"/>
      <point x="19" y="589" type="line"/>
      <point x="19" y="565"/>
      <point x="19" y="589"/>
    </contour>
    <contour>
      <point x="172" y="18" type="curve"/>
      <point x="172" y="588" type="line"/>
      <point x="148" y="588"/>
      <point x="172" y="588"/>
      <point x="148" y="588" type="curve"/>
      <point x="148" y="18" type="line"/>
      <point x="172" y="18"/>
      <point x="148" y="18"/>
    </contour>
    <contour>
      <point x="456" y="18" type="curve"/>
      <point x="456" y="588" type="line"/>
      <point x="432" y="588"/>
      <point x="456" y="588"/>
      <point x="432" y="588" type="curve"/>
      <point x="432" y="18" type="line"/>
      <point x="456" y="18"/>
      <point x="432" y="18"/>
    </contour>
  </outline>
</glyph>
<glyph name="dvAnusvara" format="1">
  <advance width="0"/>
  <unicode hex="0902"/>
  <outline>
    <contour>
      <point x="-112" y="740" type="move" name="_abvm.e"/>
    </contour>
    <contour>
      <point x="-114" y="892" type="curve"/>
      <point x="-114" y="901"/>
      <point x="-120" y="907"/>
      <point x="-129" y="907" type="curve"/>
      <point x="-139" y="907"/>
      <point x="-145" y="900"/>
      <point x="-145" y="892" type="curve"/>
      <point x="-114" y="892"/>
      <point x="-145" y="892"/>
      <point x="-114" y="892" type="curve"/>
      <point x="-114" y="882"/>
      <point x="-120" y="877"/>
      <point x="-129" y="877" type="curve"/>
      <point x="-139" y="877"/>
      <point x="-145" y="883"/>
      <point x="-145" y="892" type="curve"/>
      <point x="-114" y="892"/>
      <point x="-145" y="892"/>
    </contour>
  </outline>
</glyph>
<glyph name="dvE" format="1">
  <advance width="632"/>
  <unicode hex="090F"/>
  <outline>
    <contour>
      <point x="374" y="253" type="curve"/>
      <point x="471" y="313"/>
      <point x="524" y="386"/>
      <point x="524" y="498" type="curve"/>
      <point x="524" y="569"/>
      <point x="524" y="639"/>
      <point x="524" y="710" type="curve"/>
      <point x="500" y="710"/>
      <point x="524" y="710"/>
      <point x="500" y="710" type="curve"/>
      <point x="500" y="638"/>
      <point x="500" y="567"/>
      <point x="500" y="495" type="curve"/>
      <point x="500" y="392"/>
      <point x="449" y="327"/>
      <point x="361" y="271" type="curve"/>
      <point x="367" y="262"/>
      <point x="367" y="263"/>
    </contour>
    <contour>
      <point x="449" y="10" type="curve"/>
      <point x="255" y="66"/>
      <point x="135" y="185"/>
      <point x="135" y="366" type="curve"/>
      <point x="135" y="481"/>
      <point x="135" y="595"/>
      <point x="135" y="710" type="curve"/>
      <point x="112" y="710"/>
      <point x="135" y="710"/>
      <point x="112" y="710" type="curve"/>
      <point x="112" y="594"/>
      <point x="112" y="478"/>
      <point x="112" y="362" type="curve"/>
      <point x="112" y="172"/>
      <point x="240" y="44"/>
      <point x="441" y="-11" type="curve"/>
      <point x="444" y="0"/>
      <point x="445" y="-1"/>
    </contour>
    <component base="dvTopbar" xScale="0.989741311317" xOffset="-7"/>
  </outline>
</glyph>
<glyph name="dvKA" format="1">
  <advance width="971"/>
  <unicode hex="0915"/>
  <outline>
    <contour>
      <point x="479" y="0" type="move" name="blwm.virama"/>
    </contour>
    <contour>
      <point x="479" y="721" type="move" name="abvm.e"/>
    </contour>
    <contour>
      <point x="479" y="0" type="move" name="blwm.u"/>
    </contour>
    <component base="dvTopbar" xScale="1.48993152252" xOffset="-1"/>
    <component base="dvK_left" xOffset="-15"/>
    <component base="dvStemright" xOffset="381"/>
    <component base="dvKA_right" xOffset="-15"/>
  </outline>
</glyph>
<glyph name="dvTTA" format="1">
  <advance width="616"/>
  <unicode hex="091F"/>
  <outline>
    <contour>
      <point x="419" y="-10" type="move" name="blwm.virama"/>
    </contour>
    <contour>
      <point x="392" y="718" type="move" name="abvm.e"/>
    </contour>
    <contour>
      <point x="451" y="-96" type="move" name="blwm.u"/>
    </contour>
    <contour>
      <point x="373" y="531" type="curve"/>
      <point x="360" y="531"/>
      <point x="351" y="531"/>
      <point x="338" y="531" type="curve"/>
      <point x="186" y="531"/>
      <point x="82" y="441"/>
      <point x="82" y="296" type="curve"/>
      <point x="82" y="152"/>
      <point x="181" y="63"/>
      <point x="329" y="63" type="curve"/>
      <point x="409" y="63"/>
      <point x="484" y="86"/>
      <point x="541" y="137" type="curve"/>
      <point x="529" y="154" type="line"/>
      <point x="475" y="107"/>
      <point x="405" y="84"/>
      <point x="329" y="84" type="curve"/>
      <point x="195" y="84"/>
      <point x="105" y="165"/>
      <point x="105" y="296" type="curve"/>
      <point x="105" y="430"/>
      <point x="204" y="509"/>
      <point x="344" y="509" type="curve"/>
      <point x="363" y="509"/>
      <point x="378" y="509"/>
      <point x="396" y="509" type="curve"/>
      <point x="380" y="524"/>
      <point x="389" y="516"/>
    </contour>
    <contour>
      <point x="636" y="722" type="curve"/>
      <point x="417" y="722"/>
      <point x="199" y="722"/>
      <point x="-20" y="722" type="curve"/>
      <point x="-20" y="701"/>
      <point x="-20" y="722"/>
      <point x="-20" y="701" type="curve"/>
      <point x="199" y="701"/>
      <point x="417" y="701"/>
      <point x="636" y="701" type="curve"/>
      <point x="636" y="722"/>
      <point x="636" y="701"/>
    </contour>
    <contour>
      <point x="373" y="710" type="curve"/>
      <point x="373" y="650"/>
      <point x="373" y="590"/>
      <point x="373" y="531" type="curve"/>
      <point x="396" y="509"/>
      <point x="373" y="531"/>
      <point x="396" y="509" type="curve"/>
      <point x="396" y="576"/>
      <point x="396" y="643"/>
      <point x="396" y="710" type="curve"/>
      <point x="373" y="710"/>
      <point x="396" y="710"/>
    </contour>
  </outline>
</glyph>
<glyph name="dvDDA" format="1">
  <advance width="576"/>
  <unicode hex="0921"/>
  <outline>
    <contour>
      <point x="367" y="-68" type="move" name="blwm.virama"/>
    </contour>
    <contour>
      <point x="415" y="719" type="move" name="abvm.e"/>
    </contour>
    <contour>
      <point x="386" y="-156" type="move" name="blwm.u"/>
    </contour>
    <component base="dvTopbar" xScale="0.903271842754" xOffset="-6"/>
    <component base="dvDDA_base" xOffset="-6"/>
  </outline>
</glyph>
<glyph name="dvDDHA" format="1">
  <advance width="614"/>
  <unicode hex="0922"/>
  <outline>
    <contour>
      <point x="401" y="-66" type="move" name="blwm.virama"/>
    </contour>
    <contour>
      <point x="440" y="720" type="move" name="abvm.e"/>
    </contour>
    <contour>
      <point x="401" y="-144" type="move" name="blwm.u"/>
    </contour>
    <component base="dvTopbar" xScale="0.959265448803" xOffset="-5"/>
    <component base="dvDDHA_base" xOffset="-6"/>
  </outline>
</glyph>
<glyph name="dvDA" format="1">
  <advance width="581"/>
  <unicode hex="0926"/>
  <outline>
    <contour>
      <point x="477" y="-12" type="move" name="blwm.virama"/>
    </contour>
    <contour>
      <point x="429" y="720" type="move" name="abvm.e"/>
    </contour>
    <contour>
      <point x="477" y="7" type="move" name="blwm.u"/>
    </contour>
    <component base="dvDA_base"/>
    <component base="dvTopbar" xScale="0.922590921247" xOffset="-10"/>
    <component base="dvStroke_down" xOffset="-3"/>
  </outline>
</glyph>
<glyph name="dvPHA" format="1">
  <advance width="945"/>
  <unicode hex="092B"/>
  <outline>
    <contour>
      <point x="492" y="0" type="move" name="blwm.virama"/>
    </contour>
    <contour>
      <point x="492" y="721" type="move" name="abvm.e"/>
    </contour>
    <contour>
      <point x="492" y="0" type="move" name="blwm.u"/>
    </contour>
    <component base="dvTopbar" xOffset="297"/>
    <component base="dvKA_right" xOffset="-4" yOffset="-17"/>
    <component base="dvPA"/>
  </outline>
</glyph>
<glyph name="dvLA" format="1">
  <advance width="889"/>
  <unicode hex="0932"/>
  <outline>
    <contour>
      <point x="673" y="41" type="move" name="blwm.virama"/>
    </contour>
    <contour>
      <point x="609" y="719" type="move" name="abvm.e"/>
    </contour>
    <contour>
      <point x="662" y="-32" type="move" name="blwm.u"/>
    </contour>
    <component base="dvLA_base" xOffset="25" yOffset="-8"/>
    <component base="dvTopbar" xScale="1.37020773749" xOffset="-3"/>
    <component base="dvStem_short" xOffset="297"/>
  </outline>
</glyph>
<glyph name="dvmII" format="1">
  <advance width="256"/>
  <unicode hex="0940"/>
  <outline>
    <contour>
      <point x="139" y="706" type="line"/>
      <point x="129" y="811" type="line" smooth="yes"/>
      <point x="120" y="900"/>
      <point x="80" y="965"/>
      <point x="-3" y="965" type="curve"/>
      <point x="-127" y="965"/>
      <point x="-158" y="846"/>
      <point x="-158" y="706" type="curve"/>
      <point x="-138" y="706" type="line"/>
      <point x="-138" y="833"/>
      <point x="-111" y="944"/>
      <point x="-6" y="944" type="curve"/>
      <point x="66" y="944"/>
      <point x="101" y="888"/>
      <point x="109" y="811" type="curve" smooth="yes"/>
      <point x="119" y="706" type="line"/>
    </contour>
    <component base="dvmAA" xOffset="-35"/>
  </outline>
</glyph>
<glyph name="dvmEcandra" format="1">
  <advance width="0"/>
  <unicode hex="0945"/>
  <outline>
    <contour>
      <point x="-112" y="740" type="move" name="_abvm.e"/>
    </contour>
    <contour>
      <point x="19" y="985" type="curve"/>
      <point x="19" y="900"/>
      <point x="-41" y="856"/>
      <point x="-130" y="856" type="curve"/>
      <point x="-217" y="856"/>
      <point x="-274" y="902"/>
      <point x="-274" y="985" type="curve"/>
      <point x="-297" y="985"/>
      <point x="-274" y="985"/>
      <point x="-297" y="985" type="curve"/>
      <point x="-297" y="888"/>
      <point x="-232" y="835"/>
      <point x="-131" y="835" type="curve"/>
      <point x="-27" y="835"/>
      <point x="42" y="885"/>
      <point x="42" y="985" type="curve"/>
      <point x="19" y="985"/>
      <point x="42" y="985"/>
    </contour>
  </outline>
</glyph>
<glyph name="dvKxA" format="1">
  <advance width="970"/>
  <unicode hex="0958"/>
  <outline>
    <contour>
      <point x="483" y="-26" type="move" name="blwm.virama"/>
    </contour>
    <contour>
      <point x="480" y="722" type="move" name="abvm.e"/>
    </contour>
    <contour>
      <point x="529" y="-137" type="move" name="blwm.u"/>
    </contour>
    <component base="dvKA"/>
    <component base="dvAnusvara" xOffset="439" yOffset="-917"/>
  </outline>
</glyph>
<glyph name="dvDDHxA" format="1">
  <advance width="613"/>
  <unicode hex="095D"/>
  <outline>
    <contour>
      <point x="391" y="-308" type="move" name="blwm.virama"/>
    </contour>
    <contour>
      <point x="434" y="718" type="move" name="abvm.e"/>
    </contour>
    <contour>
      <point x="405" y="-377" type="move" name="blwm.u"/>
    </contour>
    <component base="dvTopbar" xScale="0.963135698448" xOffset="-8"/>
    <component base="dvAnusvara" xOffset="487" yOffset="-993"/>
    <component base="dvDDHA_base" xOffset="-11"/>
  </outline>
</glyph>
<glyph name="dvZero" format="1">
  <advance width="725"/>
  <unicode hex="0966"/>
  <outline>
    <contour>
      <point x="95" y="360" type="curve"/>
      <point x="95" y="562"/>
      <point x="174" y="703"/>
      <point x="362" y="703" type="curve"/>
      <point x="550" y="703"/>
      <point x="629" y="562"/>
      <point x="629" y="362" type="curve"/>
      <point x="629" y="162"/>
      <point x="549" y="19"/>
      <point x="365" y="19" type="curve"/>
      <point x="180" y="19"/>
      <point x="95" y="159"/>
      <point x="95" y="360" type="curve"/>
      <point x="72" y="360"/>
      <point x="93" y="360"/>
      <point x="70" y="360" type="curve"/>
      <point x="70" y="144"/>
      <point x="160" y="-5"/>
      <point x="364" y="-5" type="curve"/>
      <point x="568" y="-5"/>
      <point x="654" y="147"/>
      <point x="654" y="363" type="curve"/>
      <point x="654" y="578"/>
      <point x="567" y="727"/>
      <point x="364" y="727" type="curve"/>
      <point x="159" y="727"/>
      <point x="70" y="577"/>
      <point x="70" y="360" type="curve"/>
      <point x="93" y="360"/>
      <point x="72" y="360"/>
    </contour>
  </outline>
</glyph>
<glyph name="dvOne" format="1">
  <advance width="441"/>
  <unicode hex="0967"/>
  <outline>
    <contour>
      <point x="271" y="0" type="curve"/>
      <point x="319" y="0"/>
      <point x="366" y="0"/>
      <point x="414" y="0" type="curve"/>
      <point x="414" y="22"/>
      <point x="414" y="0"/>
      <point x="414" y="22" type="curve"/>
      <point x="271" y="22"/>
      <point x="414" y="22"/>
      <point x="271" y="22" type="curve"/>
      <point x="271" y="0"/>
      <point x="271" y="22"/>
    </contour>
    <contour>
      <point x="271" y="22" type="curve"/>
      <point x="124" y="22"/>
      <point x="271" y="22"/>
      <point x="124" y="22" type="curve"/>
      <point x="124" y="0"/>
      <point x="124" y="22"/>
      <point x="124" y="0" type="curve"/>
      <point x="173" y="0"/>
      <point x="222" y="0"/>
      <point x="271" y="0" type="curve"/>
      <point x="271" y="22"/>
      <point x="271" y="0"/>
    </contour>
    <contour>
      <point x="62" y="536" type="curve"/>
      <point x="278" y="709"/>
      <point x="62" y="536"/>
      <point x="278" y="709" type="curve"/>
      <point x="257" y="722"/>
      <point x="278" y="709"/>
      <point x="257" y="722" type="curve"/>
      <point x="47" y="553"/>
      <point x="257" y="722"/>
      <point x="47" y="553" type="curve"/>
      <point x="62" y="536"/>
      <point x="47" y="553"/>
    </contour>
    <contour>
      <point x="281" y="0" type="curve"/>
      <point x="281" y="241"/>
      <point x="281" y="481"/>
      <point x="281" y="722" type="curve"/>
      <point x="257" y="722"/>
      <point x="281" y="722"/>
      <point x="257" y="722" type="curve"/>
      <point x="257" y="481"/>
      <point x="257" y="241"/>
      <point x="257" y="0" type="curve"/>
      <point x="281" y="0"/>
      <point x="257" y="0"/>
    </contour>
  </outline>
</glyph>
<glyph name="dvTwo" format="1">
  <advance width="587"/>
  <unicode hex="0968"/>
  <outline>
    <contour>
      <point x="512" y="22" type="curve"/>
      <point x="512" y="142"/>
      <point x="512" y="22"/>
      <point x="512" y="142" type="curve"/>
      <point x="491" y="142"/>
      <point x="512" y="142"/>
      <point x="491" y="142" type="curve"/>
      <point x="491" y="22"/>
      <point x="491" y="142"/>
      <point x="491" y="22" type="curve"/>
      <point x="512" y="22"/>
      <point x="491" y="22"/>
    </contour>
    <contour>
      <point x="52" y="0" type="curve"/>
      <point x="214" y="0"/>
      <point x="354" y="0"/>
      <point x="512" y="0" type="curve"/>
      <point x="512" y="22"/>
      <point x="512" y="0"/>
      <point x="512" y="22" type="curve"/>
      <point x="349" y="22"/>
      <point x="213" y="22"/>
      <point x="52" y="22" type="curve"/>
      <point x="52" y="0"/>
      <point x="52" y="22"/>
    </contour>
    <contour>
      <point x="93" y="563" type="curve"/>
      <point x="142" y="647"/>
      <point x="195" y="703"/>
      <point x="290" y="703" type="curve"/>
      <point x="400" y="703"/>
      <point x="464" y="640"/>
      <point x="464" y="526" type="curve"/>
      <point x="464" y="398"/>
      <point x="374" y="306"/>
      <point x="290" y="237" type="curve"/>
      <point x="210" y="165"/>
      <point x="131" y="93"/>
      <point x="52" y="22" type="curve"/>
      <point x="63" y="0"/>
      <point x="52" y="22"/>
      <point x="63" y="0" type="curve"/>
      <point x="143" y="73"/>
      <point x="224" y="147"/>
      <point x="305" y="220" type="curve"/>
      <point x="394" y="293"/>
      <point x="489" y="385"/>
      <point x="489" y="527" type="curve"/>
      <point x="489" y="654"/>
      <point x="417" y="727"/>
      <point x="292" y="727" type="curve"/>
      <point x="187" y="727"/>
      <point x="121" y="667"/>
      <point x="73" y="575" type="curve"/>
      <point x="93" y="563"/>
      <point x="73" y="575"/>
    </contour>
  </outline>
</glyph>
<glyph name="zerowidthjoiner" format="1">
  <advance width="0"/>
  <unicode hex="200D"/>
  <outline>
    <contour>
      <point x="-101" y="541" type="line"/>
      <point x="155" y="772" type="line"/>
      <point x="104" y="818" type="line"/>
      <point x="-152" y="587" type="line"/>
    </contour>
    <contour>
      <point x="155" y="587" type="line"/>
      <point x="-101" y="818" type="line"/>
      <point x="-152" y="772" type="line"/>
      <point x="104" y="541" type="line"/>
    </contour>
    <contour>
      <point x="30" y="-230" type="curve"/>
      <point x="30" y="692" type="line"/>
      <point x="-30" y="692" type="curve"/>
      <point x="-30" y="-230" type="line"/>
    </contour>
  </outline>
</glyph>
<glyph name="endash" format="1">
  <advance width="577"/>
  <unicode hex="2013"/>
  <outline>
    <contour>
      <point x="89" y="260" type="curve"/>
      <point x="222" y="260"/>
      <point x="355" y="260"/>
      <point x="487" y="260" type="curve"/>
      <point x="487" y="284"/>
      <point x="487" y="260"/>
      <point x="487" y="284" type="curve"/>
      <point x="355" y="284"/>
      <point x="222" y="284"/>
      <point x="89" y="284" type="curve"/>
      <point x="89" y="260"/>
      <point x="89" y="284"/>
    </contour>
  </outline>
</glyph>
<glyph name="quotesinglbase" format="1">
  <advance width="192"/>
  <unicode hex="201A"/>
  <outline>
    <contour>
      <point x="48" y="-113" type="line"/>
      <point x="76" y="-88"/>
      <point x="100" y="-56"/>
      <point x="100" y="-5" type="curve"/>
      <point x="100" y="15"/>
      <point x="97" y="33"/>
      <point x="78" y="33" type="curve"/>
      <point x="65" y="33"/>
      <point x="58" y="27"/>
      <point x="58" y="15" type="curve"/>
      <point x="58" y="5"/>
      <point x="62" y="-1"/>
      <point x="73" y="-6" type="curve"/>
      <point x="73" y="-30"/>
      <point x="61" y="-69"/>
      <point x="32" y="-95" type="curve"/>
    </contour>
  </outline>
</glyph>
<glyph name="quotedblleft" format="1">
  <advance width="270"/>
  <unicode hex="201C"/>
  <outline>
    <contour>
      <point x="239" y="732" type="line"/>
      <point x="211" y="706"/>
      <point x="187" y="675"/>
      <point x="187" y="624" type="curve"/>
      <point x="187" y="603"/>
      <point x="190" y="586"/>
      <point x="209" y="586" type="curve"/>
      <point x="222" y="586"/>
      <point x="229" y="592"/>
      <point x="229" y="604" type="curve"/>
      <point x="229" y="614"/>
      <point x="225" y="620"/>
      <point x="214" y="625" type="curve"/>
      <point x="214" y="649"/>
      <point x="225" y="688"/>
      <point x="255" y="713" type="curve"/>
    </contour>
    <contour>
      <point x="104" y="732" type="line"/>
      <point x="76" y="706"/>
      <point x="52" y="675"/>
      <point x="52" y="624" type="curve"/>
      <point x="52" y="603"/>
      <point x="55" y="586"/>
      <point x="74" y="586" type="curve"/>
      <point x="87" y="586"/>
      <point x="94" y="592"/>
      <point x="94" y="604" type="curve"/>
      <point x="94" y="614"/>
      <point x="90" y="620"/>
      <point x="79" y="625" type="curve"/>
      <point x="79" y="649"/>
      <point x="90" y="688"/>
      <point x="120" y="713" type="curve"/>
    </contour>
  </outline>
</glyph>
<glyph name="quotedblbase" format="1">
  <advance width="323"/>
  <unicode hex="201E"/>
  <outline>
    <contour>
      <point x="48" y="-113" type="line"/>
      <point x="76" y="-88"/>
      <point x="100" y="-56"/>
      <point x="100" y="-5" type="curve"/>
      <point x="100" y="15"/>
      <point x="97" y="33"/>
      <point x="78" y="33" type="curve"/>
      <point x="65" y="33"/>
      <point x="58" y="27"/>
      <point x="58" y="15" type="curve"/>
      <point x="58" y="5"/>
      <point x="62" y="-1"/>
      <point x="73" y="-6" type="curve"/>
      <point x="73" y="-30"/>
      <point x="61" y="-69"/>
      <point x="32" y="-95" type="curve"/>
    </contour>
    <contour>
      <point x="179" y="-113" type="line"/>
      <point x="207" y="-88"/>
      <point x="231" y="-56"/>
      <point x="231" y="-5" type="curve"/>
      <point x="231" y="15"/>
      <point x="228" y="33"/>
      <point x="209" y="33" type="curve"/>
      <point x="196" y="33"/>
      <point x="189" y="27"/>
      <point x="189" y="15" type="curve"/>
      <point x="189" y="5"/>
      <point x="193" y="-1"/>
      <point x="204" y="-6" type="curve"/>
      <point x="204" y="-30"/>
      <point x="192" y="-69"/>
      <point x="163" y="-95" type="curve"/>
    </contour>
  </outline>
</glyph>
<glyph name="indianrupee" format="1">
  <advance width="591"/>
  <unicode hex="20B9"/>
  <outline>
    <contour>
      <point x="149" y="329" type="curve"/>
      <point x="266" y="335"/>
      <point x="343" y="400"/>
      <point x="343" y="512" type="curve"/>
      <point x="343" y="578"/>
      <point x="322" y="626"/>
      <point x="277" y="674" type="curve"/>
      <point x="271" y="669"/>
      <point x="266" y="665"/>
      <point x="260" y="660" type="curve"/>
      <point x="303" y="617"/>
      <point x="319" y="571"/>
      <point x="319" y="510" type="curve"/>
      <point x="319" y="403"/>
      <point x="237" y="350"/>
      <point x="126" y="350" type="curve"/>
      <point x="134" y="342"/>
      <point x="141" y="337"/>
    </contour>
    <contour>
      <point x="126" y="350" type="curve"/>
      <point x="130" y="164"/>
      <point x="144" y="-9"/>
      <point x="309" y="-9" type="curve"/>
      <point x="393" y="-9"/>
      <point x="441" y="48"/>
      <point x="470" y="130" type="curve"/>
      <point x="464" y="134"/>
      <point x="459" y="136"/>
      <point x="452" y="140" type="curve"/>
      <point x="423" y="67"/>
      <point x="384" y="13"/>
      <point x="308" y="13" type="curve"/>
      <point x="168" y="13"/>
      <point x="153" y="166"/>
      <point x="149" y="329" type="curve"/>
      <point x="141" y="337"/>
      <point x="134" y="342"/>
    </contour>
    <component base="dvTopbar" xScale="0.735017660309" xOffset="59" yOffset="-46"/>
    <component base="dvTopbar" xScale="0.735017660309" xOffset="60" yOffset="-208"/>
  </outline>
</glyph>
